<?xml version="1.0" standalone="no"?><!DOCTYPE svg PUBLIC "-//W3C//DTD SVG 1.1//EN" "http://www.w3.org/Graphics/SVG/1.1/DTD/svg11.dtd">
<svg version="1.1" xmlns="http://www.w3.org/2000/svg" width="200px" height="200.00px" viewBox="0 0 200 200">
  <path fill="#126B9B" d="M112.8,197.8c-47.2,0-85.6-38.4-85.6-85.7c0-47.2,38.4-85.7,85.6-85.7c47.2,0,85.7,38.4,85.7,85.7
		C198.5,159.4,160,197.8,112.8,197.8z M112.8,32.6c-43.9,0-79.6,35.7-79.6,79.6c0,43.9,35.7,79.6,79.6,79.6
		c43.9,0,79.6-35.7,79.6-79.6C192.4,68.3,156.7,32.6,112.8,32.6z"></path>
  <path id="XMLID_57_" fill-rule="evenodd" clip-rule="evenodd" fill="#2797CB" d="M35.9,153.2c0,0,19.5-1.1,43.4,8.3
		c23.9,9.4,45.6,18.8,70.2,15.9c24.6-2.9,43-11.6,49.6-19.5c-0.4,0.4-22.4,10.5-36.9,4.7c0,0-16.3-24.6-21.7-68
		c0.7,0-13,53.9-14.5,59c-0.7,0.4-5.8-53.2,11.6-100.6c0,0.4-56.1,39.4-76.7,94.4C60.9,148.2,35.9,153.2,35.9,153.2z"></path>
  <path id="XMLID_56_" fill="#FFFFFF" d="M32.6,153.9c0,0,0.1-2.6,18.5,0.3c9,1.4,27.7,9.1,48.3,13c62.6,11.9,74.3,4,85,2.8
		c10.7-1.2-5.7,7.2-5.7,7.2l-10.4,1.5c0,0-46.5,3.6-68.9-2.7c-22.4-6.3-66.5-14.9-66.5-14.9L32.6,153.9z"></path>
  <path id="XMLID_55_" fill="#FFFFFF" d="M53.4,149.2c0,0,4-1,18,1.5c13.3,2.4,74.4,18.8,100.9,13.6c2.7-0.5-3.9-2-3.9-2
		s-0.8,1.2-19,0c-18.2-1.2-45.1-7.1-58.4-10.6c-13.3-3.5-32-4.7-32-4.7L53.4,149.2z"></path>
  <path id="XMLID_54_" fill-rule="evenodd" clip-rule="evenodd" fill="#126B9B" d="M1.5,161.5c0,0,23-8.2,50.6,0.8
		c27.7,9,55.4,14.8,77.2,14.4c0,0-34.3,11.3-73.3-0.4C17,164.7,1.5,161.5,1.5,161.5z"></path>
</svg>