<?xml version="1.0" standalone="no"?><!DOCTYPE svg PUBLIC "-//W3C//DTD SVG 1.1//EN" "http://www.w3.org/Graphics/SVG/1.1/DTD/svg11.dtd"><svg class="icon" width="200px" height="200.00px" viewBox="0 0 1024 1024" version="1.1" xmlns="http://www.w3.org/2000/svg"><path d="M512 0c282.77 0 512 229.23 512 512S794.77 1024 512 1024 0 794.77 0 512 229.23 0 512 0z" fill="#FFD34E" /><path d="M507.886 289.614c55.704 0 100.86 45.156 100.86 100.86s-45.156 100.86-100.86 100.86c-55.684 0-100.86-45.156-100.86-100.86s45.176-100.86 100.86-100.86z" fill="#FFFFFF" /><path d="M33.652 694.866l45.078-1.774 35.388-50.264 17.138 9.964 55.412-38.312 19.224 16.26 30.396-11.796 55.412 21.994 42.056 40.846 54.086-14.448 18.036 28.272 30.494-8.988 72.336 32.248 79.16-39.248 24.976-2.222 34.042-16.338 11.366-18.23 34.042-15.714 22.032-5.03 32.872 12.614 25.366-20.122 24.04 17.002 57.264-15.774 24.04 3.14 62.08 49.64 14.018-10.06 39.54 27.764C1013.238 631.89 1024 573.202 1024 512c0-13.356-0.526-26.594-1.52-39.696l-21.116 4.582-66.212 39.19-59.194 18.874-40.106-50.986-47.164-30.688-33.594 8.032-13.55 23.612-31.098 8.5-6.512 27.218-36.636 32.736-18.054-22.188-26.574-15.578-10.548-21.72-104.33-59.974-123.398 57.614-47.144-40.144-34.608 26.516-37.63 60.832-105.832 4.056-62.196-15.852-34.1-18.892-36.128 9.436L0.02 510.966 0 512c0 64.438 11.932 126.07 33.652 182.866z" fill="#9F877E" /><path d="M131.256 652.79l-17.138-9.964-35.388 50.264-45.078 1.774C107.274 887.324 293.65 1024 512 1024c221.568 0 410.244-140.752 481.546-337.714l-39.54-27.764-14.018 10.06-62.08-49.64-24.04-3.14-57.264 15.774-24.04-17.002-25.366 20.122-32.872-12.614-22.032 5.03-34.042 15.714-11.366 18.23-34.042 16.338-24.976 2.222-79.16 39.248-72.336-32.248-30.494 8.988-18.036-28.272-54.086 14.448-42.056-40.846-55.412-21.994-30.396 11.796-19.224-16.26-55.412 38.314z" fill="#8B6E62" /><path d="M181.618 195.364c5.46 0 10.626 1.306 15.188 3.608a27.432 27.432 0 0 1 19.204-7.838c12.946 0 23.786 8.968 26.692 21.018a21.744 21.744 0 0 1 14.038 13.102c0.78-0.098 1.56-0.116 2.36-0.116 11.952 0 21.662 9.69 21.662 21.642 0 11.972-9.71 21.662-21.662 21.662-3.724 0-7.234-0.936-10.294-2.594a21.664 21.664 0 0 1-20.804 15.578 21.646 21.646 0 0 1-15.384-6.414 21.572 21.572 0 0 1-15.384 6.414 21.606 21.606 0 0 1-14.798-5.85 21.61 21.61 0 0 1-15.988 7.058 21.5 21.5 0 0 1-15.188-6.24c-1.794 0.41-3.666 0.604-5.576 0.604-14.252 0-25.794-11.542-25.794-25.794s11.542-25.814 25.794-25.814c0.78 0 1.56 0.04 2.32 0.116 1.834-16.962 16.184-30.142 33.614-30.142zM574.314 110.042c5.46 0 10.626 1.306 15.208 3.608a27.332 27.332 0 0 1 19.186-7.818c12.946 0 23.806 8.95 26.712 20.998a21.712 21.712 0 0 1 14.018 13.102c0.78-0.078 1.56-0.116 2.36-0.116a21.652 21.652 0 0 1 21.662 21.662c0 11.952-9.69 21.662-21.662 21.662a21.46 21.46 0 0 1-10.276-2.612c-2.632 9.008-10.958 15.598-20.804 15.598a21.516 21.516 0 0 1-15.384-6.434 21.588 21.588 0 0 1-15.402 6.434 21.7 21.7 0 0 1-14.798-5.85 21.656 21.656 0 0 1-15.968 7.038c-5.946 0-11.308-2.36-15.208-6.22a26.08 26.08 0 0 1-5.556 0.584c-14.252 0-25.814-11.542-25.814-25.794s11.562-25.814 25.814-25.814c0.78 0 1.54 0.04 2.3 0.116 1.83-16.944 16.18-30.144 33.612-30.144z" fill="#FFFFFF" /><path d="M170.874 893.778l0.722-11.952 50.83 39.58 1.93-32.152 2.066-0.936 2.204-0.974 50.576-22.5c77.15-33.848 162.238-69.586 247.032-102.128l4.836-29.986 46.56 38.956 4.836-29.968 13.746-5.128a3311.52 3311.52 0 0 1 45-15.93l0.76-0.274 5.81-1.988 9.826-18.114 37.356 17.47 9.826-18.132 1.15-0.37 2.964-0.974c3.47-1.092 6.922-2.184 10.354-3.256l1.56-0.468 10.138-18.99 37.396 21.252 10.12-18.99 3.022-0.878 2.924-0.838c1.774-0.488 3.548-0.956 5.304-1.424l55.12-19.302 1.19-0.41 1.15-0.41 1.13-0.41 7.72-22.304 38.898 48.1 5.166-14.934 6.824-23.222 39.696 27.764 6.844-23.24 16.592-0.39c8.032 0.176 15.636 0.702 22.754 1.58 4.308 0.546 8.482 1.15 12.536 1.794C945.348 865.39 747.196 1024 512 1024c-131.042 0-250.56-49.25-341.126-130.222z" fill="#6C4C40" /><path d="M244.808 880.48l-1.15 0.39-44.064-130.886 1.132-0.39z" fill="#DFDFDF" /><path d="M255.786 875.566l-1.054 0.566-66.114-121.234 1.032-0.566z" fill="#DFDFDF" /><path d="M265.748 868.802l-0.916 0.76-86.198-107.918 0.936-0.74z" fill="#DFDFDF" /><path d="M274.406 860.436l-0.8 0.898-103.608-91.306 0.78-0.898z" fill="#DFDFDF" /><path d="M281.444 850.688l-0.604 1.034-117.9-71.946 0.624-1.032z" fill="#DFDFDF" /><path d="M286.708 839.848l-0.428 1.13-128.606-50.38 0.45-1.092z" fill="#DFDFDF" /><path d="M290.004 828.286l-0.234 1.17-135.39-27.278 0.254-1.168z" fill="#DFDFDF" /><path d="M291.232 816.314l-0.02 1.19-138.06-3.354 0.02-1.19z" fill="#DFDFDF" /><path d="M290.374 804.304l0.176 1.17-136.54 20.686-0.176-1.188z" fill="#DFDFDF" /><path d="M287.45 792.626l0.37 1.13-130.866 44.084-0.39-1.132z" fill="#DFDFDF" /><path d="M282.536 781.648l0.584 1.034-121.254 66.154-0.584-1.072z" fill="#DFDFDF" /><path d="M275.77 771.684l0.76 0.918L168.612 858.8l-0.74-0.936z" fill="#DFDFDF" /><path d="M267.406 763.028l0.896 0.78-91.306 103.628-0.896-0.78z" fill="#DFDFDF" /><path d="M257.658 755.99l1.014 0.604-71.926 117.88-1.014-0.604z" fill="#DFDFDF" /><path d="M246.836 750.726l1.092 0.428-50.342 128.586-1.13-0.43z" fill="#DFDFDF" /><path d="M235.254 747.43l1.17 0.234-27.276 135.37-1.17-0.234z" fill="#DFDFDF" /><path d="M223.284 746.202l1.188 0.02-3.352 138.04h-1.19z" fill="#DFDFDF" /><path d="M211.274 747.06l1.168-0.196 20.688 136.54-1.17 0.196z" fill="#DFDFDF" /><path d="M267.192 711.282c-39.756 34.374-54.67 105.558-55.274 108.562l16.182 1.93c0.116-0.682 14.486-69.02 49.952-99.69 36.422-31.488 115.6-61.476 116.38-61.788l-5.4-14.038c-3.356 1.268-83.002 31.43-121.84 65.024z" fill="#FFBF06" /><path d="M333.54 790.07l-10.04-4.756 61.396-129.6 10.042 4.758z" fill="#FFBF06" /><path d="M347.112 612.996c17.996 22.812 107.06 128.468 107.956 129.54l8.968-7.584c-0.896-1.052-89.844-106.552-107.722-129.228-14.292-18.114 7.428-36.246 8.364-37.006l-7.408-9.106c-11.036 8.93-27.356 31.606-10.158 53.384z" fill="#FFBF06" /><path d="M291.036 763.788l3.238-3.802 29.498 24.976-3.236 3.822z" fill="#521A17" /><path d="M149.232 731.326l118.992-40.418 4.33 12.828-99.866 33.634z" fill="#FFFFFF" /><path d="M246.642 670.63l6.92-4.152 61.496 102.516-6.922 4.134zM322.974 788.608l1.5 7.916-106.748 20.316-1.52-7.916z" fill="#FFBF06" /><path d="M326.248 789.604l0.41 2.182-106.768 20.316-0.408-2.182z" fill="#FFFFFF" /><path d="M253.562 666.478l-6.922 4.152 15.54 25.892a76.534 76.534 0 0 0 8.52-1.442l-17.138-28.602z" fill="#A28A7B" /><path d="M291.816 793.054c13.258 39.326-7.896 81.966-47.242 95.226-39.346 13.238-81.986-7.896-95.244-47.242-13.238-39.346 7.916-82.006 47.262-95.244 39.346-13.26 81.986 7.894 95.224 47.26z m-9.202 3.1c-11.522-34.276-48.666-52.702-82.922-41.158-34.276 11.542-52.682 48.666-41.14 82.942 11.522 34.238 48.666 52.682 82.922 41.14s52.682-48.686 41.14-82.924z" fill="#202020" /><path d="M349.1 779.776c4.68 13.902-2.808 28.974-16.69 33.652-13.902 4.68-28.954-2.788-33.632-16.71-4.68-13.882 2.788-28.954 16.67-33.614 13.9-4.696 28.972 2.79 33.652 16.672z m-6.902 2.32c-3.392-10.1-14.33-15.52-24.43-12.128-10.08 3.412-15.52 14.35-12.128 24.43 3.392 10.12 14.35 15.54 24.45 12.146 10.08-3.41 15.52-14.348 12.108-24.448z" fill="#424242" /><path d="M233.15 670.142s2.32 26.244 24.158 7.876c21.838-18.366 24.548-13.258 33.086-17.646 8.52-4.368-6.024-8.988-16.066-6.102-10.042 2.888-37.454 9.126-41.178 15.872zM333.756 785.196a9.552 9.552 0 0 1-6.006 12.088 9.52 9.52 0 0 1-12.088-6.006 9.552 9.552 0 0 1 6.006-12.088 9.554 9.554 0 0 1 12.088 6.006z" fill="#521A17" /><path d="M218.058 803.446l1.364 3.256c0.546-0.254 54.28-22.772 91.618-37.922l-1.326-3.218c-37.356 15.13-91.11 37.67-91.656 37.884zM225.156 824.054c0.566-0.058 58.512-6.258 98.638-10.06l-0.35-3.49c-40.126 3.802-98.092 10.002-98.656 10.06l0.368 3.49z" fill="#424242" /><path d="M299.654 754.898c1.208 1.97 1.014 4.29-0.41 5.166l-11.21 6.864c-1.442 0.858-3.588-0.02-4.796-1.988-1.19-1.97-1.014-4.27 0.428-5.148l11.192-6.882c1.442-0.878 3.588 0 4.796 1.988z" fill="#521A17" /><path d="M234.494 810.134a13.512 13.512 0 0 1-8.5 17.118c-7.078 2.398-14.74-1.424-17.118-8.482a13.512 13.512 0 0 1 8.5-17.118c7.058-2.378 14.74 1.404 17.118 8.482z" fill="#424242" /><path d="M213.028 817.368c1.638 4.854 6.922 7.486 11.776 5.85a9.288 9.288 0 0 0 5.85-11.796 9.288 9.288 0 0 0-11.796-5.85c-4.874 1.638-7.468 6.92-5.83 11.796z" fill="#FFFFFF" /><path d="M320.204 790.226a4.932 4.932 0 0 0 6.258 3.1 4.924 4.924 0 0 0 3.1-6.258 4.916 4.916 0 0 0-6.258-3.1 4.928 4.928 0 0 0-3.1 6.258z" fill="#A28A7B" /><path d="M379.086 573.826c-0.838 3.236-4.134 5.186-7.35 4.328l-25.152-6.492a6.016 6.016 0 0 1-4.328-7.35 6.008 6.008 0 0 1 7.35-4.328l25.132 6.492a6.04 6.04 0 0 1 4.348 7.35z" fill="#521A17" /><path d="M246.972 505.76c0.058 2.126 0.234 23.416-5.42 27.374l18.036 1.56 13.628-14.526c3.452-1.268 11.426-3.646 16.846-11.542 0.682-0.974 1.676-2.788 1.442-4.036-0.662-3.548-3.022-5.206-2.886-6.688 0.214-2.574 3.14-3.938 0.662-8.91 0.78-1.482 2.984-1.814 2.944-4.562-0.038-3.47-2.964-1.13-6.766-7.176-0.936-1.52-3.158-5.868-0.058-5.81 0.546-0.546-0.058-0.526 0.468-1.19l2.632 1.17c0.41-0.682 0.272-0.254 0.332-1.15 0.058-1.092-0.292-2.516-0.584-3.51-0.526-1.774-1.346-3.646-2.184-5.284-2.438-4.738-5.674-3.588-10.88-3.49-4.152 0.098-6.882-3.978-9.514-1.54l-0.682-2.866c-0.8-1.774-1.052-1.424-2.32-1.676-1.112-0.214-1.19-0.468-2.75-0.254-39.872 5.286-13.062 50.734-12.946 54.106z" fill="#FFFBE5" /><path d="M287.624 544.892c1.19 16.32-6.024 25.658-7.76 32.21-7.078 26.556-14.058 40.828-0.254 55.664l-51.472 27.258c-1.17-3.412-1.618-7.408-1.072-12.108 0.272-1.814-3.392-22.91-3.276-33.164 0.272-26.4-2.418-48.568 10.704-77.444 4.328-9.514 13.434-22.676 27.452-16.026 7.274 3.45 23.066 9.396 25.678 23.61z" fill="#ADD37F" /><path d="M278.928 632.026l0.994 1.092 57.556 15.072c8.014 4.68 10.1 12.634 9.418 23.124l-2.944 85.204 21.896 6.22c9.846 7.896 4.524 14.818-2.222 14.876l-43.382-1.014-0.74-6.98 1.482-6.336 2.866-10.432-11.464-76.664c-14.564-0.896-92.008 15.012-85.32-28.272 10.06-2.438 21.388-15.384 34.276-16.066 6.082-0.332 12.496-0.136 17.584 0.176z" fill="#FFED58" /><path d="M345.708 705.92l-1.754 50.596 21.896 6.22c9.846 7.896 4.524 14.818-2.222 14.876l-43.382-1.014-0.74-6.98 4.348-16.768-6.63-44.318 28.484-2.612z" fill="#FFFFFF" /><path d="M370.722 773.694c-1.15 2.378-3.978 3.9-7.098 3.918l-43.382-1.014-0.662-6.102 51.142 3.198z"  /><path d="M271.832 616.466c0.566 5.868 2.944 11.21 8.092 16.65 0 0-30.436-28.428-42.64-15.09-4.524 4.952-9.124 5.538-13.142 4.308-0.234-2.828-0.37-5.44-0.35-7.584 0.272-26.4-2.418-48.588 10.704-77.444 1.52-3.354 3.646-7.136 6.356-10.372 18.074-0.838-14.896 25.502-0.39 58.278 8.148 18.386 22.558 24.568 31.37 31.254z" fill="#FFED58" /><path d="M277.798 542.26l12.654 30.396 57.108-24.722 11.562 0.196 7.468 8.15c6.512 6.22-1.676 11.366-8.462 12.674l-10.782-6.356-9.534 3.9-50.576 26.516c-8.832 3.626-14.486 0.156-16.514-5.42L252.2 553.98c-7.918-27.202 25.188-25.192 25.598-11.72z" fill="#FFFFFF" /><path d="M335.256 782.682c-0.974-2.418-0.332-4.972 1.424-5.694l13.784-5.596c1.774-0.722 3.996 0.662 4.992 3.08 0.994 2.438 0.35 4.972-1.424 5.694l-13.784 5.616c-1.754 0.72-3.996-0.664-4.992-3.1z" fill="#521A17" /><path d="M341.886 550.39l5.674-2.456 11.562 0.196 7.468 8.15c6.512 6.22-1.676 11.366-8.462 12.674l-10.782-6.376-4.776 1.97c-3.18-1.816-5.012-12.812-0.684-14.158z" fill="#FFED58" /><path d="M344.83 774.726l2.826 4.934-20.88 11.444-2.808-4.932z" fill="#521A17" /><path d="M342.86 779.426a2.624 2.624 0 0 0 3.334 1.658 2.634 2.634 0 0 0 1.676-3.334 2.67 2.67 0 0 0-3.354-1.676 2.644 2.644 0 0 0-1.656 3.352z" fill="#FFFFFF" /><path d="M478.426 801.788l-1.132 0.39-44.082-130.884 1.13-0.39z" fill="#DFDFDF" /><path d="M489.422 796.876l-1.052 0.564-66.136-121.214 1.054-0.584z" fill="#DFDFDF" /><path d="M499.386 790.13l-0.936 0.74-86.178-107.898 0.916-0.76z" fill="#DFDFDF" /><path d="M508.022 781.766l-0.78 0.876-103.608-91.306 0.78-0.896z" fill="#DFDFDF" /><path d="M515.08 771.996l-0.624 1.034-117.88-71.944 0.604-1.014z" fill="#DFDFDF" /><path d="M520.326 761.176l-0.43 1.112-128.584-50.362 0.428-1.112z" fill="#DFDFDF" /><path d="M523.64 749.594l-0.234 1.17-135.41-27.276 0.254-1.15z" fill="#DFDFDF" /><path d="M524.868 737.624l-0.02 1.188-138.06-3.334 0.02-1.208z" fill="#DFDFDF" /><path d="M524.01 725.612l0.176 1.19-136.54 20.668-0.194-1.19z" fill="#DFDFDF" /><path d="M521.066 713.934l0.39 1.13-130.886 44.084-0.37-1.13z" fill="#DFDFDF" /><path d="M516.152 702.976l0.586 1.034-121.254 66.134-0.566-1.052z" fill="#DFDFDF" /><path d="M509.406 692.994l0.742 0.916-107.898 86.198-0.76-0.936z" fill="#DFDFDF" /><path d="M501.024 684.356l0.896 0.78-91.306 103.61-0.896-0.78z" fill="#DFDFDF" /><path d="M491.274 677.298l1.034 0.604-71.946 117.902-1.014-0.624z" fill="#DFDFDF" /><path d="M480.454 672.034l1.092 0.43-50.342 128.604-1.132-0.448z" fill="#DFDFDF" /><path d="M468.872 668.74l1.17 0.234-27.278 135.37-1.168-0.216z" fill="#DFDFDF" /><path d="M456.92 667.51l1.17 0.02-3.354 138.06-1.19-0.018z" fill="#DFDFDF" /><path d="M444.91 668.368l1.17-0.174 20.666 136.54-1.17 0.174z" fill="#DFDFDF" /><path d="M525.454 714.362c13.258 39.346-7.916 81.986-47.262 95.224-39.346 13.258-81.986-7.896-95.226-47.242-13.258-39.346 7.896-81.986 47.242-95.244 39.346-13.238 82.006 7.918 95.246 47.262z m-9.204 3.1c-11.542-34.276-48.666-52.702-82.942-41.158-34.256 11.542-52.682 48.684-41.14 82.942s48.666 52.682 82.942 41.14c34.258-11.524 52.664-48.686 41.14-82.924z" fill="#202020" /><path d="M468.112 731.462c2.378 7.058-1.424 14.74-8.482 17.118a13.512 13.512 0 0 1-17.118-8.5c-2.378-7.078 1.404-14.74 8.482-17.118a13.51 13.51 0 0 1 17.118 8.5z" fill="#424242" /><path d="M446.644 738.676a9.3 9.3 0 0 0 11.776 5.85 9.304 9.304 0 0 0 5.868-11.796c-1.638-4.854-6.922-7.506-11.796-5.85a9.312 9.312 0 0 0-5.848 11.796z" fill="#FFFFFF" /><path d="M283.862 472.42l-16.904 3.002s-16.866 9.3-8.032 16.32c8.832 7-14.428 7.72-14.428 7.72-5.634-13.472-16.572-43.576 15.422-47.808 1.56-0.214 1.638 0.04 2.75 0.254 1.268 0.254 1.52-0.098 2.32 1.676l0.682 2.866c2.632-2.438 5.362 1.638 9.514 1.54 5.206-0.098 8.442-1.268 10.88 3.49 0.838 1.638 1.658 3.51 2.184 5.284 0.292 0.994 0.644 2.418 0.584 3.51-0.058 0.896 0.078 0.468-0.332 1.15l-2.632-1.17c-0.526 0.662 0.078 0.644-0.468 1.19-0.956-0.018-1.404 0.372-1.54 0.976z" fill="#606060" /><path d="M952.444 531.438c-2.106-1.872-1.326-1.754-4.504-2.066-1.93 2.262-2.066 4.172-4.094 7.272-2.534 3.84-2.69 2.846-0.974 7.76-1.228 1.034-2.262 1.268-2.984 1.736l-0.858 5.186c0.604 2.106 2.106-0.116 1.442 6.084-1.228 11.504 2.828 8.462-3.802 13.394-0.488 4.484-0.37 5.946 1.794 9.378 3.9 6.18 1.618 2.204 0.974 7.818-0.546 4.776 1.56 2.204 0.37 8.754-0.8 4.368 0.974 5.654 3.782 6.766-1.306 5.616-0.584 3.802 0.74 8.364 1.208 4.23-0.896 3.918 0 8.266 0.78 3.842 2.73 3.1 5.244 6.512l3.374 3.568c-4.036 8.014 5.07 17.47 5.868 19.75 2.36 6.902-2.554 17.996-3.256 21.214-0.702 3.314-0.858 0.624 0.176 2.71 4.074 1.326 10.724 0.8 15.032-0.896-1.014-2.632-2.398-3.276-3.432-7.428-0.76-3.062-1.014-6.708-0.896-10.12 8.5-7.254 3.256-8.072 6.18-12.926 1.014-1.696 1.91-1.15 3.042-3.704 1.832-4.094-0.41-6.336 0.624-10.256 1.268-4.932 1.852-5.946-0.35-10.762 2.144-1.95 2.496-0.488 4.562-2.496 1.676-1.638 1.502-3.432 2.36-5.166 3.178-6.552 3.314-4.484 0.058-10.86 4.836-1.774 2.476-2.768 2.828-7.194 0.506-6.064 2.866-0.312 2.204-21.018-0.234-6.844 1.52-4.152 2.418-9.34 0.936-5.4-1.638-6.2-1.93-9.008-0.214-2.418 1.794-5.868 1.384-9.964-0.41-3.84-0.78-2.106-1.346-4.562-1.248-5.206 1.442-8.56-8.422-9.066-2.496-10.12-7.234-3.802-8.578-3.14-3.996 1.988-2.808-1.95-7.37 0.078-2.106 0.956-1.072 1.384-3.684 2.144-5.928 1.698-3.218-0.954-7.976 3.218zM895.864 574.178c-2.086-1.872-1.306-1.754-4.484-2.066-1.95 2.242-2.066 4.172-4.094 7.252-2.554 3.86-2.71 2.866-0.974 7.78-1.228 1.034-2.262 1.248-3.002 1.736l-0.838 5.186c0.584 2.106 2.086-0.116 1.424 6.064-1.228 11.504 2.828 8.462-3.782 13.414-0.488 4.484-0.39 5.946 1.794 9.378 3.88 6.18 1.598 2.204 0.974 7.818-0.566 4.776 1.56 2.184 0.37 8.754-0.8 4.348 0.974 5.654 3.764 6.766-1.286 5.596-0.566 3.802 0.74 8.344 1.228 4.23-0.878 3.938 0 8.266 0.78 3.84 2.75 3.12 5.264 6.532l3.354 3.548c-4.036 8.032 5.088 17.47 5.868 19.77 2.36 6.902-2.554 17.996-3.236 21.214-0.722 3.314-0.878 0.624 0.176 2.71 4.056 1.306 10.704 0.78 15.032-0.896-1.034-2.632-2.398-3.276-3.432-7.448-0.76-3.042-1.014-6.688-0.896-10.1 8.482-7.272 3.256-8.092 6.162-12.926 1.034-1.696 1.91-1.15 3.062-3.704 1.832-4.094-0.41-6.336 0.604-10.256 1.286-4.932 1.872-5.946-0.332-10.782 2.144-1.93 2.496-0.468 4.562-2.476 1.658-1.658 1.502-3.432 2.34-5.186 3.198-6.532 3.334-4.464 0.078-10.84 4.836-1.774 2.456-2.768 2.808-7.214 0.506-6.064 2.886-0.292 2.204-21.018-0.214-6.844 1.52-4.152 2.418-9.34 0.936-5.382-1.638-6.18-1.91-8.988-0.234-2.418 1.774-5.868 1.364-9.964-0.39-3.84-0.78-2.106-1.346-4.562-1.228-5.226 1.462-8.56-8.404-9.086-2.496-10.1-7.234-3.782-8.598-3.12-3.996 1.97-2.788-1.95-7.37 0.078-2.086 0.936-1.072 1.384-3.666 2.126-5.932 1.714-3.222-0.938-7.998 3.236z" fill="#5C4036" /><path d="M794.126 360.33s15.618-3.354 28.68-0.858c13.102 2.516 26.73 13.376 41.51 14.214 14.76 0.838 11.678-4.738 11.678-4.738s-9.456 1.404-11.972-6.668c-2.496-8.092 7.798-14.506 23.67-25.62 15.87-11.132 18.932-22.286 15.87-29.246 0 0-2.788 4.446-15.87 11.406-13.082 6.98-22.538 19.79-32.854 28.954-10.294 9.202-10.86 9.748-20.608 7.818-9.726-1.968-30.628-5.01-40.104 4.738zM177.776 350.328s15.618-3.334 28.68-0.838c13.102 2.516 26.75 13.376 41.51 14.214 14.74 0.818 11.678-4.738 11.678-4.738s-9.456 1.384-11.972-6.688c-2.496-8.072 7.798-14.486 23.67-25.62 15.87-11.132 18.952-22.266 15.87-29.246 0 0-2.788 4.464-15.87 11.426-13.082 6.96-22.558 19.77-32.854 28.954-10.294 9.202-10.86 9.748-20.608 7.798-9.726-1.95-30.628-5.01-40.104 4.738z"  /></svg>