<?xml version="1.0" standalone="no"?><!DOCTYPE svg PUBLIC "-//W3C//DTD SVG 1.1//EN" "http://www.w3.org/Graphics/SVG/1.1/DTD/svg11.dtd"><svg class="icon" width="200px" height="200.00px" viewBox="0 0 1024 1024" version="1.1" xmlns="http://www.w3.org/2000/svg"><path d="M511.993 0C794.768448 0 1023.998 229.229552 1023.998 511.993 1023.998 794.768448 794.768448 1023.998 511.993 1023.998 229.229552 1023.998 0 794.768448 0 511.993 0 229.229552 229.229552 0 511.993 0z" fill="#8FC9F7" /><path d="M547.69293 717.390599L1013.126021 406.699206A513.506997 513.506997 0 0 1 1023.998 511.993c0 23.679954-1.643997 46.981908-4.753991 69.803864l-471.551079 135.593735L0.585999 487.797047c3.063994-66.011871 18.629964-128.761749 44.387913-185.933637l502.719018 415.527189zM511.993 0c73.479856 0 143.31772 15.50797 206.467597 43.377915l-170.765667 674.012684 417.219185-444.301132a513.984996 513.984996 0 0 0-106.807791-138.35173L547.69293 717.390599 126.037754 175.591657C182.869643 110.459784 255.9135 59.849883 338.879338 30.029941l208.813592 687.360658L511.641001 0h0.351999z" fill="#64B3F5" /><path d="M233.361544 941.574161a641.222748 641.222748 0 0 1 18.713964-13.817973c262.605487-186.661635 616.546796-240.911529 746.164542-255.081502C930.854182 876.722288 738.640557 1023.998 511.993 1023.998c-102.757799 0-198.435612-30.299941-278.631456-82.423839z" fill="#ADD37F" /><path d="M265.095482 960.604124c250.419511-171.951664 577.488872-227.527556 716.382601-244.081523C902.526237 897.478247 722.05259 1023.998 511.993 1023.998c-89.527825 0-173.677661-23.009955-246.897518-63.393876z" fill="#9BCB64" /><path d="M521.160982 59.003885c-103.967797 22.973955-199.281611 67.691868-277.515458 131.309743-118.231769 96.135812-183.339642 223.641563-183.339642 359.587298 0 55.235892 10.799979 109.367786 31.485939 160.117687H59.919883c-19.569962-50.515901-30.171941-104.237796-30.171941-160.105687 0-242.155527 198.343613-446.379128 470.129082-511.617001l21.283958 20.70796z" fill="#BF0513" /><path d="M542.85694 80.111844c-104.189797 20.873959-199.77561 64.485874-277.609458 127.76375-112.45578 91.439821-174.381659 212.711585-174.381659 342.025332 0 55.423892 11.399978 109.449786 33.257935 160.117687H91.793821c-20.68596-50.739901-31.485939-104.871795-31.485939-160.105687 0-135.933735 65.107873-263.439485 183.339642-359.565298 78.257847-63.629876 173.583661-108.321788 277.573458-131.285743l21.635958 21.049959z" fill="#FF4D00" /><path d="M564.844897 101.477802c-104.529796 18.537964-200.525608 60.975881-277.985457 123.959758-106.689792 86.745831-165.447677 201.781606-165.447677 324.463366 0 55.645891 12.127976 109.531786 35.301931 160.117687H124.123758c-21.859957-50.667901-33.257935-104.671796-33.257935-160.105687 0-129.313747 61.927879-250.561511 174.381659-341.989332 77.845848-63.299876 173.453661-106.901791 277.679458-127.751751l21.917957 21.305959z" fill="#FFAC00" /><path d="M587.138853 123.161759c-104.965795 15.929969-201.535606 57.137888-278.677455 119.851766-100.913803 82.04984-156.479694 190.853627-156.479695 306.887401 0 55.915891 12.913975 109.625786 37.577927 160.117687H156.713694c-23.173955-50.585901-35.301931-104.447796-35.301931-160.105687 0-122.66776 58.757885-237.683536 165.447677-324.427366 77.481849-62.983877 173.489661-105.433794 278.043457-123.935758l22.235956 21.611957z" fill="#FFDA00" /><path d="M609.842809 145.243716c-105.527794 12.983975-202.885604 52.827897-279.769454 115.343775-95.137814 77.353849-147.533712 179.911649-147.533712 289.313435 0 55.997891 13.757973 110.201785 39.937922 160.117687H189.56163c-24.665952-50.479901-37.577927-104.189797-37.577927-160.105687 0-116.035773 55.563891-224.803561 156.479695-306.853401 77.153849-62.737877 173.747661-103.919797 278.735455-119.839766l22.643956 22.023957z" fill="#ADE900" /><path d="M633.064764 167.819672c-106.267792 9.613981-204.6696 47.955906-281.389451 110.329785-89.363825 72.669858-138.575729 168.98167-138.575729 271.751469 0 56.38589 14.839971 110.341784 42.967916 160.117687h-33.599935c-26.167949-49.917903-39.925922-104.095797-39.925922-160.105687 0-109.401786 52.393898-211.925586 147.533712-289.279435 76.90785-62.537878 174.27566-102.3478 279.851454-115.319775l23.137955 22.505956z" fill="#64B3F5" /><path d="M656.954717 191.051627c-107.195791 5.669989-207.017596 42.345917-283.655446 104.671795-83.609837 67.973867-129.641747 158.039691-129.641747 254.177504 0 56.619889 15.989969 110.939783 46.20791 160.117687h-33.797934c-28.127945-49.763903-42.967916-103.719797-42.967916-160.105687 0-102.757799 49.213904-199.047611 138.575729-271.727469 76.73185-62.373878 175.179658-100.691803 281.47145-110.293785l23.807954 23.159955z" fill="#2B686C" /><path d="M28.915944 681.936668c144.151718-1.643997 506.077012 17.409966 731.608571 232.305546 10.635979 10.11998 21.377958 18.735963 32.213937 25.94395C712.108609 993.15806 615.666798 1023.998 511.993 1023.998c-223.195564 0-412.991193-142.837721-483.077056-342.061332z" fill="#9BCB64" /><path d="M55.517892 744.088547c155.409696 1.185998 480.507062 28.691944 693.594645 221.775567C678.216675 1002.972041 597.564833 1023.998 511.993 1023.998c-199.211611 0-371.843274-113.781778-456.475108-279.909453z" fill="#7CB142" /><path d="M472.031078 1022.448003c-8.851983-15.097971-16.999967-23.373954-16.999967-23.373954h96.699811c10.881979 0 19.781961 7.971984 26.765948 20.625959A517.746989 517.746989 0 0 1 511.993 1023.998a517.15899 517.15899 0 0 1-39.961922-1.549997z" fill="#747474" /><path d="M876.794288 707.752618c-0.14 0.585999-3.005994 24.241953-3.005995 24.241952l6.103988 0.575999-0.081999-23.877953-3.015994-0.939998z" fill="#BD360C" /><path d="M866.310308 665.266701s10.07198-2.253996 8.909983 0.633998c-1.149998 2.911994-14.111972 10.47198-14.111973 10.47198s10.28398-1.643997 8.733983 2.289995c-1.537997 3.943992-14.357972 10.577979-14.357972 10.57798s16.575968-2.851994 12.043977 2.405995c-4.531991 5.25999-20.943959 14.111972-20.943959 14.111973s20.861959-4.94199 20.19196 0.927998c-0.657999 5.845989-9.179982 7.535985-10.953979 11.233978 0 0 20.59196-4.085992 22.845956-0.961998 2.335995 0 23.103955 4.073992 23.149955 3.039994-1.513997-3.803993-10.32998-6.597987-10.61198-12.491976-0.257999-5.893988 20.22796 0.445999 20.227961 0.445999s-15.777969-9.943981-19.945961-15.495969c-4.155992-5.551989 12.173976-1.583997 12.173976-1.583997s-12.337976-7.465985-13.605973-11.515978c-1.279998-4.049992 8.885983-1.701997 8.885982-1.701997s-12.431976-8.417984-13.383974-11.387977 8.945983-0.058 8.945983-0.058c-8.335984-7.841985-11.411978-16.047969-13.429974-20.35596-2.319995 4.163992-5.923988 12.135976-14.763971 19.413962z" fill="#64DB16" /><path d="M866.310308 665.266701s10.07198-2.253996 8.909983 0.633998c-1.149998 2.911994-14.111972 10.47198-14.111973 10.47198s10.28398-1.643997 8.733983 2.289995c-1.537997 3.943992-14.357972 10.577979-14.357972 10.57798s16.575968-2.851994 12.043977 2.405995c-4.531991 5.25999-20.943959 14.111972-20.943959 14.111973s20.861959-4.94199 20.19196 0.927998c-0.657999 5.845989-9.179982 7.535985-10.953979 11.233978-4.213992 1.607997 17.021967-2.863994 22.845956-0.961998l2.593995-70.707862-0.188-0.399999c-2.319995 4.165992-5.923988 12.137976-14.763971 19.415962z" fill="#ADE900" /><path d="M465.481091 31.285939a84.729835 84.729835 0 0 1 38.283925 9.073982c12.467976-12.209976 29.537942-19.733961 48.355906-19.733961 32.601936 0 59.931883 22.563956 67.233868 52.921896 16.293968 4.89599 29.371943 17.197966 35.335931 32.975936 1.947996-0.2 3.943992-0.305999 5.951989-0.305999 30.123941 0 54.541893 24.417952 54.541893 54.541893 0 30.135941-24.417952 54.553893-54.541893 54.553893-9.391982 0-18.219964-2.359995-25.92195-6.539987-6.621987 22.669956-27.553946 39.221923-52.371897 39.221924-15.15597 0-28.867944-6.185988-38.763925-16.165969a54.365894 54.365894 0 0 1-38.751924 16.165969 54.383894 54.383894 0 0 1-37.261927-14.709972c-9.977981 10.905979-24.313953 17.749965-40.255922 17.749966a54.381894 54.381894 0 0 1-38.295925-15.69597c-4.495991 0.997998-9.179982 1.513997-13.981972 1.513997-35.89993 0-64.979873-29.091943-64.979874-64.979873s29.079943-64.991873 64.979874-64.991873c1.959996 0 3.897992 0.094 5.811988 0.27 4.601991-42.665917 40.73592-75.865852 84.631835-75.865852zM808.480421 281.953449c8.241984 0 16.035969 1.959996 22.927955 5.43599a41.331919 41.331919 0 0 1 28.973944-11.809977c19.523962 0 35.89993 13.511974 40.279921 31.697938a32.745936 32.745936 0 0 1 21.155959 19.757961c1.173998-0.13 2.359995-0.188 3.567993-0.187999 18.043965 0 32.671936 14.627971 32.671936 32.671936 0 18.043965-14.627971 32.671936-32.671936 32.671936-5.623989 0-10.917979-1.407997-15.53197-3.897992-3.967992 13.571973-16.505968 23.479954-31.367939 23.479954a32.579936 32.579936 0 0 1-23.221954-9.685981 32.529936 32.529936 0 0 1-23.221955 9.685981 32.619936 32.619936 0 0 1-22.317956-8.803983c-5.975988 6.527987-14.557972 10.635979-24.113953 10.635979a32.609936 32.609936 0 0 1-22.939956-9.403981 38.539925 38.539925 0 0 1-8.369983 0.903998c-21.507958 0-38.929924-17.421966-38.929924-38.929924 0-21.495958 17.421966-38.929924 38.929924-38.929924 1.173998 0 2.335995 0.058 3.485993 0.164 2.759995-25.55795 24.395952-45.455911 50.693901-45.455912z" fill="#FFFFFF" /><path d="M811.544415 751.400532h-107.007791v96.771811h107.007791z" fill="#FFEF76" /><path d="M70.355863 599.840828c0 8.065984 30.62994 14.603971 68.419866 14.603972 37.765926 0 68.407866-6.539987 68.407866-14.603972H70.355863z" fill="#FFC928" /><path d="M222.033566 751.400532h107.007791v96.771811h-107.007791zM613.282802 611.182806H426.481167v113.427779H613.282802z" fill="#FFEF76" /><path d="M426.329167 711.356611h10.31798v-11.985977h19.123963v11.985977h13.159974v-11.985977h19.135963v11.985977h13.159974v-11.985977h19.135963v11.985977h13.149974v-11.985977h19.123963v11.985977h13.159974v-11.985977h19.135963v11.985977h10.317979v-11.985977h19.135963v11.985977h7.583985v-11.985977h4.413992v148.801709H407.193205v-148.801709h19.135962z" fill="#F7A724" /><path d="M436.647147 711.356611v-5.49399h19.123963v11.985977h13.159974v-11.985977h19.135963v11.985977h13.159974v-11.985977h19.135963v11.985977h13.149974v-11.985977h19.123963v11.985977h13.159974v-11.985977h19.135963v11.985977h10.317979v-11.985977h19.135963v11.985977h7.583985v-11.985977h4.413992v142.309722H407.193205v-142.309722h19.135962v11.985977h10.31798z" fill="#FFFF8B" /><path d="M885.234271 589.240849c-37.789926 0-68.407866 6.527987-68.407866 14.591972 0 8.053984 30.61794 14.591972 68.407866 14.591971 37.777926 0 68.419866-6.539987 68.419866-14.591971 0-8.065984-30.64194-14.591972-68.419866-14.591972z" fill="#FFC928" /><path d="M816.826405 603.832821c0 8.053984 30.61794 14.591972 68.407866 14.591971 37.777926 0 68.419866-6.539987 68.419866-14.591971h-136.827732z" fill="#FFC928" /><path d="M906.718229 619.046791c-7.923985-20.873959-37.225927-19.699962-43.389915 0v236.215539h28.539944a515.594993 515.594993 0 0 0 14.849971-17.151967V619.046791zM160.247687 615.056799c-7.911985-20.861959-37.203927-19.687962-43.389915 0v222.549565a520.642983 520.642983 0 0 0 11.727977 13.675973h31.661938V615.056799z" fill="#FBD734" /><path d="M125.697754 848.020344v-14.299972h23.689954v14.451971h16.047969v-14.451971h23.689954v14.451971h16.023968v-14.451971h23.725954v14.451971h16.023969v-14.451971h23.701953v14.451971h16.035969v-14.451971h23.689954v14.451971h16.035968v-14.451971h23.689954v14.451971h16.023969v-14.451971H387.799243v14.451971h16.035968v-14.451971h23.689954v14.451971h16.035969v-14.451971h23.701953v14.451971h16.023969v-14.451971h23.713954v14.451971h16.023968v-14.451971h23.701954v14.451971h16.023969v-14.451971h23.701954v14.451971h16.023968v-14.451971h23.713954v14.451971h16.035969v-14.451971h23.689953v14.451971h16.035969v-14.451971h23.701954v14.451971h16.035968v-14.451971h23.689954v14.451971h16.035969v-14.451971h23.689954v14.451971h16.035968v-14.451971h23.713954v14.451971h16.023969v-14.451971h23.701953v14.451971h16.035969v-14.451971h23.689954v7.219986c-66.39987 79.113845-156.291695 137.835731-258.943494 165.471676H378.607261c-99.565806-26.801948-187.131635-82.847838-252.909507-158.39169z" fill="#F9BF2C" /><path d="M125.697754 848.020344v-7.219986h23.689954v14.461972h16.047969v-14.461972h23.689954v14.461972h16.023968v-14.461972h23.725954v14.461972h16.023969v-14.461972h23.701953v14.461972h16.035969v-14.461972h23.689954v14.461972h16.035968v-14.461972h23.689954v14.461972h16.023969v-14.461972H387.799243v14.461972h16.035968v-14.461972h23.689954v14.461972h16.035969v-14.461972h23.701953v14.461972h16.023969v-14.461972h23.713954v14.461972h16.023968v-14.461972h23.701954v14.461972h16.023969v-14.461972h23.701954v14.461972h16.023968v-14.461972h23.713954v14.461972h16.035969v-14.461972h23.689953v14.461972h16.035969v-14.461972h23.701954v14.461972h16.035968v-14.461972h23.689954v14.461972h16.035969v-14.461972h23.689954v14.461972h16.035968v-14.461972h23.713954v14.461972h16.023969v-14.461972h23.701953v14.461972h16.035969v-14.461972h23.689954v0.14c-66.39987 79.113845-156.291695 137.835731-258.943494 165.471676H378.607261c-99.565806-26.801948-187.131635-82.847838-252.909507-158.39169z" fill="#FFED58" /><path d="M461.971098 937.886168c9.637981-62.395878 101.747801-59.437884 106.091793 0v68.523866h-106.091793v-68.523866z" fill="#FF8D00" /><path d="M461.971098 944.438155c9.637981-56.43189 101.747801-53.743895 106.091793 0v61.973879h-106.091793V944.438155z" fill="#FFB100" /><path d="M477.115068 916.872209c4.461991-3.921992 9.603981-7.019986 15.155971-9.249982v98.789807h-15.155971v-89.539825zM507.439009 903.678235a67.391868 67.391868 0 0 1 15.15597-0.234v102.969799h-15.15597V903.678235zM537.73895 906.824229c5.575989 2.019996 10.729979 4.847991 15.16797 8.499983v91.087822h-15.16797v-99.587805zM329.263357 645.660739h77.927848v360.749295h-28.585944a511.735001 511.735001 0 0 1-49.341904-16.023968V645.660739z" fill="#FFD34E" /><path d="M275.473462 547.96293c9.801981-13.559974 46.06591-12.783975 53.697895 0v153.2497h-53.697895v-153.2497z" fill="#FFEF76" /><path d="M315.093385 645.660739h106.865791c-23.091955-20.873959-40.77192-44.457913-52.851897-70.849862-12.101976 27.823946-30.87394 50.905901-54.013894 70.849862z" fill="#F9BF2C" /><path d="M392.319234 645.660739h17.597965c-17.679965-8.405984-41.933918-66.65787-40.55992-65.941871 1.089998 35.70193 13.217974 58.839885 22.961955 65.941871z" fill="#FFEF76" /><path d="M368.52128 638.288753c29.501942 0 53.439896 3.309994 53.439896 7.371986 0 4.073992-23.937953 7.383986-53.439896 7.383986-29.513942 0-53.427896-3.309994-53.427895-7.383986 0-4.059992 23.913953-7.371986 53.427895-7.371986z" fill="#FBD734" /><path d="M336.425343 694.158644h22.879955v18.043965h-22.879955zM376.341265 694.158644h22.879955v18.043965h-22.879955zM336.425343 725.080584h22.879955v18.043965h-22.879955zM376.341265 725.080584h22.879955v18.043965h-22.879955z" fill="#FF9F00" /><path d="M183.069642 751.400532h145.971715v-50.187902h-106.995791c-6.257988 18.971963-20.907959 35.149931-38.975924 50.187902z" fill="#F9BF2C" /><path d="M201.899606 751.400532h14.251972c4.565991-11.563977 7.513985-28.551944 5.893988-50.175902l-0.012 0.012c-0.587999 3.875992-9.379982 31.733938-20.13396 50.163902z" fill="#FFEF76" /><path d="M222.045566 758.774518l-38.975924-7.373986h146.193715v7.373986z" fill="#FBD734" /><path d="M215.693579 435.06315h173.80766c-37.555927-42.603917-66.31787-90.713823-85.933832-144.551717-19.723961 56.773889-50.247902 103.837797-87.873828 144.551717z" fill="#F9BF2C" /><path d="M341.297333 435.06315h28.633944c-28.761944-17.139967-68.207867-136.015734-65.989871-134.549737 1.783997 72.845858 21.507958 120.027766 37.355927 134.549737z" fill="#FFEF76" /><path d="M302.603409 420.01318c48.003906 0 86.89783 6.737987 86.89783 15.04997s-38.893924 15.049971-86.89783 15.049971-86.90983-6.737987-86.90983-15.049971 38.905924-15.049971 86.90983-15.04997z" fill="#FBD734" /><path d="M231.695547 793.55845c2.581995-16.669967 27.165947-15.871969 28.339945 0v18.301964h-28.339945v-18.301964z" fill="#FF9F00" /><path d="M231.695547 795.308447c2.581995-15.061971 27.165947-14.357972 28.339945 0v16.553967h-28.339945v-16.553967z" fill="#FFC928" /><path d="M364.613288 447.729126v90.359823h-124.569757v-90.359823c0-7.161986 27.881946-12.947975 62.279879-12.947975 34.407933 0 62.289878 5.787989 62.289878 12.947975z" fill="#FFEF76" /><path d="M280.497452 793.55845c2.571995-16.669967 27.165947-15.871969 28.327945 0v18.301964h-28.327945v-18.301964z" fill="#FF9F00" /><path d="M280.497452 795.308447c2.571995-15.061971 27.165947-14.357972 28.327945 0v16.553967h-28.327945v-16.553967z" fill="#FFC928" /><path d="M302.32141 525.128974c34.409933 0 62.291878 5.787989 62.291878 12.959975 0 7.161986-27.881946 12.947975-62.291878 12.947975-34.397933 0-62.279878-5.787989-62.279879-12.947975 0-7.171986 27.881946-12.959975 62.279879-12.959975z" fill="#FBD734" /><path d="M248.905514 487.151049c1.877996-15.24997 19.815961-14.509972 20.66196 0v16.739967h-20.66196v-16.739967z" fill="#FF9F00" /><path d="M248.905514 488.761045c1.877996-13.793973 19.815961-13.125974 20.66196 0v15.131971h-20.66196v-15.131971z" fill="#FFC928" /><path d="M548.808928 320.987373h-57.183888v142.649721h57.183888z" fill="#FFD34E" /><path d="M292.00143 487.151049c1.865996-15.24997 19.803961-14.509972 20.649959 0v16.739967h-20.649959v-16.739967z" fill="#FF9F00" /><path d="M292.00143 488.761045c1.865996-13.793973 19.803961-13.125974 20.649959 0v15.131971h-20.649959v-15.131971z" fill="#FFC928" /><path d="M335.087346 487.151049c1.889996-15.24997 19.815961-14.509972 20.661959 0v16.739967h-20.661959v-16.739967z" fill="#FF9F00" /><path d="M335.087346 488.761045c1.889996-13.793973 19.815961-13.125974 20.661959 0v15.131971h-20.661959v-15.131971z" fill="#FFC928" /><path d="M566.746893 532.172961h-96.829811V460.139101c0-0.246 0.046-0.481999 0.13-0.739998h-0.433999v-19.181963h11.997976v13.195974a87.06583 87.06583 0 0 1 4.847991-1.043998v-17.819965h11.985976v16.177969c1.595997-0.14 3.215994-0.281999 4.859991-0.4v-18.607963h11.997977v18.113964c0.997998-0.012 2.007996-0.012 3.017994-0.012h1.843996v-18.101964h11.985977v18.525964a186.899635 186.899635 0 0 1 4.85999 0.375999v-16.071969h11.997977v17.597966c1.713997 0.305999 3.333993 0.633999 4.84799 0.985998v-12.913975h11.997977v17.961965l0.891998 73.991856z" fill="#F9BF2C" /><path d="M566.688893 532.172961H469.919082v-67.327869c0-0.246 0.046-0.481999 0.13-0.715999h-0.13v-3.991992c0-0.246 0.046-0.481999 0.13-0.739998h-0.433999V444.949131h11.997976V458.145105a87.06583 87.06583 0 0 1 4.847991-1.043998v-17.821965h11.985976v16.177968c1.595997-0.152 3.215994-0.281999 4.859991-0.409999v-18.595963h11.997977v18.115964c0.997998-0.012 2.007996-0.024 3.017994-0.024 0.621999 0 1.231998 0 1.843996 0.012v-18.103964h11.985977v18.525963a151.819703 151.819703 0 0 1 4.85999 0.364v-16.059969h11.997977v17.597966c1.713997 0.293999 3.333993 0.633999 4.84799 0.985998V444.951131h11.997977V462.889096l0.831998 69.283865z" fill="#FFEF76" /><path d="M704.312624 645.660739h-77.927847v360.749295h18.993962a509.391005 509.391005 0 0 0 58.933885-19.803961V645.660739z" fill="#FFD34E" /><path d="M758.104519 547.96293c-9.813981-13.559974-46.05591-12.783975-53.709895 0v153.2497h53.709895v-153.2497z" fill="#FFEF76" /><path d="M718.482597 645.660739h-106.865792c23.103955-20.873959 40.77192-44.457913 52.839897-70.849862 12.127976 27.823946 30.88794 50.905901 54.025895 70.849862z" fill="#F9BF2C" /><path d="M641.258748 645.660739h-17.609966c17.691965-8.405984 41.933918-66.65787 40.571921-65.941871-1.089998 35.70193-13.217974 58.839885-22.961955 65.941871z" fill="#FFEF76" /><path d="M665.044701 638.288753c-29.501942 0-53.427896 3.309994-53.427896 7.371986 0 4.073992 23.925953 7.383986 53.427896 7.383986 29.525942 0 53.439896-3.309994 53.439896-7.383986-0.002-4.059992-23.915953-7.371986-53.439896-7.371986z" fill="#FBD734" /><path d="M697.152638 694.158644H674.258683v18.043965h22.893955zM657.236716 694.158644h-22.879955v18.043965h22.879955zM697.152638 725.080584H674.258683v18.043965h22.893955zM657.236716 725.080584h-22.879955v18.043965h22.879955z" fill="#FF9F00" /><path d="M850.508339 751.400532h-145.971715v-50.187902h107.007791c6.245988 18.971963 20.895959 35.149931 38.963924 50.187902z" fill="#F9BF2C" /><path d="M831.690376 751.400532h-14.275973c-4.565991-11.563977-7.501985-28.551944-5.869988-50.175902v0.012c0.573999 3.875992 9.391982 31.733938 20.145961 50.163902z" fill="#FFEF76" /><path d="M811.544415 758.774518l38.963924-7.373986h-146.195715v7.373986z" fill="#FBD734" /><path d="M817.872403 435.06315h-173.795661c37.555927-42.603917 66.31787-90.713823 85.933832-144.551717 19.711962 56.773889 50.235902 103.837797 87.861829 144.551717z" fill="#F9BF2C" /><path d="M692.292648 435.06315h-28.645944c28.773944-17.139967 68.207867-136.015734 65.977871-134.549737-1.773997 72.845858-21.507958 120.027766-37.331927 134.549737z" fill="#FFEF76" /><path d="M730.962572 420.01318c-47.979906 0-86.88583 6.737987-86.88583 15.04997s38.905924 15.049971 86.88583 15.049971c48.015906 0 86.90983-6.737987 86.909831-15.049971s-38.893924-15.049971-86.909831-15.04997z" fill="#FBD734" /><path d="M801.882434 793.55845c-2.571995-16.669967-27.177947-15.871969-28.339945 0v18.301964h28.339945v-18.301964z" fill="#FF9F00" /><path d="M801.882434 795.308447c-2.571995-15.061971-27.177947-14.357972-28.339945 0v16.553967h28.339945v-16.553967z" fill="#FFC928" /><path d="M668.964693 447.729126v90.359823h124.569757v-90.359823c0-7.161986-27.881946-12.947975-62.291878-12.947975-34.395933 0-62.277878 5.787989-62.277879 12.947975z" fill="#FFEF76" /><path d="M753.080529 793.55845c-2.569995-16.669967-27.177947-15.871969-28.339945 0v18.301964h28.339945v-18.301964z" fill="#FF9F00" /><path d="M753.080529 795.308447c-2.569995-15.061971-27.177947-14.357972-28.339945 0v16.553967h28.339945v-16.553967z" fill="#FFC928" /><path d="M784.672467 487.151049c-1.877996-15.24997-19.815961-14.509972-20.661959 0v16.739967h20.661959v-16.739967z" fill="#FF9F00" /><path d="M784.672467 488.761045c-1.877996-13.793973-19.815961-13.125974-20.661959 0v15.131971h20.661959v-15.131971z" fill="#FFC928" /><path d="M731.244572 525.128974c-34.397933 0-62.279878 5.787989-62.279879 12.959975 0 7.161986 27.881946 12.947975 62.279879 12.947975 34.409933 0 62.291878-5.787989 62.291878-12.947975-0.002-7.171986-27.883946-12.959975-62.291878-12.959975z" fill="#FBD734" /><path d="M741.586552 487.151049c-1.877996-15.24997-19.815961-14.509972-20.66196 0v16.739967h20.66196v-16.739967z" fill="#FF9F00" /><path d="M741.586552 488.761045c-1.877996-13.793973-19.815961-13.125974-20.66196 0v15.131971h20.66196v-15.131971z" fill="#FFC928" /><path d="M698.490636 487.151049c-1.877996-15.24997-19.815961-14.509972-20.66196 0v16.739967h20.66196v-16.739967z" fill="#FF9F00" /><path d="M698.490636 488.761045c-1.877996-13.793973-19.815961-13.125974-20.66196 0v15.131971h20.66196v-15.131971zM816.604405 603.832821h136.825733v-101.795802c0-0.351999-0.058-0.703999-0.176-1.055997h0.597999v-27.107948h-16.939967v18.641964a119.041767 119.041767 0 0 0-6.855987-1.479997v-25.169951h-16.951966v22.845955c-2.229996-0.212-4.519991-0.399999-6.867987-0.563998V461.839098h-16.951967v25.62795c-1.407997-0.036-2.841994-0.036-4.261992-0.036h-2.605994V461.839098h-16.939967v26.203949c-2.335995 0.14-4.625991 0.315999-6.855987 0.515999v-22.691956h-16.963967v24.863952a142.105722 142.105722 0 0 0-6.855986 1.385997v-18.243965h-16.951967v25.369951l-1.243998 104.589796z" fill="#FFC928" /><path d="M816.826405 603.832821h136.603733v-84.103836c0-0.351999-0.058-0.691999-0.176-1.043998h0.176v-16.645968c0-0.351999-0.058-0.703999-0.176-1.055997h0.597999v-9.401982h-16.939967v18.665963a119.041767 119.041767 0 0 0-6.855987-1.479997V483.585055h-16.951966v22.845956c-2.229996-0.2-4.519991-0.387999-6.867987-0.551999V479.581063h-16.951967v25.60395c-1.407997-0.024-2.841994-0.036-4.261992-0.036-0.867998 0-1.737997 0.012-2.605994 0.012V479.579063h-16.939967v26.179949c-2.335995 0.152-4.625991 0.315999-6.855987 0.527999V483.581056h-16.963967v24.877951c-2.429995 0.433999-4.707991 0.879998-6.855986 1.373997v-18.255964h-16.951967V516.97099l-1.021998 86.861831z" fill="#FFEF76" /><path d="M647.880735 606.732815H391.883235c16.035969-24.571952 29.043943-50.9859 34.597932-81.97784H613.282802c5.553989 30.991939 18.561964 57.405888 34.597933 81.97784z" fill="#F9BF2C" /><path d="M631.174767 606.732815h-12.667975c-4.049992-18.911963-6.667987-46.653909-5.22399-81.96584 0.527999 6.337988 8.335984 51.853899 17.891965 81.96584z" fill="#FFEF76" /><path d="M613.282802 618.776791l34.597933-12.043976H391.883235l34.597932 12.043976h95.197814z" fill="#FBD734" /><path d="M408.589202 606.732815h12.677975c4.037992-18.911963 6.643987-46.653909 5.21199-81.96584-0.525999 6.337988-8.333984 51.853899-17.889965 81.96584z" fill="#FFEF76" /><path d="M577.100873 329.169357h-114.215777c24.665952-17.175966 43.577915-36.591929 56.49189-58.287886 12.937975 22.893955 32.999936 41.865918 57.723887 58.287886z" fill="#F9BF2C" /><path d="M494.571034 329.169357h-18.829963c18.911963-6.913986 44.833912-54.847893 43.377915-54.261894-1.173998 29.373943-14.145972 48.415905-24.547952 54.261894z" fill="#FFEF76" /><path d="M519.998984 323.101369c-31.543938 0-57.113888 2.711995-57.113888 6.069988 0 3.345993 25.56995 6.069988 57.113888 6.069988s57.101888-2.723995 57.101889-6.069988c0-3.357993-25.55595-6.069988-57.101889-6.069988zM529.836965 351.909313c-1.889996-15.23797-19.827961-14.509972-20.661959 0v16.751967h20.661959v-16.751967z" fill="#FF9F00" /><path d="M529.836965 353.51931c-1.889996-13.781973-19.827961-13.125974-20.661959 0v15.14397h20.661959v-15.14397z" fill="#FFFFFF" /><path d="M529.836965 401.957215c-1.889996-15.24997-19.827961-14.521972-20.661959 0v16.739967h20.661959v-16.739967z" fill="#FF9F00" /><path d="M529.836965 403.553212c-1.889996-13.769973-19.827961-13.125974-20.661959 0v15.14397h20.661959v-15.14397z" fill="#FFFFFF" /><path d="M304.681405 221.657567l3.837992 85.241834 0.058 1.209997c0.036 0.657999-0.539999 1.197998-1.173997 1.197998h-5.27199a1.189998 1.189998 0 0 1-1.173998-1.197998v-1.209997l3.723993-85.241834z m0.046-7.783985a3.759993 3.759993 0 0 1 3.743993 3.767993 3.739993 3.739993 0 1 1-7.477986 0 3.759993 3.759993 0 0 1 3.733993-3.767993z" fill="#8B6E62" /><path d="M308.919397 231.049549l53.239896 3.615993v11.233978l66.657869 4.073992-73.561856 17.997965v-9.085983l-46.335909 9.085983z" fill="#ED5250" /><path d="M726.87658 220.671569l3.827993 85.253833 0.058 1.185998a1.179998 1.179998 0 0 1-1.185998 1.209998h-5.25999a1.195998 1.195998 0 0 1-1.185997-1.209998v-1.185998l3.745992-85.253833z m0.048-7.783985a3.739993 3.739993 0 0 1 3.721993 3.767993c0 2.077996-1.667997 3.767993-3.721993 3.767992a3.749993 3.749993 0 0 1-3.733992-3.767992c0-2.087996 1.667997-3.767993 3.733992-3.767993z" fill="#8B6E62" /><path d="M420.963178 764.456507c2.041996-13.207974 21.517958-12.573975 22.433956 0v14.485972h-22.433956v-14.485972z" fill="#FF9F00" /><path d="M420.963178 765.830504c2.041996-11.939977 21.517958-11.363978 22.433956 0v13.113975h-22.433956v-13.113975z" fill="#FFC928" /><path d="M461.711098 764.456507c2.041996-13.207974 21.507958-12.573975 22.433956 0v14.485972h-22.433956v-14.485972z" fill="#FF9F00" /><path d="M461.711098 765.830504c2.041996-11.939977 21.507958-11.363978 22.433956 0v13.113975h-22.433956v-13.113975z" fill="#FFC928" /><path d="M502.449019 764.456507c2.029996-13.207974 21.517958-12.573975 22.433956 0v14.485972h-22.433956v-14.485972z" fill="#FF9F00" /><path d="M502.449019 765.830504c2.029996-11.939977 21.517958-11.363978 22.433956 0v13.113975h-22.433956v-13.113975z" fill="#FFC928" /><path d="M543.184939 764.456507c2.041996-13.207974 21.517958-12.573975 22.433956 0v14.485972h-22.433956v-14.485972z" fill="#FF9F00" /><path d="M543.184939 765.830504c2.041996-11.939977 21.517958-11.363978 22.433956 0v13.113975h-22.433956v-13.113975z" fill="#FFC928" /><path d="M583.92286 764.456507c2.041996-13.207974 21.517958-12.573975 22.433956 0v14.485972h-22.433956v-14.485972z" fill="#FF9F00" /><path d="M583.92286 765.830504c2.041996-11.939977 21.517958-11.363978 22.433956 0v13.113975h-22.433956v-13.113975z" fill="#FFC928" /><path d="M444.009133 649.934731c2.029996-13.195974 21.507958-12.573975 22.421956 0v14.485971h-22.421956v-14.485971z" fill="#FF9F00" /><path d="M444.009133 651.332728c2.029996-11.939977 21.507958-11.375978 22.421956 0v13.089974h-22.421956v-13.089974z" fill="#FFC928" /><path d="M495.945031 649.934731c2.053996-13.195974 21.517958-12.573975 22.445957 0v14.485971h-22.445957v-14.485971z" fill="#FF9F00" /><path d="M495.945031 651.332728c2.053996-11.939977 21.517958-11.375978 22.445957 0v13.089974h-22.445957v-13.089974z" fill="#FFC928" /><path d="M547.90493 649.934731c2.041996-13.195974 21.517958-12.573975 22.433956 0v14.485971h-22.433956v-14.485971z" fill="#FF9F00" /><path d="M547.90493 651.332728c2.041996-11.939977 21.517958-11.375978 22.433956 0v13.089974h-22.433956v-13.089974zM816.826405 603.832821c0-8.065984 30.61794-14.591972 68.407866-14.591972 37.777926 0 68.419866 6.527987 68.419866 14.591972h-136.827732zM138.775729 585.236857c-37.789926 0-68.419866 6.539987-68.419866 14.603971 0 8.065984 30.62994 14.603971 68.419866 14.603972 37.765926 0 68.407866-6.539987 68.407866-14.603972s-30.64194-14.603971-68.407866-14.603971z" fill="#FFC928" /><path d="M159.741688 613.752801c-8.429984-19.041963-35.465931-18.019965-42.379917-0.036 6.737987 0.469999 13.945973 0.727999 21.435958 0.727999 7.313986 0 14.347972-0.246 20.943959-0.691999z" fill="#FBD734" /><path d="M70.133863 599.840828h136.837733v-101.795801c0-0.351999-0.058-0.703999-0.176-1.055998h0.609999v-27.107947h-16.963967v18.653964a125.287755 125.287755 0 0 0-6.855987-1.489997v-25.181951h-16.951966v22.857955c-2.217996-0.2-4.519991-0.399999-6.855987-0.551999v-26.307948h-16.951967v25.61595c-1.407997-0.024-2.829994-0.036-4.273992-0.036-0.867998 0-1.737997 0.012-2.593995 0.012v-25.59195h-16.951966v26.191949c-2.335995 0.152-4.625991 0.327999-6.843987 0.515999v-22.703956h-16.963967v24.875951c-2.429995 0.433999-4.719991 0.891998-6.867987 1.385998v-18.243965h-16.939966v25.369951l-1.255998 104.587795z" fill="#FFC928" /><path d="M70.355863 599.840828h136.615733V515.738993c0-0.339999-0.07-0.691999-0.176-1.033998h0.176v-16.657968c0-0.351999-0.058-0.703999-0.176-1.055998h0.609999v-9.377981h-16.963967V506.269011a107.863789 107.863789 0 0 0-6.855987-1.479997V479.595063h-16.951966v22.869956a198.555612 198.555612 0 0 0-6.855987-0.563999V475.591071h-16.951967v25.60395a499.019025 499.019025 0 0 0-4.273992-0.024c-0.867998 0-1.737997 0-2.593995 0.012v-25.59395h-16.951966v26.191949c-2.335995 0.14-4.625991 0.315999-6.843987 0.515999V479.591063h-16.963967v24.877952c-2.429995 0.433999-4.719991 0.891998-6.867987 1.385997v-18.243964h-16.939966v25.36995l-1.033998 86.85983z" fill="#FFEF76" /><path d="M70.355863 599.840828c0-8.065984 30.62994-14.603971 68.419866-14.603971 37.765926 0 68.407866 6.539987 68.407866 14.603971H70.355863z" fill="#FFC928" /><path d="M519.600985 192.097625l3.849993 85.253833 0.036 1.197998c0.036 0.645999-0.527999 1.197998-1.173998 1.197998h-5.25999a1.199998 1.199998 0 0 1-1.185998-1.197998v-1.197998l3.733993-85.253833z m0.046-7.783985c2.065996 0 3.743993 1.677997 3.743993 3.767993 0 2.077996-1.677997 3.755993-3.743993 3.755992s-3.733993-1.677997-3.733993-3.755992a3.743993 3.743993 0 0 1 3.733993-3.767993z" fill="#8B6E62" /><path d="M523.826977 201.489606l53.251896 3.615993v11.221978l66.65787 4.085993-73.561857 17.985964v-9.075982l-46.347909 9.075982zM731.102572 230.075551l53.239896 3.603993v11.233978l66.64787 4.073992-73.549856 17.997965v-9.075983l-46.33791 9.075983z" fill="#ED5250" /><path d="M912.928217 689.838653c-0.14 0.585999-3.005994 24.241953-3.005994 24.241952l6.091988 0.575999-0.07-23.877953-3.015994-0.939998z" fill="#BD360C" /><path d="M902.444237 647.352736s10.07198-2.253996 8.909983 0.645998c-1.161998 2.911994-14.121972 10.45998-14.121972 10.45998s10.28398-1.643997 8.745983 2.299995c-1.549997 3.943992-14.357972 10.577979-14.357972 10.57798s16.563968-2.851994 12.043976 2.405995c-4.531991 5.25999-20.943959 14.111972-20.943959 14.111973s20.861959-4.94199 20.19196 0.915998c-0.669999 5.857989-9.191982 7.535985-10.963978 11.245978 0 0 20.60396-4.097992 22.857955-0.961998 2.335995 0 23.091955 4.061992 23.139955 3.039994-1.501997-3.803993-10.31998-6.609987-10.601979-12.501976-0.257999-5.881989 20.22796 0.457999 20.22796 0.457999s-15.777969-9.955981-19.945961-15.507969c-4.155992-5.541989 12.161976-1.573997 12.161976-1.573997s-12.325976-7.477985-13.593973-11.527978c-1.279998-4.037992 8.885983-1.689997 8.885983-1.689997s-12.431976-8.417984-13.395974-11.387977c-0.949998-2.981994 8.957983-0.058 8.957982-0.058-8.345984-7.841985-11.411978-16.047969-13.429973-20.36796-2.323995 4.165992-5.927988 12.147976-14.767972 19.415962z" fill="#64DB16" /><path d="M902.444237 647.352736s10.07198-2.253996 8.909983 0.645998c-1.161998 2.911994-14.121972 10.45998-14.121972 10.45998s10.28398-1.643997 8.745983 2.299995c-1.549997 3.943992-14.357972 10.577979-14.357972 10.57798s16.563968-2.851994 12.043976 2.405995c-4.531991 5.25999-20.943959 14.111972-20.943959 14.111973s20.861959-4.94199 20.19196 0.915998c-0.669999 5.857989-9.191982 7.535985-10.963978 11.245978-4.201992 1.607997 17.033967-2.875994 22.857955-0.961998l2.593995-70.719862-0.187999-0.399999c-2.323995 4.167992-5.927988 12.149976-14.767972 19.417962z" fill="#ADE900" /></svg>