<?xml version="1.0" standalone="no"?><!DOCTYPE svg PUBLIC "-//W3C//DTD SVG 1.1//EN" "http://www.w3.org/Graphics/SVG/1.1/DTD/svg11.dtd"><svg class="icon" width="200px" height="200.00px" viewBox="0 0 1024 1024" version="1.1" xmlns="http://www.w3.org/2000/svg"><path d="M511.996 0C794.772 0 1024 229.228 1024 511.996 1024 794.772 794.772 1024 511.996 1024 229.228 1024 0 794.772 0 511.996 0 229.228 229.228 0 511.996 0z" fill="#BBBBBB" /><path d="M158.422 735.504l317.12-673.642 335.776 673.642z" fill="#9F877E" /><path d="M811.318 735.504L475.542 61.862v673.642z" fill="#8B6E62" /><path d="M379.108 266.714l42.046-20.894-8.652 79.32 43.452-60.92 19.588 108.046 35.886-128.748 82.464 55.768-25.362-50.872-92.988-186.552z" fill="#EDEDED" /><path d="M589.754 735.504l299.952-519.186 126.62 206.982A516.014 516.014 0 0 1 1024 511.994c0 80.144-18.428 155.964-51.246 223.51h-383z" fill="#9F877E" /><path d="M1016.326 423.3l-126.62-206.982v519.186h83.048C1005.572 667.96 1024 592.138 1024 511.996c0-30.25-2.65-59.88-7.674-88.696z" fill="#8B6E62" /><path d="M798.49 374.194l39.77-16.108-8.196 61.13 41.104-46.95 18.538 83.286 33.932-99.238 77.996 42.994-23.982-39.22-87.946-143.77z" fill="#EDEDED" /><path d="M5.774 589.078l208.216-360.406 317.594 519.186H57.476a508.636 508.636 0 0 1-51.702-158.78z" fill="#9F877E" /><path d="M531.584 747.856L213.99 228.672v519.184z" fill="#8B6E62" /><path d="M122.772 386.554l39.772-16.106-8.196 61.13 41.112-46.96 18.53 83.294 33.932-99.236 78.004 42.994-23.992-39.222-87.944-143.776z" fill="#EDEDED" /><path d="M359.192 42.31c33.476 0 60.6 27.134 60.6 60.6s-27.126 60.6-60.6 60.6c-33.466 0-60.6-27.134-60.6-60.6s27.134-60.6 60.6-60.6z" fill="#FFFFFF" /><path d="M138.048 650.702l-16.892-9.822-34.854 49.518-53.538 2.102C105.752 886.198 292.772 1024 511.996 1024c221.088 0 409.432-140.122 481.096-336.396l-44.52-31.256-13.814 9.904-61.158-48.898-23.69-3.098-56.408 15.532-23.672-16.738-24.988 19.826-32.398-12.434-21.69 4.952-33.558 15.486-11.182 17.952-33.54 16.098-24.604 2.192-77.986 38.664-71.262-31.766-30.03 8.854-17.77-27.856-53.274 14.244-41.432-40.246-54.598-21.662-29.93 11.622-18.948-16.024-54.592 37.75z" fill="#6C4C40" /><path d="M216.702 132.906c5.39 0 10.48 1.28 14.984 3.544a26.942 26.942 0 0 1 18.912-7.71c12.746 0 23.434 8.826 26.294 20.694a21.424 21.424 0 0 1 13.824 12.91 19.566 19.566 0 0 1 2.33-0.128c11.776 0 21.342 9.556 21.342 21.342s-9.566 21.342-21.342 21.342c-3.672 0-7.126-0.932-10.142-2.568-2.594 8.872-10.78 15.348-20.492 15.348-5.92 0-11.284-2.422-15.148-6.322a21.304 21.304 0 0 1-15.166 6.322 21.274 21.274 0 0 1-14.582-5.756 21.262 21.262 0 0 1-15.742 6.944 21.206 21.206 0 0 1-14.974-6.14c-1.764 0.392-3.6 0.594-5.472 0.594-14.052 0-25.426-11.384-25.426-25.426 0-14.034 11.374-25.418 25.426-25.418 0.758 0 1.516 0.036 2.266 0.11 1.808-16.692 15.942-29.682 33.108-29.682zM645.192 131.406c5.39 0 10.48 1.28 14.974 3.544a26.98 26.98 0 0 1 18.922-7.71c12.746 0 23.444 8.826 26.304 20.694a21.408 21.408 0 0 1 13.814 12.91 21.92 21.92 0 0 1 2.33-0.128c11.776 0 21.342 9.556 21.342 21.352 0 11.776-9.566 21.334-21.342 21.334-3.672 0-7.126-0.932-10.142-2.558-2.586 8.862-10.78 15.34-20.484 15.34a21.24 21.24 0 0 1-15.158-6.322 21.272 21.272 0 0 1-15.166 6.322 21.292 21.292 0 0 1-14.582-5.756 21.246 21.246 0 0 1-15.742 6.944 21.224 21.224 0 0 1-14.974-6.14c-1.764 0.392-3.6 0.594-5.472 0.594-14.042 0-25.426-11.384-25.426-25.426 0-14.034 11.384-25.418 25.426-25.418 0.758 0 1.526 0.036 2.266 0.11 1.81-16.694 15.944-29.686 33.11-29.686z" fill="#EDEDED" /><path d="M176.448 898.714l1.352-22.384 50.058 38.984 1.918-31.676 2.038-0.914 2.148-0.96 49.83-22.164c76.014-33.356 159.838-68.558 243.362-100.618l4.76-29.528 45.882 38.372 4.76-29.528 13.55-5.052a3154.558 3154.558 0 0 1 44.31-15.686l0.758-0.264 5.728-1.964 9.684-17.852 36.792 17.212 9.684-17.862 1.132-0.366 2.924-0.968c3.408-1.068 6.816-2.138 10.206-3.188l1.534-0.476 9.968-18.702 36.846 20.94 9.976-18.702 2.978-0.868 2.888-0.84c1.744-0.466 3.48-0.932 5.216-1.388l54.296-19.012 1.17-0.412 1.142-0.412 1.114-0.402 7.61-21.964 38.3 47.38 5.098-14.71 6.734-22.886 39.104 27.354 6.734-22.896 16.344-0.384c7.922 0.164 15.404 0.686 22.412 1.562 6.55 0.822 12.81 1.782 18.812 2.878C945.904 864.938 747.546 1024 511.996 1024c-128.364 0-245.692-47.244-335.548-125.286z" fill="#5C4036" /></svg>