<svg xmlns="http://www.w3.org/2000/svg" xmlns:xlink="http://www.w3.org/1999/xlink" viewBox="0 0 558.5 422.45"><defs><style>.cls-1,.cls-2,.cls-3{fill-rule:evenodd;}.cls-1{fill:url(#未命名的渐变_2);}.cls-2{fill:url(#未命名的渐变_2-2);}.cls-3{fill:#2c5591;}</style><linearGradient id="未命名的渐变_2" x1="425.36" y1="1000.61" x2="104.92" y2="1286.84" gradientTransform="matrix(1, 0, 0, -1, 0, 1342.35)" gradientUnits="userSpaceOnUse"><stop offset="0" stop-color="#5391fe"/><stop offset="1" stop-color="#3e6dbf"/></linearGradient><linearGradient id="未命名的渐变_2-2" x1="142.95" y1="1281.49" x2="441.91" y2="1012.82" xlink:href="#未命名的渐变_2"/></defs><g id="图层_2" data-name="图层 2"><g id="Layer_1" data-name="Layer 1"><path class="cls-1" d="M23.41,422.44c-7.6,0-14.18-3-18.51-8.44S-1,400.8.73,393L84.44,27.32C87.94,12,102.67,0,118,0H535.08c7.6,0,14.18,3,18.52,8.44s5.95,13.21,4.17,21l-83.71,365.7c-3.51,15.32-18.23,27.33-33.53,27.33H23.41Z"/><path class="cls-2" d="M167.22,4.69h370c11.53,0,18.72,10.61,16.06,23.68L479,394.07c-2.66,13.08-14.15,23.68-25.68,23.68h-370c-11.53,0-18.72-10.59-16.06-23.68l74.24-365.7C144.2,15.3,155.69,4.69,167.22,4.69Z"/><path class="cls-3" d="M454.35,222.74c-1.75,3.52-5.37,7.4-11.78,11.9L254.29,369.86c-10.28,7.47-25,4.7-32.95-6.19s-6-25.77,4.27-33.24l169.79-123V205L288.72,91.47c-8.71-9.26-7.8-24.23,2-33.44s24.83-9.17,33.53.08l128,136.18C459.54,202,460.08,213.73,454.35,222.74Z"/><path class="cls-3" d="M178.24,182.42H279.68a21.12,21.12,0,1,1,0,42.24H178.24a21.12,21.12,0,1,1,0-42.24Z"/></g></g></svg>