<?xml version="1.0" standalone="no"?><!DOCTYPE svg PUBLIC "-//W3C//DTD SVG 1.1//EN" "http://www.w3.org/Graphics/SVG/1.1/DTD/svg11.dtd"><svg class="icon" width="200px" height="200.00px" viewBox="0 0 1024 1024" version="1.1" xmlns="http://www.w3.org/2000/svg"><path d="M0 527.700784l0.011584 12.653297c0.079156 32.117828 2.502086 39.16846 7.01588 58.314438l0.330137-0.034751c38.575759 226.023714 225.375025 401.441964 456.83344 422.69232l1.944136 0.169895c3.046522 0.260634 6.116211 0.511615 9.1859 0.739428l4.069751 0.250981c2.614062 0.181478 5.218471 0.318553 7.855701 0.455627 1.683502 0.079156 3.399825 0.102323 5.092981 0.193062 2.353428 0.067572 4.683689 0.169895 7.037118 0.250981 2.716385 0.046335 5.423117 0.067572 8.151086 0.079156 1.318615 0.034751 2.671981 0.055988 3.979012 0.055988l0.602354-0.011584c3.841938 0 7.685806-0.055988 11.48334-0.12549l1.841813-0.046335c3.616055-0.113907 7.208943-0.250981 10.790247-0.420876l3.069689-0.137074c3.183596-0.193062 6.400012-0.397708 9.573955-0.625522l4.513794-0.353304a354.230532 354.230532 0 0 0 6.218534-0.557949c229.435123-21.3855 414.881024-194.280427 455.265775-417.688148 4.911502-19.169146 4.957837-25.148283 7.425172-55.540135h0.023168l0.55795-0.023168h0.023167c0.067572-1.932553 0.102323-3.820701 0.148658-5.730086V540.014291h0.011584v-0.99427c3.206763-38.133647-1.762658-100.801638-14.699756-149.279558l-0.68151-2.604409C951.949185 165.017988 750.948263 0.478794 511.508657 0.478794 266.292629 0.478794 61.393781 173.089919 11.585663 403.432435 3.365074 431.138792 0.93249 466.407395 0.272218 496.8089a486.213647 486.213647 0 0 0-0.260634 15.201718v0.967242C0 518.16158 0 523.073083 0 527.700784z" fill="#64B3F5" /><path d="M1020.619481 457.233079c-2.592825-23.069003-6.697328-46.580118-12.267173-67.477171l-0.681509-2.604409a508.437037 508.437037 0 0 0-18.736687-59.086687l-0.420876-0.204646-20.897053 11.620414-26.603971 1.795478-71.137631-1.125552-34.073548 7.185775-25.26219-7.185775-53.458924 9.402129-11.743974 11.597247-68.137443-24.876065-14.097403 6.093043-37.019677-14.939154-62.861054 39.803635-20.555333-6.08339-36.415393 28.764338-47.58018-14.383135-81.290772-72.263183-15.064643 8.12985-17.622718 18.236656-29.957463-20.999376-17.622718 10.46011-44.033627-27.90135-33.266549 10.720744h-34.210622l-60.621532 43.20346-17.031948-7.185775-34.654665 8.84611-53.947372 25.615494a519.831568 519.831568 0 0 0-7.753378 31.03861C3.370866 431.136861 0.938282 466.405465 0.27801 496.80697a561.077378 561.077378 0 0 0-0.260634 13.983495l17.576383-10.664756 37.940584-22.852773 22.068941 2.921031 29.992213 25.740984 23.818084 5.809242 31.778039-8.299745 29.992213 16.611072 54.709968 13.939092 93.08108-3.558137 33.096654-53.514912 30.44784-23.306469 41.46397 35.28984 108.531848-50.661453 91.762466 52.742663 9.266986 19.111228 23.399139 13.699694 15.871644 19.508936 32.208567-28.775922 5.730086-23.955158 27.354984-7.481161 11.915799-20.759978 29.559754-7.060285 41.475554 26.990096 35.28984 44.852211 52.061154-16.611072 58.233353-34.461603 22.943512-4.990658 9.03145-13.819393z" fill="#41BA41" /><path d="M0 527.700784l0.011584 12.653297c0.079156 32.117828 2.502086 39.16846 7.01588 58.314438l0.330137-0.034751a511.499004 511.499004 0 0 0 7.492744 35.870958l35.813039-1.671919 56.005414 36.143175 70.456121-2.76272 31.117766-44.215106 15.076228 8.765024 48.752068-33.710591 16.906457 14.313632 26.729462-10.380955 48.740484 19.350625 36.99651 35.926945 47.568597-12.722799 15.86006 24.876065 26.808617-7.902036 63.62365 28.355046 69.637537-34.517592 21.966617-1.967304 29.947809-14.359966 9.983247-16.029955 29.957462-13.825185 19.362209-4.423055 28.924579 11.1088 22.317991-17.713458 21.13645 14.950737 50.366068-13.871519 21.13645 2.76272 54.619228 43.659087 12.325091-8.834526 46.284733 32.494299 6.606589-3.683627a506.913776 506.913776 0 0 0 14.997072-61.065575c4.911502-19.169146 4.957837-25.148283 7.425172-55.540135h0.023167l0.55795-0.023167h0.023168c0.067572-1.932553 0.102323-3.820701 0.148658-5.730086V540.012361h0.011583v-0.994271c1.83023-21.692469 1.000062-51.356477-2.432583-81.802386l-9.039173 13.825184-22.943512 4.990658-58.233353 34.461603-52.061154 16.611073-35.301424-44.834836-41.475553-26.990096-29.559754 7.060285-11.915799 20.759978-27.354984 7.481161-5.730086 23.955158-32.208568 28.775922-15.871644-19.508936-23.399139-13.699694-9.266986-19.111228-91.762465-52.742663-108.531849 50.661453-41.463969-35.289841-30.447841 23.30647-33.096653 53.514912-93.081081 3.558136-54.709967-13.939091-29.992214-16.611072-31.778038 8.299744-23.818085-5.809241-29.992213-25.740984-22.06894-2.921031L17.587967 500.12957l-17.576383 10.664757v2.183533C0 518.16158 0 523.073083 0 527.700784z" fill="#518F29" /><path d="M223.316982 630.765111l-15.076227-8.765024-31.117766 44.215106-70.456121 2.76272-56.005415-36.143175-35.813039 1.671918c51.254154 208.503319 230.286528 366.719726 449.340696 386.821363l1.944137 0.169895c3.046522 0.260634 6.116211 0.511615 9.1859 0.739428l4.069751 0.250981c2.614062 0.181478 5.218471 0.318553 7.855701 0.455627 1.683502 0.079156 3.399825 0.102323 5.092981 0.193062 2.353428 0.067572 4.683689 0.169895 7.037117 0.250981 2.716385 0.046335 5.423117 0.067572 8.151086 0.079155 1.318615 0.034751 2.671981 0.055988 3.979012 0.055988l0.602355-0.011583c3.841938 0 7.685806-0.055988 11.483339-0.125491l1.841814-0.046335c3.616055-0.113907 7.208943-0.250981 10.790246-0.420875l3.069689-0.137075c3.183596-0.193062 6.400012-0.397708 9.573955-0.625521l4.513795-0.353304a354.230532 354.230532 0 0 0 6.218533-0.55795c208.049623-19.39696 379.942556-163.367306 440.268703-356.624503l-6.606588 3.683627-46.284733-32.4943-12.325091 8.834527-54.619228-43.659087-21.13645-2.76272-50.366068 13.871519-21.13645-14.950737-22.317991 17.713457-28.924579-11.108799-19.362209 4.423055-29.957462 13.825184-9.983247 16.029955-29.947809 14.359967-21.966617 1.967304-69.637537 34.517591-63.62365-28.355046-26.808617 7.902036-15.860061-24.876065-47.568596 12.7228-36.99651-35.926946-48.740484-19.350625-26.729462 10.380955-16.906458-14.313632-48.744345 33.710592z" fill="#378B00" /><path d="M234.551272 178.489869a64.038733 64.038733 0 0 1 28.945816 6.855639c9.413713-9.209067 22.306407-14.904402 36.540883-14.904402 24.636668 0 45.284671 17.053184 50.810111 39.987043a41.392537 41.392537 0 0 1 26.706295 24.933984c1.467273-0.158311 2.967366-0.239397 4.490627-0.239397 22.762034 0 41.224572 18.452885 41.224572 41.224572s-18.464469 41.224572-41.224572 41.224573c-7.095036 0-13.769196-1.785825-19.590022-4.946254-5.002242 17.134271-20.829481 29.650493-39.577752 29.650493-11.448589 0-21.81796-4.672105-29.287536-12.222768a41.089429 41.089429 0 0 1-29.29912 12.222768 41.122249 41.122249 0 0 1-28.1504-11.118452 41.09136 41.09136 0 0 1-30.424673 13.404309 41.006412 41.006412 0 0 1-28.934233-11.857881 48.317678 48.317678 0 0 1-10.574016 1.14872c-27.12717 0-49.105372-21.987854-49.105372-49.115024 0-27.115587 21.976271-49.105372 49.105372-49.105372 1.478856 0 2.944199 0.067572 4.388303 0.204646 3.492495-32.254902 30.791491-57.347197 63.955717-57.347197zM693.089452 157.683555c7.118203 0 13.825184 1.683502 19.7715 4.683689a35.538891 35.538891 0 0 1 24.95522-10.187892c16.827302 0 30.936288 11.653235 34.710654 27.320232a28.27396 28.27396 0 0 1 18.236656 17.031948 27.275828 27.275828 0 0 1 3.069689-0.158311c15.541507 0 28.161984 12.597309 28.161984 28.161984 0 15.541507-12.620476 28.1504-28.161984 28.1504-4.843931 0-9.402129-1.227876-13.381141-3.376658-3.422993 11.69957-14.222893 20.248364-27.036432 20.248364a28.019118 28.019118 0 0 1-19.999313-8.346079 28.046146 28.046146 0 0 1-20.010898 8.346079 28.090551 28.090551 0 0 1-19.236718-7.595067 28.092481 28.092481 0 0 1-20.783146 9.164662 27.978575 27.978575 0 0 1-19.759917-8.106682 32.814783 32.814783 0 0 1-7.220526 0.783833c-18.532041 0-33.55035-15.018309-33.55035-33.540697 0-18.532041 15.018309-33.55035 33.55035-33.55035 1.000062 0 2.011708 0.046335 2.990533 0.137075 2.39011-22.020675 21.036058-39.166529 43.693839-39.16653z" fill="#FFFFFF" /><path d="M462.370464 39.054553c41.987168 0 76.016312 34.029144 76.016313 76.004729s-34.029144 76.004729-76.016313 76.004728c-41.964001 0-76.004729-34.029144-76.004728-76.004728s34.040728-76.004729 76.004728-76.004729z" fill="#FFFF00" /><path d="M177.113335 247.206499s13.062589-2.797471 23.98991-0.704677c10.948558 2.092794 22.364326 11.176371 34.710654 11.881048 12.336675 0.693093 9.778601-3.967428 9.7786-3.967428s-7.91362 1.171888-10.027651-5.581428c-2.081211-6.753316 6.537086-12.120445 19.806252-21.420252 13.278818-9.322974 15.836893-18.634364 13.278818-24.466773 0 0-2.341845 3.729962-13.278818 9.562371-10.948558 5.820825-18.862177 16.531917-27.468891 24.206139-8.629881 7.69739-9.09516 8.151086-17.248177 6.525503-8.141433-1.627514-25.617424-4.197172-33.540697 3.965497z"  /><path d="M442.67812 1018.893505c4.172074-22.385563 14.24606-36.882603 24.069065-51.014757 3.923024-5.639347 7.969608-11.448589 11.60883-17.713457 11.687986-20.134457 1.262627-31.401567-8.822943-42.27097-3.069689-3.341907-6.253285-6.776483-8.709036-10.392538l-1.602416-2.706732-0.295385-0.579187 0.637105-0.330136c18.087998-9.004421 38.768821-13.769196 59.814532-13.769197h0.511615c21.455003 0.090739 42.452448 5.104565 60.735439 14.529862l0.637105 0.318552-0.306969 0.602354-1.125553 1.841814c-2.467335 3.604471-5.650931 7.071869-8.732203 10.402191-10.073986 10.89257-20.476177 22.136512-8.799775 42.27097 3.627639 6.230117 7.662639 12.062527 11.585663 17.69029 9.448464 13.585787 19.134395 27.536462 23.580617 48.491433a518.030298 518.030298 0 0 1-37.859498 4.979075c-2.069627 0.204646-4.12767 0.386124-6.218534 0.557949l-4.513794 0.353304c-3.172012 0.227813-6.390359 0.432459-9.573955 0.625522l-3.069689 0.137074c-3.581304 0.169895-7.174192 0.306969-10.790246 0.420876l-1.841814 0.046335c-3.797534 0.067572-7.639471 0.12549-11.48334 0.12549l-0.602354 0.011584c-1.307031 0-2.660397-0.023167-3.979012-0.055988a672.578523 672.578523 0 0 1-8.151086-0.079156c-2.353428-0.079156-4.683689-0.181478-7.037117-0.250981-1.693156-0.090739-3.411409-0.113907-5.092981-0.193062-2.63723-0.137074-5.241639-0.272218-7.855701-0.455627l-4.069752-0.250981c-3.069689-0.227813-6.139378-0.476864-9.185899-0.739428l-1.944137-0.169895a512.908358 512.908358 0 0 1-21.516782-2.432583z" fill="#9B73A7" /><path d="M411.834502 825.58032l-117.53627-249.137122-73.400319-38.201218 4.71844 68.649059-0.807 0.067571 187.025149 218.62171z m-123.268287-261.292318l-35.996448-76.28853 6.89039-3.706794 36.006101 76.311697 16.348508-154.816581 77.641896 98.69726-8.264993-91.77405 7.674223-0.783832 8.378899 93.104248 99.948303-155.818575 108.054985 141.90072-2.318677-93.262558 7.69739-0.21623 2.183534 87.760286 56.654104-94.183466 42.30572 144.572701 27.866599-83.007094 7.253347 2.774303-26.831785 79.916169 70.058412-55.209998 11.313446 69.637537 9.788253-14.699756 6.276453 4.774428-203.44509 305.74489-8.458055-341.1274-107.861923-141.616919-99.334365 154.839749 25.97845 332.316041L192.154812 581.001397l5.683751-5.571775 19.452948 22.727283-5.069814-73.604966 76.344518 39.736063z m13.234414 9.755433l116.070928 246.034612-27.104003-301.130704-73.297996-93.171819-15.668929 148.267911z m493.32992-14.678519l-10.483278-64.55614-69.262996 54.584477-87.953348 262.008578 167.699622-252.036915z m-87.681131-10.732328l-40.417572-138.137938-53.856633 89.534528 7.629819 306.723716 86.644386-258.120306z" fill="#FFFFFF" /><path d="M813.764913 563.87871c-10.960141-42.247802-69.307401-84.997566-70.376965-71.628008-136.614677-148.837445-396.188741-165.651232-547.049478 109.522258C-23.818084 48.640092 1085.026963 121.721858 813.764913 563.87871z" fill="#FF6E40" /><path d="M563.706885 916.091742l-7.334433-2.411347 59.905271-84.314125 7.334433 2.409416zM474.172357 896.12718l-56.472625-49.537831 7.039048-3.137261 56.482278 49.547484z" fill="#FFFFFF" /><path d="M504.243726 801.009293c-0.113907-1.432522-2.227938-2.944199-4.604534-4.206825l0.046335-0.193063-2.011708-2.125614c2.376596-5.411534 2.227938-9.09516 2.227938-9.095161l-4.797596-9.685931-3.309086 9.676278-0.830167 2.000124-0.716261-0.751012a66.01569 66.01569 0 0 0-0.362957 3.388242c-0.374541 0.944074-0.739428 1.83023-1.113969 2.648814-0.704677-3.239584-1.841813-6.29962-1.841814-6.29962l-0.660272 0.523198c-0.432459-3.979012-2.365012-9.1859-2.365012-9.185899-1.751074 1.409354-3.069689 2.558074-4.160491 3.513732 0.374541-2.921031 0.420876-5.593012 0.420876-5.593012l-1.978888 0.648689c1.239459-3.876689 1.341782-10.027651 1.341783-10.027651-11.062464 3.490565-8.776608 4.502211-25.422431 4.12767-11.506507-0.260634-14.620601-3.376658-14.620601-3.376658s7.548732 9.266986 18.62278 12.813538c-1.02323-0.011584-2.137199-0.034751-3.365074-0.055988-11.518091-0.260634-14.609017-3.376658-14.609017-3.376658s9.606775 11.813476 23.09217 13.87152l-1.48851 0.534782c-10.823067 3.934608-14.83683 2.160366-14.83683 2.160366s9.9929 5.662514 21.341096 5.195304c-1.069565 0.409292-2.195117 0.841751-3.490565 1.307031-10.823067 3.934608-14.848414 2.17195-14.848414 2.17195s13.325153 7.548732 26.661891 4.490627c-8.878931 6.174129-19.499283 11.425421-19.499283 11.425421s14.178488-3.35349 25.183034-8.3789l-0.239397 0.409292c-9.220651 16.041539-13.462227 20.862302-13.462228 20.862302s15.713333-10.732328 22.908762-18.429718a212.542181 212.542181 0 0 1-2.432584 7.390421c-3.762782 10.89257-7.674223 12.869527-7.674223 12.869527s24.532414-9.519897 22.895247-31.247118zM533.019647 799.190647c0.102323-1.420938 2.227938-2.944199 4.604534-4.183658l-0.046335-0.21623 2.000125-2.125614c-2.376596-5.411534-2.216354-9.09516-2.216355-9.095161l4.786012-9.685931 3.330324 9.676278 0.818583 2.011708 0.716261-0.762596c0.181478 1.353366 0.272218 2.444168 0.353304 3.399826 0.374541 0.93249 0.739428 1.807062 1.113969 2.648813 0.727845-3.228 1.864981-6.309273 1.864981-6.309273l0.637105 0.534783c0.420876-3.990596 2.365012-9.197483 2.365012-9.197484 1.762658 1.420938 3.069689 2.558074 4.172074 3.525316-0.374541-2.932615-0.420876-5.593012-0.420875-5.593012l1.967303 0.637105c-1.227876-3.876689-1.330199-10.016067-1.330198-10.016067 11.074048 3.490565 8.765024 4.502211 25.422431 4.116086 11.506507-0.250981 14.597433-3.365074 14.597433-3.365074s-7.525565 9.255402-18.611196 12.813539c1.034813-0.011584 2.137199-0.046335 3.365074-0.046335 11.518091-0.272218 14.609017-3.388242 14.609017-3.388242s-9.595192 11.801893-23.069003 13.859936l1.48851 0.534782c10.811483 3.955845 14.825247 2.160366 14.825246 2.160366s-10.004483 5.674098-21.341096 5.206888c1.057981 0.397708 2.195117 0.830167 3.490565 1.307031 10.823067 3.944261 14.848414 2.160366 14.848414 2.160366s-13.336737 7.560316-26.683127 4.490627c8.902098 6.185713 19.508936 11.437005 19.508936 11.437005s-14.166905-3.376658-25.171451-8.390484l0.250981 0.420876c9.197483 16.041539 13.462227 20.873886 13.462228 20.873886s-15.73457-10.732328-22.908761-18.452886c0.579187 1.95572 1.353366 4.3439 2.409416 7.390421 3.762782 10.89257 7.685806 12.88111 7.685806 12.881111s-24.532414-9.519897-22.895247-31.258702z" fill="#372B28" /><path d="M590.980782 740.854971c-5.206888-2.239522-12.574141 3.251168-16.439246 12.255589-3.865105 9.016005-2.785888 18.134333 2.421 20.373855 5.218471 2.227938 12.585725-3.251168 16.439246-12.267173 3.87862-9.016005 2.787818-18.122749-2.421-20.362271z" fill="#FFDECC" /><path d="M454.16146 817.120334h122.84548c8.436818 0 15.336861 6.901974 15.336862 15.336861v45.512484c0 8.436818-6.901974 15.336861-15.336862 15.336862h-122.84548c-8.436818 0-15.336861-6.901974-15.336862-15.336862v-45.512484c0-8.434888 6.901974-15.336861 15.336862-15.336861z" fill="#FFBF06" /><path d="M542.002832 820.338681c-0.476864 0.762596-47.910317 1.511677-48.445099 2.262689-14.894749 21.26001-9.788254 33.3013-35.38251 39.019802-25.466835 5.706919 32.538704 1.864981 32.505883 23.408792l65.339972-2.706732c-0.034751-21.557326 54.072862-15.883228 28.094412-21.692469-18.804259-4.195242-9.755433-12.608893-26.410909-24.399201-6.369122-4.502211-11.801893-9.741919-15.701749-15.892881z" fill="#FFDECC" /><path d="M543.412186 774.951687v60.951669c-13.676527 17.985675-36.075603 17.360153-49.75213 0V774.951687c0-32.903591 49.75213-32.903591 49.75213 0z" fill="#FFDECC" /><path d="M543.412186 774.951687v40.815281c-9.413713 7.35567-18.485706 11.494924-24.876065 11.494924-6.390359 0-15.462352-4.139254-24.876065-11.494924V774.951687c0-32.903591 49.75213-32.903591 49.75213 0z" fill="#F7C5AA" /><path d="M518.536121 817.10875c-16.190196 0-50.412403-25.455252-60.996073-61.928563-10.67634-36.824685 9.448464-89.648434 60.996073-89.648434 51.561123 0 71.672413 52.810235 60.98642 89.648434-10.574017 36.473312-44.784639 61.928563-60.98642 61.928563z" fill="#FFDECC" /><path d="M447.215081 740.854971c5.206888-2.239522 12.574141 3.251168 16.439247 12.255589 3.865105 9.016005 2.774304 18.134333-2.432584 20.373855-5.206888 2.227938-12.574141-3.251168-16.439246-12.267173-3.865105-9.016005-2.774304-18.122749 2.432583-20.362271z" fill="#FFDECC" /><path d="M464.691072 713.1351c-1.990471 17.394905-4.058168 14.108986 1.02323 39.212864 3.525316 17.3505 8.84611 21.397084 8.84611 21.397085s-33.880486-20.976208-27.627201-53.0728c0.965311-4.955907 17.757862-7.525565 17.757861-7.537149zM567.139531 718.84395c2.911378 15.883228 4.502211 13.062589 1.704739 35.392163-1.932553 15.439184-6.320857 18.736687-6.320856 18.736687s28.36663-16.576321 20.727158-46.068503c-1.171888-4.536962-16.111041-8.060347-16.111041-8.060347z" fill="#4E3327" /><path d="M446.157101 736.294842s21.192438-23.762096 51.549539-23.818084c30.333934-0.067572 58.93996 9.606775 75.663008 26.764213 16.736562 17.167091 19.590022 14.313632 19.590022 14.313632 0-0.011584 1.73949-2.944199 3.228-7.651055 1.920969-6.150962 6.844055-9.027589 6.253285-12.541321-0.59077-3.513732-1.932553-13.666873-1.057981-16.780966 0.864919-3.116024-2.888211-21.987854-16.473998-35.540822-13.597371-13.56455-25.229369-38.645261-62.202711-41.703366-36.984926-3.081273-31.152517 6.162546-39.098958 8.03911-7.958024 1.888148-22.613376-0.034751-35.666312 28.775921-5.674098 12.494986-3.455813 21.534158-4.604533 28.310642-1.467273 8.834526-5.264806 13.734445-5.27446 16.736562-0.021237 5.295696 8.095098 15.095534 8.095099 15.095534z" fill="#FFBF06" /><path d="M480.118673 923.84512l-0.21623-0.409292c-2.683565-5.069813-6.89039-9.583608-10.971725-13.950674-3.058105-3.262751-6.20695-6.650993-8.641464-10.197546-2.876627-4.229993-4.650868-9.322974-5.286043-15.190134-2.955782 1.727907-6.400012 3.841938-9.676278 5.890328l-1.307031 0.830167v-1.39777c0-29.845486 11.857881-50.947185 35.529237-58.370427l0.43246-0.12549c-0.613938 2.809055-3.148845 3.739615-1.057981 5.911564 5.367129 5.52544 19.7715 8.822943 38.531355 8.822943h1.727906c8.822943-0.079156 40.019864 2.932615 38.291958-9.583608 27.90135 8.662701 37.143237 23.34122 37.143237 53.345018v1.467273l-1.341782-0.920907c-3.262751-2.239522-6.718565-4.548546-9.618359-6.400012-0.602354 6.093043-2.388179 11.346266-5.332378 15.620663-2.432584 3.581304-5.61618 6.981129-8.685869 10.267048-4.081335 4.365136-8.299744 8.902098-10.971725 13.983495l-0.216229 0.409292c-23.590271 28.171637-49.205764 33.787816-78.333059-0.001931z" fill="#9B73A7" /><path d="M541.912093 723.550806c19.806252-0.306969 25.38768 11.664818 28.468952 24.648252 1.909385 8.027526 0.751012 14.415955-3.455813 19.032072-4.116086 4.502211-11.153204 7.060285-19.806252 7.197359-12.07411 0.181478-18.952917-8.390483-24.080648-16.815718a20.927943 20.927943 0 0 1-0.546367-0.920907c-1.511677-2.558074-2.227938-3.513732-3.774366-3.490565-1.558012 0.023167-2.227938 1.011646-3.637292 3.604472-0.158311 0.306969-0.330136 0.625522-0.500031 0.944074-4.797596 8.560378-11.323098 17.3505-23.387555 17.531979-8.662701 0.137074-15.792488-2.20477-20.090053-6.583421-4.388304-4.467459-5.809242-10.823067-4.229993-18.906582 2.558074-13.062589 7.662639-25.206201 27.468891-25.51317l47.570527-0.727845z" fill="#8E9095" /><path d="M541.912093 723.550806c19.806252-0.306969 25.38768 11.664818 28.468952 24.648252 1.909385 8.027526 0.751012 14.415955-3.455813 19.032072-4.116086 4.502211-11.153204 7.060285-19.806252 7.197359-12.07411 0.181478-18.952917-8.390483-24.080648-16.815718a20.927943 20.927943 0 0 1-0.546367-0.920907c-1.511677-2.558074-2.227938-3.513732-3.774366-3.490565-1.558012 0.023167-2.227938 1.011646-3.637292 3.604472-0.158311 0.306969-0.330136 0.625522-0.500031 0.944074-4.797596 8.560378-11.323098 17.3505-23.387555 17.531979-8.662701 0.137074-15.792488-2.20477-20.090053-6.583421-4.388304-4.467459-5.809242-10.823067-4.229993-18.906582 2.558074-13.062589 7.662639-25.206201 27.468891-25.51317l47.570527-0.727845z m-0.046335-2.490502l-47.580181 0.727844c-21.931866 0.34172-27.582797 14.132153-30.220026 27.582797-1.73949 8.84611-0.090739 15.894811 4.865167 20.953041 4.865168 4.957837 12.790371 7.606651 22.306407 7.446409 6.185713-0.090739 11.711153-2.227938 16.394843-6.355607 4.309148-3.797534 7.344086-8.72062 9.504452-12.574142 0.181478-0.318553 0.34172-0.648689 0.523199-0.955658 0.227813-0.432459 0.727845-1.353366 1.113968-1.909385 0.397708 0.546366 0.944074 1.455689 1.181541 1.864981 0.181478 0.318553 0.374541 0.625522 0.55795 0.944074 2.318677 3.797534 5.537024 8.618297 10.004483 12.278757 4.855514 3.979012 10.46011 5.946316 16.643893 5.855576 9.516036-0.148658 17.327333-3.034938 21.987854-8.129849 4.753191-5.218471 6.116211-12.313507 4.025347-21.090115-3.170081-13.359905-9.377031-26.980443-31.308897-26.638723z" fill="#48494B" /><path d="M568.048854 748.619933c-3.002117-12.653297-8.141433-23.273649-26.092357-22.9995-1.95572 0.034751-45.62446 0.704677-47.58018 0.739428-17.952854 0.272218-22.659711 11.039297-25.159867 23.785264-3.616055 18.452885 10.073986 23.250481 21.931867 23.069002 9.583608-0.148658 15.564675-6.139378 21.283177-16.383258 1.590833-2.818708 2.683565-5.650931 6.241701-5.706919 3.558136-0.055988 4.774428 2.739553 6.457931 5.513857 6.139378 10.062402 12.346328 15.86006 21.94345 15.713332 11.85595-0.18534 25.341345-5.392227 20.974278-23.731206z" fill="#A7FFFF" /><path d="M464.167874 749.619996c0.920907-4.695273 2.216354-9.425297 4.423055-13.620539l-15.894812-3.558136c-2.727969-0.567603-5.479105 0.909323-6.139378 3.297502l-3.888272 14.188141a3.996388 3.996388 0 0 0 0.625521 3.376658c0.716261 1.011646 1.864981 1.727907 3.183596 1.990472l17.201842 3.751198c-0.34172-2.865043-0.183409-6.013888 0.488448-9.425296zM573.176586 747.699027c-1.102385-4.672105-2.581242-9.346141-4.967491-13.462228l13.518216-3.774366c2.706732-0.648689 5.502273 0.727845 6.253285 3.092857l4.467459 14.064581a3.988665 3.988665 0 0 1-0.488447 3.388242c-0.68151 1.034813-1.785825 1.785825-3.116024 2.092794l-14.792426 4.00218c0.21816-2.878557-0.067572-6.015818-0.874572-9.40406z" fill="#48494B" /><path d="M446.328926 850.261392a59.291334 59.291334 0 0 1 8.799775-9.164663 60.084819 60.084819 0 0 1 9.050756-6.297689l1.95572-1.057981c2.195117-1.125553 12.346328-2.944199 12.346328-2.944199 0-0.011584 2.102447 18.145917-2.227937 32.880424-3.251168 11.097215-13.43906 16.894873-13.43906 16.894874a1334.395759 1334.395759 0 0 1-6.037056 7.048701c-20.248364 23.613438-13.234414 38.008156-39.680074 36.347821-22.397146-1.409354-39.29202-14.222893-49.728963-23.706108-8.253409-12.676464 2.706732-25.352929 13.711278-22.306407l7.48116 3.672043c45.829106 28.540386 19.271469 5.778352 57.768073-31.366816z" fill="#303C4E" /><path d="M503.82285 831.968748c-3.455813 4.706857-4.513794 2.911378-6.423179 13.211247-3.35349 18.087998-0.102323 46.421807-0.102323 46.421807s-20.134457 0.920907-24.422369-7.413589c-0.853335-1.693156-6.923211 0.762596-10.027651 4.365136-1.569596 1.841813 2.558074-39.996697 8.788192-50.138254 1.227876-1.978888 9.971663-12.108861 12.939029-10.92539 2.957713 1.160304 19.248302 4.479043 19.248301 4.479043z" fill="#C46065" /><path d="M494.023013 810.764726c-0.534782 5.74167 0.420876 7.197359 2.911378 7.481161 2.967366 1.353366 8.469639 2.683565 21.659649 2.683564 13.199663 0 21.987854-2.455751 24.341282-4.343899 0.476864-2.17195 0.476864-5.002242 0.476864-5.002242s6.29962 0.250981 5.616179 3.660459c-0.68151 3.411409-1.590833 8.685869 1.011646 11.574079 2.604409 2.876627 6.481098 2.195117 0.023168 6.116211-10.904153 6.627825-15.406364 6.162546-31.731704 6.162546-16.315687 0-21.897115-1.944136-30.254778-5.469453-5.878744-2.490502-9.983247-4.411471-5.753254-7.651055 4.262813-3.239584 3.706794-3.718378 5.934732-6.502335 2.216354-2.785888-3.955845-4.388304-0.181478-6.54867 3.762782-2.160366 5.946316-2.160366 5.946316-2.160366z" fill="#D16E70" /><path d="M529.42676 785.014089s-4.946254 18.383383-11.039297 18.383383c-6.08339 0-10.743912-18.008842-10.743912-18.008842s4.660522-2.751136 10.743912-2.751136c6.094974 0 11.039297 2.386249 11.039297 2.376595z" fill="#D75C6A" /><path d="M379.214712 877.595139a16.51068 16.51068 0 0 1 3.955845 10.755495 16.483651 16.483651 0 0 1-11.437005 15.73457 151.198596 151.198596 0 0 1-4.365137-3.820701c-7.788129-11.960204 1.511677-23.89724 11.846297-22.669364z" fill="#FFCF7F" /><path d="M368.4708 902.220223l57.07498-59.449645-5.571776-5.355545-57.074979 59.484396z" fill="#FFFFFF" /><path d="M369.380123 873.818842c1.693156-1.546428 6.253285 0.704677 10.176309 5.025409 3.91144 4.320732 5.706919 9.071993 4.013763 10.618421-1.704739 1.546428-6.253285-0.704677-10.176309-5.025409-3.923024-4.318802-5.718502-9.071993-4.013763-10.618421z" fill="#FFCF7F" /><path d="M364.424216 876.797792c1.704739-1.546428 6.264869 0.704677 10.176309 5.025409 3.923024 4.320732 5.718502 9.083577 4.013763 10.630005-1.693156 1.534845-6.253285-0.716261-10.164725-5.036993-3.923024-4.318802-5.732017-9.071993-4.025347-10.618421z" fill="#FFA940" /><path d="M361.342944 879.595263c1.704739-1.546428 6.264869 0.716261 10.187892 5.036993 3.91144 4.320732 5.706919 9.071993 4.013763 10.606838-1.716323 1.546428-6.264869-0.704677-10.187892-5.02541-3.91144-4.318802-5.720433-9.071993-4.013763-10.618421z" fill="#FFCF7F" /><path d="M357.385169 882.802026c1.704739-1.546428 6.253285 0.716261 10.176308 5.036993 3.91144 4.320732 5.718502 9.071993 4.013764 10.606838-1.716323 1.546428-6.264869-0.716261-10.176309-5.025409-3.923024-4.320732-5.718502-9.083577-4.013763-10.618422z" fill="#FFA940" /><path d="M589.639 855.537782a58.275826 58.275826 0 0 0-8.811359-9.153079 59.100202 59.100202 0 0 0-9.050756-6.309273l-1.95572-1.057981c-2.195117-1.125553-12.346328-2.944199-12.346328-2.944198 0-0.011584-2.092794 18.134333 2.227938 32.892007 3.262751 11.085632 13.450644 16.871706 13.450643 16.871706 2.046459 2.432584 4.058168 4.753191 6.025472 7.060285 20.259948 23.603785 13.234414 38.008156 39.689728 36.336237 22.385563-1.386187 39.280436-14.211309 49.719309-23.68294 8.253409-12.699632-2.695148-25.364512-13.699694-22.317991l-7.48116 3.683627c-45.84069 28.526871-19.269539 5.764837-57.768073-31.3784z" fill="#303C4E" /><path d="M656.764798 882.858014a16.446969 16.446969 0 0 0-3.979012 10.778663c0 7.367254 4.797596 13.620539 11.437005 15.722986a124.02316 124.02316 0 0 0 4.365136-3.809117c7.79006-11.969857-1.511677-23.920407-11.823129-22.692532z" fill="#FFCF7F" /><path d="M674.864379 912.133967l-63.042532-67.158618 4.762845-5.013826 63.032879 67.158619z" fill="#FFFFFF" /><path d="M666.587803 879.095232c-1.704739-1.546428-6.253285 0.704677-10.176309 5.036993-3.923024 4.309148-5.718502 9.06234-4.013763 10.606837 1.704739 1.558012 6.253285-0.704677 10.176309-5.036992 3.91144-4.318802 5.718502-9.060409 4.013763-10.606838z" fill="#FFCF7F" /><path d="M671.534056 882.074182c-1.704739-1.546428-6.264869 0.716261-10.176308 5.036993s-5.706919 9.071993-4.013764 10.618421c1.704739 1.546428 6.253285-0.716261 10.176309-5.036993s5.718502-9.071993 4.013763-10.618421z" fill="#FFA940" /><path d="M674.615329 884.871653c-1.693156-1.558012-6.264869 0.716261-10.176309 5.036993s-5.718502 9.071993-4.013763 10.618421c1.704739 1.546428 6.264869-0.716261 10.176309-5.036993 3.923024-4.320732 5.718502-9.073924 4.013763-10.618421z" fill="#FFCF7F" /><path d="M678.582758 888.076486c-1.704739-1.546428-6.264869 0.716261-10.176309 5.036993-3.923024 4.320732-5.718502 9.071993-4.013763 10.618421 1.704739 1.546428 6.253285-0.716261 10.176308-5.036993 3.91144-4.318802 5.718502-9.071993 4.013764-10.618421z" fill="#FFA940" /><path d="M458.675254 817.120334h10.255464v92.36482l-7.639471-8.799776zM579.590112 817.120334h-10.24388v92.990341l7.627887-8.867347z" fill="#FFFFFF" /><path d="M854.558957 458.75634a66.826551 66.826551 0 0 1-24.820077 4.753192c-37.815094 0-68.455996-31.389984-68.455997-70.114401 0-34.585163 24.422369-63.305097 56.584602-69.058351 29.721926 36.722362 44.377278 81.746398 36.691472 134.41956zM178.829658 522.573052c20.680823 0 39.212864 9.378962 51.765769 24.227376-11.915799 16.860122-23.375972 35.131529-34.256957 54.970601-11.118452-27.922587-18.690352-54.175185-23.375972-78.948927a71.813348 71.813348 0 0 1 5.86716-0.24905z m27.968922-186.366807c20.441426 12.132029 34.199039 34.778225 34.199039 60.712271 0 38.724417-30.640902 70.125984-68.455997 70.125984-1.762658 0-3.478981-0.079156-5.206887-0.204645-0.169895-51.626764 14.394718-95.048384 39.463845-130.63361z m132.80556 41.37323c23.569034 0 44.363764 12.199601 56.677271 30.78763-39.622156 16.143862-78.323406 41.46397-114.296686 77.209436-6.867223-10.92539-10.834651-23.931991-10.834651-37.882665-0.001931-38.712833 30.638972-70.114401 68.454066-70.114401z m184.071297 0.602354c14.769259 0 28.445785 4.797596 39.63374 12.939029a298.124725 298.124725 0 0 0-72.263183-4.467459 66.82269 66.82269 0 0 1 32.629443-8.47157z m-67.898047-146.653911c37.815094 0 68.455996 31.389984 68.455997 70.1144s-30.640902 70.114401-68.455997 70.114401-68.465649-31.389984-68.465649-70.114401 30.650556-70.114401 68.465649-70.1144z m-106.338662 4.172074c-1.932553 36.961759-31.799276 66.307214-68.363326 66.307214a66.969417 66.969417 0 0 1-34.164288-9.334558c28.853146-24.489941 63.870769-43.442857 102.527614-56.972656z m321.583714-2.671981c-5.253223 33.368871-33.505946 58.84729-67.567911 58.84729-37.815094 0-68.455996-31.380331-68.455996-70.1144 0-3.990596 0.318553-7.902036 0.955658-11.73239 46.796348 1.944136 92.932423 9.720682 135.068249 22.9995z m-19.169147 130.737863c37.815094 0 68.455996 31.389984 68.455997 70.114401 0 10.67634-2.341845 20.79473-6.502335 29.855139-35.450082-30.287599-76.709406-52.833403-120.85694-65.61219 11.925452-20.566917 33.845735-34.35735 58.903278-34.35735z" fill="#FFD34E" /><path d="M597.257235 126.372727s13.062589-2.797471 23.989909-0.704677c10.948558 2.102447 22.364326 11.187955 34.710654 11.881048 12.336675 0.693093 9.778601-3.955845 9.7786-3.955845s-7.925203 1.171888-10.016067-5.581428c-2.092794-6.753316 6.525502-12.132029 19.794668-21.431835 13.278818-9.31139 15.836893-18.62278 13.278818-24.45519 0 0-2.341845 3.729962-13.278818 9.550788-10.948558 5.820825-18.862177 16.54157-27.480474 24.206139-8.618297 7.69739-9.083577 8.16267-17.236594 6.525502-8.141433-1.627514-25.615493-4.187519-33.540696 3.965498z"  /></svg>