<?xml version="1.0" standalone="no"?><!DOCTYPE svg PUBLIC "-//W3C//DTD SVG 1.1//EN" "http://www.w3.org/Graphics/SVG/1.1/DTD/svg11.dtd"><svg class="icon" width="200px" height="200.00px" viewBox="0 0 1024 1024" version="1.1" xmlns="http://www.w3.org/2000/svg"><path d="M512 0c282.772 0 512 229.228 512 512S794.772 1024 512 1024 0 794.772 0 512 229.228 0 512 0z" fill="#838383" /><path d="M73.74 512c0 242.042 196.228 438.26 438.26 438.26 242.054 0 438.26-196.22 438.26-438.26S754.054 73.74 512 73.74C269.968 73.74 73.74 269.96 73.74 512z" fill="#757575" /><path d="M188.17 512c0 178.842 144.992 323.83 323.83 323.83 178.858 0 323.83-144.988 323.83-323.83S690.856 188.17 512 188.17c-178.838 0-323.83 144.986-323.83 323.83z" fill="#666666" /><path d="M781.542 512.004c0 148.862-120.68 269.538-269.546 269.538-148.862 0-269.538-120.674-269.538-269.538s120.674-269.538 269.538-269.538c148.866 0.002 269.546 120.676 269.546 269.538z" fill="#B1E9F1" /><path d="M762.936 512.004c0 138.588-112.35 250.938-250.942 250.938-138.588 0-250.938-112.35-250.938-250.938s112.35-250.938 250.938-250.938c138.592 0.002 250.942 112.352 250.942 250.938z" fill="#50D0E0" /><path d="M334.33 689.212c-45.276-45.392-73.272-108.026-73.272-177.208 0-138.586 112.35-250.938 250.938-250.938 50.1 0 96.764 14.686 135.938 39.98 45.286 45.396 73.286 108.04 73.286 177.222 0 138.588-112.35 250.932-250.942 250.932-50.1 0-96.77-14.69-135.948-39.988z" fill="#26C5D9" /><path d="M299.068 423.494c3.89 3.662-1.016 16.246 0.494 21.372 1.278 4.328 5.694 12.878 9.442 15.402 1.882 1.268 7.114 2.83 8.942 1.494 1.42-1.04 1.534-5.286 0.998-6.958-1.268-3.93-9.896-8.096-11.436-11.926-1.438-3.574-2.602-12.566 0-15.41 0.926-1.012 4.426-1.384 5.47-0.494 2.842 2.428-0.48 11.476 0.99 14.906 2.532 5.9 16.804 12.494 17.394 18.888 0.22 2.332-4.91 5.602-4.97 7.95-0.12 4.836 5.506 14.086 9.442 16.9 4.01 2.858 15.288 6.204 19.384 3.476 0.954-0.638 0.028-3.866 0.998-4.476 1.834-1.156 7.032 0.342 8.444 1.988 1.048 1.234-0.64 5.31 0.494 6.464 2.804 2.844 12.37-0.366 15.902 1.49 5.31 2.786 10.102 15.58 15.402 18.384 4.422 2.336 16.25-1.434 19.884 1.992 2.446 2.298 1.924 10.376 0.498 13.414-1.732 3.688-10.994 6.35-12.92 9.94-2.528 4.72-3.004 16.23-1.49 21.366 2.282 7.748 16.406 18.334 19.38 25.844 0.828 2.094-0.734 7.494 0.99 8.946 1.618 1.362 6.436-1.14 8.452-0.498 4.386 1.384 12.458 7.27 14.414 11.43 4.804 10.234-8.306 36.6-0.998 45.222 0.888 1.044 4.584-1.04 5.47 0 3.014 3.55-4.156 13.876-2.982 18.388 0.756 2.91 6.464 6.602 7.448 9.442 1.916 5.516-0.54 17.54 0 23.354 0.954 10.266 1.466 20.12 26.838 31.31 3.454 1.524 17.064 2.542 14.912-2.484-1.352-3.152-8.984-6.148-9.942-9.442-1.144-3.934 6.28-12.512 3.976-15.906-1.054-1.554-5.818-0.064-7.454-0.99-1.388-0.784-4.1-3.386-3.98-4.97 0.156-2.02 5.154-3.616 5.968-5.466 0.298-0.684 0.404-2.35 0-2.982-0.956-1.498-5.342-1.594-6.458-2.982-0.7-0.87-0.842-3.74 0-4.476 6.052-5.324 17.872 1.648 28.322-15.402 3.714-6.06 15.388-15.914 16.9-22.86 1.026-4.714-5.062-14.184-3.976-18.884 0.32-1.38 2.162-3.954 3.482-4.476 3.624-1.43 11.594 3.336 15.402 2.488 3.226-0.718 9.24-4.614 10.936-7.45 4.29-7.186 0.096-25.646 3.482-33.3 1.888-4.266 10.758-9.556 12.42-13.914 0.75-1.974 1.732-7.242 0-8.452-4-2.786-2.204-1.992-15.406-11.924-5.58-4.196-20.914-1.512-27.828-2.484-3.698-0.522-11.93-2.298-13.914-5.466-1.722-2.744 1.846-9.794 0.99-12.924-0.798-2.922-4.306-8.454-6.954-9.936-3.588-2.006-12.828 1.032-16.406-0.994-4.196-2.372-6.662-13.656-10.932-15.902-1.21-0.638-4.37-0.824-5.46 0-0.724 0.544-0.284 2.922-0.998 3.476-2.938 2.3-11.65 2.306-14.908 0.496-7.092-3.936-4.1-11.936-32.302 2.982-4.664 2.464-17.372 0.962-20.872-2.982-3.628-4.092 2.95-17.62-0.494-21.866-2.414-2.968-13.078-0.114-14.912-3.476-1.768-3.244 6.514-10.556 4.972-13.914-0.718-1.576-4.742-2.694-6.464-2.488-5.402 0.656-12.636 10.994-17.89 12.424-9.566 2.612-42.922-18.28 8.454-38.762 7.97-3.174 28.258-7.596 34.29-1.49 1.572 1.594-1.668 7.038-0.498 8.948 1.278 2.084 6.95 5.388 8.946 3.972 3.06-2.158-0.262-11.594 1.49-14.906 3.336-6.312 18.33-12.182 21.866-18.384 0.75-1.316 0.214-4.668 0.994-5.964 4.838-8.054 23.322-16.076 29.82-22.862 3.148-3.284 6.006-13.844 10.432-14.906 2.052-0.494 5.364 4.284 7.458 3.972 1.388-0.206 4.16-2.578 3.976-3.972-0.266-1.988-6.002-2.222-6.962-3.98-1.14-2.098 0.504-9.442 9.45-1.49 8.948 7.948 10.862-1.178 14.404-1.988 1.044-0.234 3.436 1.42 3.476 2.488 0.036 0.966-2.566 1.604-2.972 2.484-0.688 1.462-0.954 5.154 0 6.458 2.378 3.27 11.824 6.864 15.402 4.972 1.948-1.03 3.46-6.474 2.488-8.448-1.058-2.158-7.594-1.498-8.952-3.476-0.494-0.72-0.47-2.748 0-3.482 0.958-1.498 5.502-1.48 6.464-2.982 1.068-1.672 0.876-6.162 0-7.95-1.246-2.542-7.568-4.484-8.942-6.958-1.758-3.166 1.636-12.584-1.494-14.412-2.69-1.57-8.352 4.49-11.43 4.972-1.234 0.192-4.132 0.426-4.972-0.496-1.416-1.566 1.21-6.71 0-8.446-2.648-3.808-12.796-7.064-17.394-6.464-2.566 0.338-7.256 3.67-8.444 5.964-2.17 4.196 3.07 15.302 0 18.884-2.126 2.478-10.252 0.11-12.92 1.988-2.776 1.95-3.734 9.914-6.464 11.93-1.02 0.75-3.99 1.796-4.97 0.99-2.782-2.282 2.52-11.834 0-14.408-4.15-4.25-43.504-3.28-4.468-23.36 4.104-2.112 12.726-9.446 16.89-7.454 1.74 0.834 0.338 6.458 1.992 7.454 1.416 0.858 5.328-0.284 6.46-1.49 1.036-1.104-0.202-5.034 0.99-5.964 1.182-0.92 4.59 1.098 5.964 0.494 3.326-1.452 5.966-9.356 8.944-11.426 3.93-2.73 18.888-2.982 18.888-2.982s3.698 3.468 3.478 4.972c-0.66 4.55-15.378 6.932-14.408 11.43 1.192 5.506 16.78 7.902 21.862 5.466 1.604-0.77 1.52-5.444 2.978-6.464 2.45-1.714 9.652 0.948 11.934-0.994 1.562-1.324 2.968-6.152 1.984-7.948-0.756-1.38-5.006-0.738-5.964-1.988-1.284-1.682-0.496-8.448-0.496-8.448s-34.872-29.242-48.204-3.976c-1.168 2.208 0.858 8.264-0.994 9.936-1.842 1.668-8.126 1.7-9.936 0-1.448-1.362-1.324-6.134-0.5-7.948 1.1-2.418 9.232-3.918 8.444-6.46-1.358-4.398-14.312-3.156-18.38-0.994-1.924 1.022-5.438 5.512-4.472 7.454 0.5 1.012 3.666-0.284 4.472 0.498 1.26 1.224 2.172 5.654 0.99 6.954-1.92 2.12-9.304-2.414-11.424-0.494-0.762 0.688-0.198 3.33-0.998 3.976-3.29 2.648-13.964 3.542-16.896 0.494-1.296-1.346-1-6.336 0.494-7.454 2.386-1.788 9.262 1.332 11.93 0 2.226-1.114 6.294-5.49 5.964-7.954-0.188-1.402-3.056-3.522-4.472-3.478-1.494 0.046-3.354 2.978-4.468 3.976-2.342 2.094-0.174 2.314-10.84-6.354-3.542-2.878-18.242-0.238-18.242-0.238l-9.478 9.474 8.058 0.238-2.798 6.816s10.674-1.338 12.92 0.994c0.606 0.632 0.106 2.84-0.498 3.482-2.608 2.762-14.908 2.982-14.908 2.982l-4.472-7.458-10.936-2.978-7.67-1.098c-38.614 24.358-70.112 58.928-90.704 99.948l0.972 2.03c-0.004-0.002 1.008 13.008 10.436 21.864z" fill="#3D693E" /><path d="M427.92 588.236c1.474-0.362 2.996-0.594 5.118 0.074 6.002 1.896 15.292 8.824 17.986 14.554 4.93 10.478-3.852 33.374-2.69 41.648 2.214-0.298 4.256-0.17 6.318 2.254 6.02 7.082-1.772 15.516-1.924 20.294 1.746 3.12 5.836 4.728 7.472 9.434 2.736 7.892-0.426 16.956 0.298 24.752 1.476 15.866 8.586 19.93 23.268 26.412-1.302-1.196-2.416-2.694-3.038-4.834-1.438-4.948 1.26-8.8 2.972-12.328-1.104-0.036-2.268-0.27-3.678-1.068-3.51-1.984-7.288-6.374-6.968-10.584 0.212-2.748 1.378-4.242 2.858-5.41a7.838 7.838 0 0 1-2.052-1.842c-2.702-3.348-2.606-9.74 0.696-12.644 8.942-7.866 17.978 0.982 27.18-14.046 3.07-5.002 15.192-16.548 16.144-20.91 0.336-4.402-5.622-11.816-3.94-19.082 0.766-3.306 3.898-7.384 7.074-8.64 6.552-2.594 11.852 2.272 16.296 2.212 1.676-0.376 6.216-3.29 7.136-4.704 3.092-5.186-0.778-23.78 3.148-32.664 2.556-5.786 10.766-10.226 12.304-13.62 0.208-0.54 0.46-1.704 0.55-2.634-4.696-3.426-9.36-7.434-13.986-10.912-2.886-2.176-20.468-0.696-25.096-1.35-5.776-0.816-14.842-2.992-18.1-8.186-3.5-5.584 0.37-10.276 0.298-14.496-0.412-1.512-2.886-5.498-3.84-6.208-4.232-1.2-10.762 2.232-16.726-1.136-5.754-3.252-7.234-10.912-9.374-14.426-0.352 0.514-0.82 1.012-1.462 1.512-4.894 3.812-16.072 3.976-21.422 1.01-2.698-1.498-3.728-3.096-5.886-4.696-2.546-1.882-18.636 6.606-20.776 7.738a12.332 12.332 0 0 1-1.31 0.59c1.988 5.072 1.396 12.378-0.568 16.57-2.95 6.28-10.304 7.032-13.066 10.22-1.772 3.314-2.086 13.3-1.026 16.892 1.924 6.52 15.68 16.432 19.204 25.338 0.758 1.906 0.724 3.446 0.608 4.916z m-34.538-88.134c0.338-4.494 1.992-9.008 1.8-12.16-4.81-0.778-11.824 1.49-15.344-4.96-2.702-4.952 0.124-8.75 2.416-12.264-3.628 2.654-8.898 8.998-14.256 10.912 0.436 0.358 0.824 0.734 1.164 1.128 1.804 2.112 1.856 3.876 1.698 5.784 3.72-0.064 8.462-1.584 12.952 0.774 3.856 2.028 6.962 6.654 9.57 10.786z m-40.324-20.486c-14.94-7.738-24.84-30.286 18.856-47.7 10.048-4.004 32.24-8.718 40.696-0.156 0.044 0.05 0.092 0.094 0.132 0.142 0.11-0.242 0.226-0.49 0.358-0.734 4.472-8.47 18.958-13.298 21.584-17.632 0.47-2.612-0.208-4.27 1.434-7 6.478-10.78 22.598-15.53 30.62-23.91 4.042-4.22 4.668-14.064 12.796-16.428-0.096-7.486 8.842-13.982 19.764-4.28 0.426 0.382 1.544 1.306 2.272 1.64 2.126-1.416 2.636-3.996 6.886-4.966 2.368-0.546 5.058 0.296 7.152 1.896 1.498-1.362 3.144-1.622 4.938-2.144 0.032-0.454 0.084-0.796 0.216-0.71-2.656-2.64-6.716-2.832-9.198-7.304-1.792-3.22-1.362-6.308-0.994-9.158-1.63 1.154-3.43 2.318-5.836 2.694-3.472 0.544-7.742 0.426-10.276-2.368-3.152-3.472-1.74-6.446-1.31-9.758-2.566-1.742-8.736-3.546-10.78-3.284-1.036 0.27-3.578 2.08-3.958 2.46-1.068 5.154 4.708 13.844-0.916 20.394-4.462 5.2-10.226 2.228-13.578 2.598-2.516 3.27-1.98 8.69-6.784 12.226-3.276 2.416-8.87 3.57-12.228 0.816-5.414-4.436-2.168-10.266-1.552-14.958-2.214-0.632-5.488-1.222-6.982-1.58-5.474-1.296-12.956-3.304-14.834-9.382-3.128-10.138 13.03-18.146 19.942-21.7 4.278-2.2 9.318-6.588 14.564-8.032-1.896 0.022-3.798-0.6-5.65-1.086-0.352 0.898-0.948 1.746-2.006 2.602-5.63 4.522-19.632 5.434-24.868-0.01a7.88 7.88 0 0 1-1.558-2.41 8.21 8.21 0 0 1-1.3 1.87c-3.756 3.98-13.836 4.836-19.218 4.836h-3.354l-4.97-8.286-8.282-2.264-5.136-0.734c-36.154 23.246-65.7 55.672-85.434 93.862l0.168 0.352 0.096 1.06c0.578 6.354 3.968 13.744 8.6 18.094 0.888 0.834 1.57 1.74 2.09 2.698 3.508-1.896 8.754-1.854 11.608 0.582 6.002 5.114 1.772 12.352 2.594 17.08 2.232 5.158 16.896 10.378 17.848 20.67 0.462 4.948-2.772 6.584-4.86 9.488 0.664 3.234 4.798 9.612 6.872 11.092 1.732 1.232 7.306 3.178 10.776 3.422 0.252-1.746 0.898-3.276 3-4.6z m105.382-168.75a9.92 9.92 0 0 1 5.18 0.94c0.97 0.462 1.704 0.99 2.264 1.566a8.616 8.616 0 0 1 1.674-1.38c-2.008-0.458-3.808-1.272-5.072-2.46a7.374 7.374 0 0 1-0.87-0.99l-0.134 0.15c-0.998 1.1-2.014 1.782-3.042 2.174z m24.592-10.108c5.13-2.702 15.902-3.446 21.274-3.446h2.452l1.626 1.626c2.68 2.542 5.832 6.158 5.258 10.116-0.906 6.222-6.784 7.998-11.32 10.074 2.86 0.774 6.638 1.186 8.926 0.948 0.668-2.322 0.82-4.366 3.574-6.29 2.662-1.864 5.094-1.838 7.434-1.582a9.042 9.042 0 0 1-0.792-0.912c-1.698-2.222-2.084-6.032-1.96-9.396-10.014-7.646-29.21-18.26-36.49-4.714-0.156 1.19-0.078 2.386 0.018 3.576z m-61.392 0.49c0.6-1.946 1.636-3.66 3.082-4.742 0.61-0.458 1.21-0.812 1.8-1.076-1.122-1.064-2.24-2.144-3.372-3.084-1.366-0.536-4.874-0.394-8.122-0.082l-2.154 5.24c3.258 0.284 6.34 1.136 8.236 3.116 0.194 0.202 0.368 0.408 0.53 0.628z" fill="#429F46" /><path d="M475.102 386.038c-2.6 0-4.714 1.558-4.714 3.476 0 1.92 2.112 3.478 4.714 3.478 2.612 0 4.724-1.558 4.724-3.478 0-1.918-2.112-3.476-4.724-3.476zM490.266 384.05c-1.456 0.948-5.936-1.41-6.954 0-0.92 1.28 0.796 4.934 1.984 5.966 1.048 0.912 4.25 1.664 5.466 0.994 1.172-0.652 0.76-4.444 1.988-4.972 1.232-0.528 3.858 2.74 4.966 1.988 1.756-1.186 1.498-6.954 0-8.452-0.962-0.966-4.32-0.742-5.466 0-1.026 0.67-0.958 3.812-1.984 4.476zM657.61 339.324c1.476 1.744 1.53 7.26 3.482 8.446 2.268 1.38 8.352-3.628 10.432-1.982 2.148 1.694 2.45 9.006 0.504 10.93-3.458 3.414-15.154-0.898-19.388 1.494-3.724 2.098-6.098 12.032-9.936 13.91-2.79 1.37-10.048-2.496-12.424-0.494-2.204 1.854-3.106 9.048-1.49 11.424 0.572 0.848 3.34 0.192 3.972 0.998 1.146 1.47 1.348 6.176 0 7.454-3.344 3.17-13.784-1.174-18.384-0.994-2.814 0.11-8.182 0.98-7.954 7.948 0.118 3.638-0.376 11.65 1.988 14.414 1.69 1.974 7.35 3.174 9.936 2.982 4.38-0.32 12.502-4.682 15.906-7.454 3.856-3.134 7.316-14.05 11.924-15.902 2.808-1.126 9.104 3.062 11.93 1.988 2.396-0.908 3.918-8.282 6.454-7.954 1.916 0.248 0.842 5.91 1.996 7.458 2.964 3.98 15.022 5.836 16.892 10.436 0.962 2.372-3.802 7.742-2.484 9.936 0.262 0.436 1.502 0.668 1.984 0.494 2.928-1.036 7.458-9.936 7.458-9.936s-11.068-8.108-13.422-11.928c-1.012-1.64-3.124-5.898-1.984-7.454 1.544-2.106 7.976-1.378 10.436-0.494 3.312 1.188 8.988 6.234 10.436 9.442 1.13 2.516 0.168 8.512 1.494 10.93 1.566 2.86 6.996 9.856 9.936 8.448 4.17-1.992 0.994-10.93 9.44-15.902 0 0-0.476 8.376 0.496 10.932 0.912 2.396 4.118 6.928 6.464 7.954 4.59 2.006 19.996-1.274 19.996-1.274-16.016-38.446-41.314-72.04-73.108-98.006l-2.55 5.36c0.004-0.002-22.536 2.076-10.432 16.396z" fill="#3D693E" /><path d="M654.696 386.35c2.272-4 4.228-8.346 10.862-7.486 1.63 0.21 2.9 0.66 3.894 1.278 4.324-4.642 13.052-4.362 18.6-2.374 5.314 1.906 12.552 8.394 14.876 13.542 1.956 4.344 0.684 7.454 1.228 10.39l0.068 0.124c1.132-3.852 2.556-6.968 8.6-10.522l7.668-4.518a244.272 244.272 0 0 0-47.232-56.798l-0.122 0.266-4.368 0.38c-1.366 0.134-4.892 0.854-6.642 1.792 0.422 0.71 1.068 1.53 1.388 1.906a10.56 10.56 0 0 1 2.292 4.43c3.28-1.278 6.514-2.19 10.51 0.962 5.846 4.618 6.418 17.288 1.144 22.494-6.624 6.542-14.746 2.108-20.936 2.896-3.312 4.106-3.642 10.634-10.418 13.954-2.596 1.268-4.708 1.334-6.692 1.016 1.09 1.722 1.754 3.904 1.97 6.168 0.596-0.344 1.228-0.656 1.916-0.93 4.862-1.958 7.858-0.088 11.394 1.03z m70.18 8.022l-0.408 4.072c-0.114 1.924-0.292 6.244 0.006 7.706 0.37 0.936 2.02 3.268 2 3.486 1.178 0.288 3.538 0.174 6.116-0.11a241.628 241.628 0 0 0-7.714-15.154z m-93.874 6.074c-5.558 0.604-11.354-2.264-16.314-2.208a6.894 6.894 0 0 0-0.532 0.036c0.056 1.93-0.106 6.79 0.334 9.274 1.09 0.342 2.626 0.618 3.286 0.594 2.63-0.196 9.53-4.054 11.54-5.684 0.624-0.59 1.178-1.27 1.686-2.012z" fill="#429F46" /><path d="M751.128 435.828s-21.702 3.23-28.412 0.902c-2.918-1.016-6.548-6.894-9.446-7.954-3.148-1.148-10.79-2.09-13.416 0-1.296 1.032-0.278 5.332-1.494 6.46-5.796 5.406-19.552 3.1-30.814-7.454-2.446-2.296 2.35-11.022 0-13.418-5.14-5.246-22.39-0.444-29.32 1.988-1.856 0.652-4.59 3.864-6.454 4.476-4.728 1.544-15.168-1.086-19.882 0.49-3.042 1.016-9.104 4.54-10.432 7.458-1.288 2.826 1.41 9.658 0 12.424-3.836 7.528-24.268 12.004-27.336 19.878-0.696 1.768 0.138 6.122 1.494 7.454 0.994 0.97 4.66-0.142 5.466 0.994 1.384 1.952 0.234 7.794-1.494 9.442-0.816 0.778-3.712-0.33-4.472 0.5-3.692 4.03-2.336 16.716-0.494 21.862 3.144 8.79 15.778 24.614 24.35 28.326 2.624 1.136 9.286 1.396 11.43-0.494 0.568-0.5-0.084-2.492 0.494-2.982 3.604-3.052 14.748 2.272 18.888 0 1.42-0.78 2.066-4.66 3.476-5.466 2.694-1.554 9.644-1.892 12.42-0.5 2.158 1.082 3.336 6.83 5.472 7.954 2.968 1.562 10.972-2.294 13.414 0 4.352 4.092-0.18 18.118 1.494 23.85 2.232 7.632 15.068 19.888 15.406 27.832 0.214 5.168-7.372 13.826-8.448 18.884-0.466 2.186-0.958 6.928 0 8.946 1.168 2.48 7.312 4.468 8.448 6.96 2.012 4.406-2.062 14.792-0.494 19.384 1.076 3.174 7.326 7.27 8.444 10.432 1.698 4.8 0 20.372 0 20.372h21.558c32.56-42.322 51.966-95.296 51.966-152.822a250.96 250.96 0 0 0-11.812-76.178z" fill="#3D693E" /><path d="M581.566 487.672c-0.142 3.574 0.622 8.728 1.328 10.702 2.288 6.396 13.294 20.502 19.356 23.136 0.244 0.078 0.606 0.138 1.028 0.18 0.48-0.774 1.114-1.512 1.946-2.218 6.674-5.644 13.194-2.098 19.264-1.53 0.912-1.85 1.88-3.398 4.39-4.842 5.268-3.038 15.292-3.476 20.74-0.746 3.912 1.956 4.81 4.426 6.194 7.206 4.952-0.692 9.616-2.634 14.766 2.204 8.902 8.356 2.372 19.946 3.918 27.784 2.57 8.802 15.208 17.206 15.75 29.92 0.404 9.46-6.844 14.464-8.632 21.092-0.138 0.654-0.302 1.842-0.352 2.876 3.088 2.13 6.084 2.914 8.2 7.558 3.656 8.022-0.842 14.418-0.508 19.438 2.634 3.976 6.702 5.332 8.74 11.088 1.232 3.476 1.406 9.148 1.2 14.518h7.706c30.98-41.764 47.554-91.932 47.554-144.04 0-22.508-3.116-44.868-9.276-66.482-8.562 0.926-19.476 1.438-25.032-0.49-5.594-1.934-6.666-5.664-9.598-8-0.586-0.214-1.718-0.436-2.892-0.572-0.352 1.776-1.094 3.43-3 5.208-12.25 11.416-32.53 2.17-42.82-7.478-4.82-4.516-3.632-8.938-2.702-13.464-5.42 0.188-14.436 2.758-16.818 3.518-2.768 1.81-3.848 3.738-7.504 4.934-7.216 2.358-14.706-0.696-19.834 0.476-1.062 0.358-3.39 1.63-4.774 2.698 0.234 4.306 2.048 7.618-0.614 12.836-4.558 8.938-17.184 12.59-23.758 16.58 0.948 0.6 1.846 1.452 2.712 2.666 3.98 5.612 2.304 16.212-2.58 20.886-1.382 1.324-2.71 2.016-4.098 2.358z" fill="#429F46" /><path d="M427.572 183.024a6.414 6.414 0 1 1 0 12.828 6.414 6.414 0 0 1 0-12.828z m207.7-34.44l0 0z m-120.478-111.92a5.59 5.59 0 0 1 5.59 5.584 5.59 5.59 0 0 1-11.174 0 5.588 5.588 0 0 1 5.584-5.584z m324.64 825.856c1.938 0 3.514 1.57 3.514 3.508a3.512 3.512 0 0 1-7.022 0c0-1.938 1.57-3.508 3.508-3.508z m-596.216-11.38a3.51 3.51 0 1 1 0 7.02 3.51 3.51 0 0 1 0-7.02z m373.56 127.528l0 0z m326.66-489.992c1.938 0 3.508 1.572 3.508 3.51a3.51 3.51 0 1 1-3.508-3.51z m-57.21-66.39a3.512 3.512 0 1 1-0.006 7.022 3.512 3.512 0 0 1 0.006-7.022z m20.524 146c1.938 0 3.508 1.57 3.508 3.514a3.508 3.508 0 1 1-7.018 0c0-1.944 1.572-3.514 3.51-3.514zM698.442 822.36a3.508 3.508 0 1 1 0 7.016 3.508 3.508 0 0 1 0-7.016zM168.782 213.128a3.51 3.51 0 1 1-3.508 3.51c0-1.938 1.57-3.51 3.508-3.51z m150.356-95.696a3.512 3.512 0 1 1-3.514 3.51 3.512 3.512 0 0 1 3.514-3.51zM41.608 495.7a3.512 3.512 0 0 1 0 7.024 3.514 3.514 0 0 1 0-7.024z m152.054 110.87a3.512 3.512 0 0 1 0 7.024 3.512 3.512 0 0 1 0-7.024z m14.79 127.102c1.938 0 3.508 1.572 3.508 3.514a3.508 3.508 0 1 1-7.022 0c0-1.942 1.574-3.514 3.514-3.514zM790.306 151.814a3.508 3.508 0 1 1 0.002 7.018 3.508 3.508 0 0 1-0.002-7.018z m42.968 60.188a13.712 13.712 0 1 1 0 27.422 13.712 13.712 0 0 1 0-27.422zM374.686 891.194a6.412 6.412 0 1 1 0.002 12.826 6.412 6.412 0 0 1-0.002-12.826z m514.496-222.746c13.802 0 24.992 11.192 24.992 24.992 0 13.802-11.188 24.996-24.992 24.996-13.802 0-24.99-11.192-24.99-24.996 0-13.798 11.188-24.992 24.99-24.992z m-690.658-277a16.166 16.166 0 1 1 0 32.334 16.166 16.166 0 0 1 0-32.334z m81.666-153.576a6.418 6.418 0 0 1 0 12.832 6.418 6.418 0 0 1 0-12.832z" fill="#FAFBFC" /></svg>