<?xml version="1.0" encoding="utf-8"?>
<!-- Generator: Adobe Illustrator 22.0.1, SVG Export Plug-In . SVG Version: 6.00 Build 0)  -->
<svg version="1.1" id="Layer_1" xmlns="http://www.w3.org/2000/svg" xmlns:xlink="http://www.w3.org/1999/xlink" x="0px" y="0px"
	 viewBox="0 0 140 48" style="enable-background:new 0 0 140 48;" xml:space="preserve">
<style type="text/css">
	.st0{fill:#231815;}
	.st1{fill:#FF0000;}
</style>
<g>
	<polygon class="st0" points="78.5,8.1 74.8,0.1 62.2,0.1 70,16.1 	"/>
	<path class="st0" d="M108.5,0.1H85.9L55.1,36.3h12.3l8.1-9.6l4.4,9.6H101l2.8-16.1l2.6,8.9l7.7-9.2L108.5,0.1z M91.2,33.4l-7.5-16
		l13-15L91.2,33.4z"/>
	<polygon class="st0" points="127.7,0.1 107.1,31.3 117.4,31.3 125.3,19.1 122.3,36.3 132.7,36.3 139.1,0.1 	"/>
</g>
<g>
	<path class="st1" d="M17.9,1.4c-0.1,1.6-0.4,3.4-0.2,5.1c0.2,2.4,1.7,3.6,3.7,4.4c0.6,0.2,1.4,0.6,2.2,0.4c0.4-0.1,0.6-0.3,0.8-0.5
		c0.7-0.4,1.5-0.8,2.5-0.9c1.5-0.2,2.9,0.2,3.9,0.5s2.4,0.7,3.3,1.2c0.5,0.3,0.8,0.7,1.1,1.2c0.5,0.8,0.6,2.1,1.7,2.3
		c0.2-1,0-2.2,0.1-3.4c0-1.1,0.2-2.1,0.4-3.1c0.3-1.4,0.7-2.8,1.1-4.2c0.1-0.2,0.3-1.3,0.7-1.1c0.2,0.1,0.1,0.5,0.1,0.7
		c0,0.9-0.1,1.5-0.2,2.4c-0.2,2.2-0.2,4.6,0.2,6.5c0.2,1,0.5,2,0.4,3.1c0,0.3-0.2,0.6-0.2,1c0,0.3,0,0.5-0.1,0.7
		c-0.1,0.3-0.4,0.7-0.6,1.1c-0.1,0.1-0.2,0.3-0.3,0.5s-0.3,0.3-0.3,0.5c0,0.3,0.7,1,1,1.1c1.5,0.4,3.1,0.6,4,1.5
		c0.5,0.5,0.9,1.2,1,2.1c0.1,0.8-0.2,1.5-0.5,2.2c-0.2,0.5-0.4,1.7-0.8,1.9c-0.3,0.2-0.7,0.1-1,0.2c-0.1,0.4-0.3,0.7-0.3,1.2
		c-0.3,0.4-0.6,0.6-0.9,0.9c0.1,0.8-0.4,1-1.1,1c-1.9,1.6-5.8,0.5-7.4-0.5c-0.8,0.6-1.7,1.1-1.6,2.6c0.7,0.4,1.2,0.8,2.1,1.1
		c1.1,0.4,2.5,0.2,3.2,0.8C36,36,36,36,36.1,36.1h5.6l15.8-18.3L48.8,0.1H18C18,0.5,17.9,1,17.9,1.4z"/>
	<path class="st1" d="M3.4,36c1-1,2.4-1.8,3.8-2.4c1.1-0.5,2.2-0.9,3.1-1.6c0.4-0.3,0.7-0.6,1.1-0.7c0.9-0.1,1.7,0.3,2.4,0.4
		c1.8,0.4,3.2-0.5,4.1-1.5c0.5-0.5,1-0.9,1.3-1.6c0.3-0.8,0.2-1.8,0.2-2.9c0-2.1,0.8-3.5,0.8-5.4c0-1-0.2-1.9-0.1-3
		c-1-0.5-2.2-1-3.1-2c-0.8-0.9-1.7-2.6-1.5-4c-0.6-0.9-1.2-2.2-1.2-3.7s0.4-2.7,0.8-4c0.3-1.2,0.7-2.4,1.1-3.6H9.4L1.6,36.2h1.6
		C3.3,36.1,3.4,36,3.4,36z"/>
</g>
</svg>
