<svg xmlns="http://www.w3.org/2000/svg" viewBox="0 0 320 328.33"><defs><style>.cls-1{fill:#c9caca;}.cls-2{fill:#efefef;}.cls-3{fill:#fff;}.cls-4{opacity:0.3;}.cls-5{fill:#b5b5b6;}</style></defs><title>资源 3</title><g id="图层_2" data-name="图层 2"><g id="nopic"><ellipse id="css2" class="cls-1" cx="185.95" cy="131.75" rx="124.87" ry="127.04"/><ellipse id="逐浪CMS" class="cls-2" cx="133" cy="131.75" rx="124.87" ry="127.04"/><path id="z01.com" class="cls-3" d="M8.7,144c76.89,5,167.55-15.66,172.19-17.87C126.19,123.08,71.57,108.72,17,84.8c101.71,22.71,185,25.74,228.48-8.22,9,17.82,12.36,29.34,12.12,47.22-50.09,36-101.13,37.25-173.37,43.1,99.37,7.82,96.55,9.14,168.64,3.58C170.62,212.08,54.59,199.47,8.7,144Z"/><g id="逐浪拉勾体"><path class="cls-1" d="M48,292H35v-4H48v-3.75H36.8v-4q2-3.25,4.25-7h-5.5v-3.75H43q.75-1.75,1.5-3.25a17.56,17.56,0,0,1,1.25-2.5h4.5a22.73,22.73,0,0,0-1.25,3c-.34.84-.75,1.75-1.25,2.75H63.3v3.75H45.8l-4,7H48v-4.5h4.5v4.5h10v4h-10V288H62.8v4H52.55v5.75H48Zm-6.5,7.75H85V326h-4.5l-34.5.25h-4.5ZM46,314.46l8-4a56.27,56.27,0,0,1,17.5-4.5,82.35,82.35,0,0,1,9,0v-2.25H46Zm34.5-4a38,38,0,0,0-7.5.25,69.5,69.5,0,0,0-17.25,4,95.34,95.34,0,0,0-9.75,4v2.75h34.5ZM82.3,278a30.44,30.44,0,0,1,11,1.5v3.25L93,283h0a39.91,39.91,0,0,0-7.75-1.25v15.5H80.8V282a33.44,33.44,0,0,0-10,2h-.25a26,26,0,0,1-6,14.5Q63,297,61,295.21q5.5-5.75,5.5-16.75v-10a181.48,181.48,0,0,0,25.25-2.25l1.5,4.25q-12,1.25-22.25,1.75V280l5.5-2Z"/><path class="cls-1" d="M159.3,287.46v5H127q-5,21.5-26.75,33.25a41.35,41.35,0,0,0-3.5-4.5q19-9.5,24.75-28.75H97.8v-5h25a98.31,98.31,0,0,0,1.5-14.75H102.55v-5h52v5H129.8A124.33,124.33,0,0,1,128,287.46Zm-23.75,26.25q0,5,4.75,5h19v4.5H138.8q-8.5,0-8.5-8.75V297h5.25Z"/><path class="cls-1" d="M214,264q6.75,0,6.75,6.75v49q0,6.75-6.75,6.75H169.3q-6.75,0-6.75-6.75v-49q0-6.75,6.75-6.75Zm1,6.75c0-1.16-.5-1.75-1.5-1.75H169.8c-1,0-1.5.59-1.5,1.75v49c0,1.16.5,1.75,1.5,1.75h43.75c1,0,1.5-.59,1.5-1.75Zm-5.5,9a44.78,44.78,0,0,1-12.25,10.5,76.18,76.18,0,0,0,17,3.75,38.68,38.68,0,0,0-2.25,4.75,103.21,103.21,0,0,1-19.75-6A129.19,129.19,0,0,1,171,300a34.8,34.8,0,0,0-2.25-4.25,121.77,121.77,0,0,0,19-5.5,36.58,36.58,0,0,1-8-7.25,58,58,0,0,1-6.75,5.75q-1.25-1.25-3.25-3a58.16,58.16,0,0,0,14.75-15.25l4.5,2q-1.25,1.75-2.75,3.5h23.25ZM179,301h28.5v4H179Zm0,11h28.5v4H179Zm13.25-23.75A34.66,34.66,0,0,0,203,280H182.8a.22.22,0,0,1-.25.25A35.17,35.17,0,0,0,192.3,288.21Z"/><path class="cls-1" d="M243.3,287.21q0,4-.25,11.25a58.49,58.49,0,0,1,14-2.25q16.25-.25,25.5,2.25v27.75H277v-23q-4.75-1.25-19.5-1.75a40.33,40.33,0,0,0-14.75,1.75,39.47,39.47,0,0,1-4.25,14.5,36.35,36.35,0,0,1-6.5,8.75,48.7,48.7,0,0,0-4-4.5,34.21,34.21,0,0,0,7.75-12.5q2-5.5,2-18V264.21h5.5v18.25h17V264h5.5v18.5h17.5v4.75Z"/></g><text></text><g class="cls-4"><polygon class="cls-5" points="11.71 127.01 9.32 121.91 14.64 125.62 16.13 124.91 12.76 117.78 11.37 118.44 13.7 123.42 8.51 119.79 6.94 120.54 10.31 127.67 11.71 127.01"/><path class="cls-5" d="M17.28,117.73a3,3,0,0,0-1.57,1.57,3.08,3.08,0,0,0,4.2,4,3,3,0,0,0,1.57-1.57,3.46,3.46,0,0,0-2-4.22A3,3,0,0,0,17.28,117.73ZM19.14,119a2.78,2.78,0,0,1,1,2.12,1.39,1.39,0,0,1-2.08,1,2.32,2.32,0,0,1-.73-.95,2.35,2.35,0,0,1-.26-1.18,1.39,1.39,0,0,1,2.08-1Z"/><rect class="cls-5" x="24.52" y="112.25" width="1.65" height="7.89" transform="translate(-47.24 21.99) rotate(-25.31)"/><path class="cls-5" d="M33.76,110.5a2.11,2.11,0,0,0-1.54.16,1.65,1.65,0,0,0-.81.78,2.71,2.71,0,0,0-.2.73,2.29,2.29,0,0,0-.91-.36,2.09,2.09,0,0,0-1.85,1,2.1,2.1,0,0,0-.2.81l-.37-.78-1.33.63,2.5,5.29,1.39-.66-1.52-3.22a1.39,1.39,0,0,1-.15-.85.85.85,0,0,1,.53-.59.81.81,0,0,1,.91,0,1.91,1.91,0,0,1,.43.66l1.5,3.18,1.39-.66L32,113.51a1.41,1.41,0,0,1-.15-.9,1,1,0,0,1,.58-.63.75.75,0,0,1,.67,0,1.38,1.38,0,0,1,.58.7l1.52,3.21,1.39-.66-1.73-3.66A1.84,1.84,0,0,0,33.76,110.5Z"/><path class="cls-5" d="M42.06,112.13a1.75,1.75,0,0,1-.37-.57l-1.35-2.86a1.45,1.45,0,0,0-1.37-.9,3.29,3.29,0,0,0-1.46.36,3.36,3.36,0,0,0-1.38,1,2.08,2.08,0,0,0-.11,1.93l1.34-.64a1,1,0,0,1-.05-.57.92.92,0,0,1,.56-.57,1.66,1.66,0,0,1,.64-.19.58.58,0,0,1,.57.38.4.4,0,0,1,0,.39.85.85,0,0,1-.28.25l-1.16.78a2.1,2.1,0,0,0-.88,1.05,1.75,1.75,0,0,0,.13,1.37,1.6,1.6,0,0,0,1.07.94,1.86,1.86,0,0,0,1.27-.16,2.43,2.43,0,0,0,1-.78,2.86,2.86,0,0,0,.38-.8,3,3,0,0,0,.42.57l1.5-.71-.1-.21A.42.42,0,0,1,42.06,112.13Zm-2.15.14a1.52,1.52,0,0,1-.73.7.75.75,0,0,1-.49.06.65.65,0,0,1-.45-.39.73.73,0,0,1,0-.72,1.8,1.8,0,0,1,.54-.5,4.76,4.76,0,0,0,.59-.46,1.23,1.23,0,0,0,.25-.31l.32.68A1,1,0,0,1,39.91,112.27Z"/><path class="cls-5" d="M45.78,104.42l-1.33.63.35.8a1.73,1.73,0,0,0-2-.19,2.19,2.19,0,0,0-1.22,1.4,3.91,3.91,0,0,0,2,4.11,2.3,2.3,0,0,0,1.93-.1,1.81,1.81,0,0,0,.82-.69,1.73,1.73,0,0,0,.22-.77h0l.3.64a1.14,1.14,0,0,1-.53,1.74,1.49,1.49,0,0,1-.86.2.71.71,0,0,1-.37-.27l-1.51.71a1.5,1.5,0,0,0,1.32.87,3.4,3.4,0,0,0,1.74-.37q1.71-.81,1.9-2a3,3,0,0,0-.38-1.73Zm-.61,5.36a1,1,0,0,1-1.09-.08,2,2,0,0,1-.7-.87,2.16,2.16,0,0,1-.25-1.44,1,1,0,0,1,.57-.68,1.15,1.15,0,0,1,1.11,0,2,2,0,0,1,.81,1,2.21,2.21,0,0,1,.26,1.16A1.13,1.13,0,0,1,45.17,109.78Z"/><path class="cls-5" d="M51.88,106.11a.78.78,0,0,1-.13.58,1.2,1.2,0,0,1-.49.42,1.31,1.31,0,0,1-1,.12,1.78,1.78,0,0,1-.84-.82L53,104.69l-.12-.25a3.28,3.28,0,0,0-2-2,2.66,2.66,0,0,0-1.89.22,2.52,2.52,0,0,0-1.62,2.11,3.39,3.39,0,0,0,.34,1.76,3.34,3.34,0,0,0,1.83,1.91,2.89,2.89,0,0,0,2.18-.26,2.78,2.78,0,0,0,1.2-1,2.47,2.47,0,0,0,.33-1.77ZM49,104.5a1.09,1.09,0,0,1,.62-.65,1.12,1.12,0,0,1,.79-.08,1.34,1.34,0,0,1,.81.69l-2.16,1A1.55,1.55,0,0,1,49,104.5Z"/><polygon class="cls-5" points="80.43 94.5 78.05 89.4 83.37 93.11 84.86 92.41 81.49 85.28 80.09 85.94 82.42 90.91 77.24 87.28 75.67 88.03 79.04 95.16 80.43 94.5"/><path class="cls-5" d="M86.43,91a3.29,3.29,0,0,0,3.78-1.79,3.47,3.47,0,0,0-2-4.22,3.29,3.29,0,0,0-3.78,1.79,3.46,3.46,0,0,0,2,4.22Zm.13-4.61a1.23,1.23,0,0,1,1.31.06,2.33,2.33,0,0,1,.73.95,2.36,2.36,0,0,1,.26,1.18,1.39,1.39,0,0,1-2.08,1,2.79,2.79,0,0,1-1-2.12A1.22,1.22,0,0,1,86.56,86.39Z"/><rect class="cls-5" x="93.25" y="79.75" width="1.65" height="7.89" transform="translate(-26.75 48.25) rotate(-25.31)"/><path class="cls-5" d="M99.17,85.64l-1.52-3.22a1.38,1.38,0,0,1-.15-.85A.85.85,0,0,1,98,81a.81.81,0,0,1,.91,0,1.91,1.91,0,0,1,.43.66l1.5,3.18,1.39-.66L100.76,81a1.41,1.41,0,0,1-.15-.9,1,1,0,0,1,.58-.63.76.76,0,0,1,.67,0,1.38,1.38,0,0,1,.58.7L104,83.37l1.39-.66-1.73-3.66A1.84,1.84,0,0,0,102.49,78a2.12,2.12,0,0,0-1.54.16,1.65,1.65,0,0,0-.81.78,2.72,2.72,0,0,0-.2.73,2.3,2.3,0,0,0-.91-.36,2.09,2.09,0,0,0-1.85,1,2.1,2.1,0,0,0-.2.81l-.37-.78L95.27,81l2.5,5.29Z"/><path class="cls-5" d="M107.51,77.68l-1.16.78a2.09,2.09,0,0,0-.88,1.05,1.76,1.76,0,0,0,.13,1.37,1.6,1.6,0,0,0,1.07.94,1.87,1.87,0,0,0,1.27-.16,2.42,2.42,0,0,0,1-.78,2.86,2.86,0,0,0,.38-.8,3.05,3.05,0,0,0,.42.57l1.5-.71-.1-.21a.43.43,0,0,1-.33-.11,1.75,1.75,0,0,1-.37-.57l-1.35-2.86a1.45,1.45,0,0,0-1.37-.9,3.26,3.26,0,0,0-1.46.36,3.35,3.35,0,0,0-1.38,1,2.08,2.08,0,0,0-.11,1.93l1.34-.63a1,1,0,0,1-.05-.57.92.92,0,0,1,.56-.57,1.68,1.68,0,0,1,.64-.19.58.58,0,0,1,.57.38.4.4,0,0,1,0,.39A.85.85,0,0,1,107.51,77.68Zm.58.78a1.21,1.21,0,0,0,.25-.3l.32.68a1,1,0,0,1,0,.93,1.52,1.52,0,0,1-.73.7.75.75,0,0,1-.49.06.65.65,0,0,1-.45-.39.73.73,0,0,1,0-.72,1.79,1.79,0,0,1,.54-.5A4.67,4.67,0,0,0,108.09,78.46Z"/><path class="cls-5" d="M117.26,78.66a3,3,0,0,0-.38-1.73l-2.37-5-1.33.63.35.79a1.74,1.74,0,0,0-2-.19,2.19,2.19,0,0,0-1.22,1.41,3.91,3.91,0,0,0,2,4.11,2.29,2.29,0,0,0,1.93-.1,1.81,1.81,0,0,0,.82-.69,1.73,1.73,0,0,0,.22-.77h0l.3.64a1.14,1.14,0,0,1-.53,1.73,1.49,1.49,0,0,1-.86.2.71.71,0,0,1-.37-.27l-1.51.71a1.5,1.5,0,0,0,1.32.87,3.41,3.41,0,0,0,1.74-.37Q117.06,79.82,117.26,78.66Zm-3.36-1.38a1,1,0,0,1-1.09-.08,2,2,0,0,1-.7-.87,2.16,2.16,0,0,1-.25-1.44,1,1,0,0,1,.57-.68,1.15,1.15,0,0,1,1.11,0,2,2,0,0,1,.81,1,2.21,2.21,0,0,1,.26,1.16A1.13,1.13,0,0,1,113.9,77.28Z"/><path class="cls-5" d="M121.71,74.7a2.47,2.47,0,0,0,.33-1.77l-1.43.68a.78.78,0,0,1-.13.59,1.19,1.19,0,0,1-.49.41,1.31,1.31,0,0,1-1,.12,1.79,1.79,0,0,1-.84-.82l3.63-1.72-.12-.25a3.28,3.28,0,0,0-2-2,2.67,2.67,0,0,0-1.89.22,2.52,2.52,0,0,0-1.62,2.11,3.39,3.39,0,0,0,.34,1.76A3.33,3.33,0,0,0,118.34,76a2.89,2.89,0,0,0,2.18-.26A2.8,2.8,0,0,0,121.71,74.7Zm-4-2.71a1.09,1.09,0,0,1,.62-.65,1.12,1.12,0,0,1,.79-.08,1.34,1.34,0,0,1,.81.69l-2.16,1A1.55,1.55,0,0,1,117.68,72Z"/><polygon class="cls-5" points="148.79 59.53 143.6 55.9 142.03 56.64 145.4 63.77 146.8 63.12 144.41 58.02 149.73 61.73 151.22 61.02 147.85 53.89 146.46 54.55 148.79 59.53"/><path class="cls-5" d="M152.8,59.62a3.29,3.29,0,0,0,3.78-1.79,3.47,3.47,0,0,0-2-4.22,3.29,3.29,0,0,0-3.78,1.79,3.46,3.46,0,0,0,2,4.22Zm.13-4.61a1.23,1.23,0,0,1,1.31.06A2.33,2.33,0,0,1,155,56a2.36,2.36,0,0,1,.26,1.18,1.39,1.39,0,0,1-2.08,1,2.79,2.79,0,0,1-1-2.12A1.22,1.22,0,0,1,152.93,55Z"/><rect class="cls-5" x="159.61" y="48.36" width="1.65" height="7.89" transform="translate(-6.96 73.61) rotate(-25.31)"/><path class="cls-5" d="M165.53,54.25,164,51a1.38,1.38,0,0,1-.15-.85.85.85,0,0,1,.53-.59.81.81,0,0,1,.91,0,1.91,1.91,0,0,1,.43.66l1.5,3.18,1.39-.66-1.5-3.17a1.41,1.41,0,0,1-.15-.9,1,1,0,0,1,.58-.63.76.76,0,0,1,.67,0,1.38,1.38,0,0,1,.58.7L170.32,52l1.39-.66L170,47.67a1.84,1.84,0,0,0-1.13-1.06,2.12,2.12,0,0,0-1.54.16,1.65,1.65,0,0,0-.81.78,2.72,2.72,0,0,0-.2.73,2.3,2.3,0,0,0-.91-.36,2.09,2.09,0,0,0-1.85,1,2.1,2.1,0,0,0-.2.81L163,49l-1.33.63,2.5,5.29Z"/><path class="cls-5" d="M172.45,46.6a1,1,0,0,1-.05-.57.92.92,0,0,1,.56-.57,1.68,1.68,0,0,1,.64-.19.58.58,0,0,1,.57.38.4.4,0,0,1,0,.39.85.85,0,0,1-.28.25l-1.16.78a2.09,2.09,0,0,0-.88,1.05A1.76,1.76,0,0,0,172,49.5a1.6,1.6,0,0,0,1.07.94,1.87,1.87,0,0,0,1.27-.16,2.42,2.42,0,0,0,1-.78,2.86,2.86,0,0,0,.38-.8,3.05,3.05,0,0,0,.42.57l1.5-.71-.1-.21a.43.43,0,0,1-.33-.11,1.75,1.75,0,0,1-.37-.57l-1.35-2.86a1.45,1.45,0,0,0-1.37-.9,3.26,3.26,0,0,0-1.46.36,3.35,3.35,0,0,0-1.38,1,2.08,2.08,0,0,0-.11,1.93Zm2.25.17.32.68a1,1,0,0,1,0,.93,1.52,1.52,0,0,1-.73.7.75.75,0,0,1-.49.06.65.65,0,0,1-.45-.39.73.73,0,0,1,0-.72,1.79,1.79,0,0,1,.54-.5,4.67,4.67,0,0,0,.59-.46A1.21,1.21,0,0,0,174.69,46.77Z"/><path class="cls-5" d="M180.87,40.53l-1.33.63.35.79a1.74,1.74,0,0,0-2-.19,2.19,2.19,0,0,0-1.22,1.41,3.91,3.91,0,0,0,2,4.11,2.29,2.29,0,0,0,1.93-.1,1.81,1.81,0,0,0,.82-.69,1.73,1.73,0,0,0,.22-.77h0l.3.64a1.14,1.14,0,0,1-.53,1.73,1.49,1.49,0,0,1-.86.2.71.71,0,0,1-.37-.27l-1.51.71a1.5,1.5,0,0,0,1.32.87,3.41,3.41,0,0,0,1.74-.37q1.71-.81,1.9-2a3,3,0,0,0-.38-1.73Zm-.61,5.36a1,1,0,0,1-1.09-.08,2,2,0,0,1-.7-.87,2.16,2.16,0,0,1-.25-1.44,1,1,0,0,1,.57-.68,1.15,1.15,0,0,1,1.11,0,2,2,0,0,1,.81,1A2.21,2.21,0,0,1,181,45,1.13,1.13,0,0,1,180.26,45.89Z"/><path class="cls-5" d="M187,42.22a.78.78,0,0,1-.13.59,1.19,1.19,0,0,1-.49.41,1.31,1.31,0,0,1-1,.12,1.79,1.79,0,0,1-.84-.82l3.63-1.72-.12-.25a3.28,3.28,0,0,0-2-2,2.67,2.67,0,0,0-1.89.22,2.52,2.52,0,0,0-1.62,2.11,3.39,3.39,0,0,0,.34,1.76,3.33,3.33,0,0,0,1.83,1.91,2.89,2.89,0,0,0,2.18-.26,2.8,2.8,0,0,0,1.2-1,2.47,2.47,0,0,0,.33-1.77ZM184,40.61a1.09,1.09,0,0,1,.62-.65,1.12,1.12,0,0,1,.79-.08,1.34,1.34,0,0,1,.81.69l-2.16,1A1.55,1.55,0,0,1,184,40.61Z"/><polygon class="cls-5" points="4.76 188.01 2.38 182.91 7.7 186.62 9.19 185.91 5.82 178.78 4.43 179.44 6.75 184.42 1.57 180.79 0 181.54 3.37 188.67 4.76 188.01"/><path class="cls-5" d="M14.36,180.23a3,3,0,0,0-1.81-1.72,3,3,0,0,0-2.21.22,3,3,0,0,0-1.57,1.57A3,3,0,0,0,9,182.79a3,3,0,0,0,1.81,1.72,3,3,0,0,0,2.21-.22,3,3,0,0,0,1.57-1.57A3,3,0,0,0,14.36,180.23Zm-1.94,2.89a1.23,1.23,0,0,1-1.31-.06,2.32,2.32,0,0,1-.73-.95,2.35,2.35,0,0,1-.26-1.18,1.22,1.22,0,0,1,.78-1,1.23,1.23,0,0,1,1.31.06,2.78,2.78,0,0,1,1,2.12A1.22,1.22,0,0,1,12.42,183.12Z"/><rect class="cls-5" x="17.58" y="173.25" width="1.65" height="7.89" transform="translate(-74.01 24.89) rotate(-25.32)"/><path class="cls-5" d="M25.52,173a.75.75,0,0,1,.67,0,1.38,1.38,0,0,1,.58.7l1.52,3.21,1.39-.66L28,172.56a1.84,1.84,0,0,0-1.13-1.06,2.11,2.11,0,0,0-1.54.16,1.65,1.65,0,0,0-.81.78,2.71,2.71,0,0,0-.2.73,2.29,2.29,0,0,0-.91-.36,2.09,2.09,0,0,0-1.85,1,2.1,2.1,0,0,0-.2.81l-.37-.78-1.33.63,2.5,5.29,1.39-.66L22,175.93a1.39,1.39,0,0,1-.15-.85.85.85,0,0,1,.53-.59.81.81,0,0,1,.91,0,1.91,1.91,0,0,1,.43.66l1.5,3.18,1.39-.66-1.5-3.17a1.41,1.41,0,0,1-.15-.9A1,1,0,0,1,25.52,173Z"/><path class="cls-5" d="M31.84,171.19l-1.16.78A2.1,2.1,0,0,0,29.8,173a1.75,1.75,0,0,0,.13,1.37,1.6,1.6,0,0,0,1.07.94,1.86,1.86,0,0,0,1.27-.16,2.43,2.43,0,0,0,1-.78,2.86,2.86,0,0,0,.38-.8,3,3,0,0,0,.42.57l1.5-.71-.1-.21a.42.42,0,0,1-.33-.11,1.75,1.75,0,0,1-.37-.57L33.4,169.7a1.45,1.45,0,0,0-1.37-.9,3.29,3.29,0,0,0-1.46.36,3.36,3.36,0,0,0-1.38,1,2.08,2.08,0,0,0-.11,1.93l1.34-.64a1,1,0,0,1-.05-.57.92.92,0,0,1,.56-.57,1.66,1.66,0,0,1,.64-.19.58.58,0,0,1,.57.38.4.4,0,0,1,0,.39A.85.85,0,0,1,31.84,171.19Zm.58.78a1.23,1.23,0,0,0,.25-.31l.32.68a1,1,0,0,1,0,.93,1.52,1.52,0,0,1-.73.7.75.75,0,0,1-.49.06.65.65,0,0,1-.45-.39.73.73,0,0,1,0-.72,1.8,1.8,0,0,1,.54-.5A4.76,4.76,0,0,0,32.42,172Z"/><path class="cls-5" d="M35.87,166.65a2.19,2.19,0,0,0-1.22,1.4,3.91,3.91,0,0,0,2,4.11,2.3,2.3,0,0,0,1.93-.1,1.81,1.81,0,0,0,.82-.69,1.73,1.73,0,0,0,.22-.77h0l.3.64a1.14,1.14,0,0,1-.53,1.74,1.49,1.49,0,0,1-.86.2.71.71,0,0,1-.37-.27l-1.51.71a1.5,1.5,0,0,0,1.32.87,3.4,3.4,0,0,0,1.74-.37q1.71-.81,1.9-2a3,3,0,0,0-.38-1.73l-2.37-5L37.5,166l.35.8a1.73,1.73,0,0,0-2-.19Zm2,1.09a2,2,0,0,1,.81,1,2.21,2.21,0,0,1,.26,1.16,1.13,1.13,0,0,1-.71.93,1,1,0,0,1-1.09-.08,2,2,0,0,1-.7-.87,2.16,2.16,0,0,1-.25-1.44,1,1,0,0,1,.57-.68A1.15,1.15,0,0,1,37.87,167.74Z"/><path class="cls-5" d="M46,165.44a3.28,3.28,0,0,0-2-2,2.66,2.66,0,0,0-1.89.22,2.52,2.52,0,0,0-1.62,2.11,3.39,3.39,0,0,0,.34,1.76,3.34,3.34,0,0,0,1.83,1.91,2.89,2.89,0,0,0,2.18-.26,2.78,2.78,0,0,0,1.2-1,2.47,2.47,0,0,0,.33-1.77l-1.43.68a.78.78,0,0,1-.13.58,1.2,1.2,0,0,1-.49.42,1.31,1.31,0,0,1-1,.12,1.78,1.78,0,0,1-.84-.82l3.63-1.72Zm-3.9,1a1.55,1.55,0,0,1-.06-1,1.09,1.09,0,0,1,.62-.65,1.12,1.12,0,0,1,.79-.08,1.34,1.34,0,0,1,.81.69Z"/><polygon class="cls-5" points="73.49 155.5 71.11 150.4 76.43 154.12 77.92 153.41 74.55 146.28 73.15 146.94 75.48 151.91 70.3 148.28 68.73 149.03 72.1 156.16 73.49 155.5"/><path class="cls-5" d="M83.09,147.73A3,3,0,0,0,81.28,146a3.29,3.29,0,0,0-3.78,1.79,3.46,3.46,0,0,0,2,4.22,3.29,3.29,0,0,0,3.78-1.79A3,3,0,0,0,83.09,147.73Zm-1.94,2.89a1.23,1.23,0,0,1-1.31-.06,2.79,2.79,0,0,1-1-2.12,1.39,1.39,0,0,1,2.08-1,2.33,2.33,0,0,1,.73.95,2.36,2.36,0,0,1,.26,1.18A1.22,1.22,0,0,1,81.15,150.62Z"/><rect class="cls-5" x="86.31" y="140.75" width="1.65" height="7.89" transform="translate(-53.5 51.14) rotate(-25.31)"/><path class="cls-5" d="M90,142.16l-.37-.78-1.33.63,2.5,5.29,1.39-.66-1.52-3.22a1.38,1.38,0,0,1-.15-.85.85.85,0,0,1,.53-.59.81.81,0,0,1,.91,0,1.91,1.91,0,0,1,.43.66l1.5,3.18,1.39-.66L93.82,142a1.41,1.41,0,0,1-.15-.9,1,1,0,0,1,.58-.63.76.76,0,0,1,.67,0,1.38,1.38,0,0,1,.58.7L97,144.37l1.39-.66-1.73-3.66A1.84,1.84,0,0,0,95.55,139a2.12,2.12,0,0,0-1.54.16,1.65,1.65,0,0,0-.81.78,2.72,2.72,0,0,0-.2.73,2.3,2.3,0,0,0-.91-.36,2.09,2.09,0,0,0-1.85,1A2.1,2.1,0,0,0,90,142.16Z"/><path class="cls-5" d="M100.57,138.68l-1.16.78a2.09,2.09,0,0,0-.88,1.05,1.76,1.76,0,0,0,.13,1.37,1.6,1.6,0,0,0,1.07.94,1.87,1.87,0,0,0,1.27-.16,2.42,2.42,0,0,0,1-.78,2.86,2.86,0,0,0,.38-.8,3.05,3.05,0,0,0,.42.57l1.5-.71-.1-.21a.43.43,0,0,1-.33-.11,1.75,1.75,0,0,1-.37-.57l-1.35-2.86a1.45,1.45,0,0,0-1.37-.9,3.26,3.26,0,0,0-1.46.36,3.35,3.35,0,0,0-1.38,1,2.08,2.08,0,0,0-.11,1.93l1.34-.63a1,1,0,0,1-.05-.57.92.92,0,0,1,.56-.57,1.68,1.68,0,0,1,.64-.19.58.58,0,0,1,.57.38.4.4,0,0,1,0,.39A.85.85,0,0,1,100.57,138.68Zm.58.78a1.21,1.21,0,0,0,.25-.3l.32.68a1,1,0,0,1,0,.93,1.52,1.52,0,0,1-.73.7.75.75,0,0,1-.49.06.65.65,0,0,1-.45-.39.73.73,0,0,1,0-.72,1.79,1.79,0,0,1,.54-.5A4.67,4.67,0,0,0,101.15,139.46Z"/><path class="cls-5" d="M104.6,134.15a2.19,2.19,0,0,0-1.22,1.41,3.91,3.91,0,0,0,2,4.11,2.29,2.29,0,0,0,1.93-.1,1.81,1.81,0,0,0,.82-.69,1.73,1.73,0,0,0,.22-.77h0l.3.64a1.14,1.14,0,0,1-.53,1.73,1.49,1.49,0,0,1-.86.2.71.71,0,0,1-.37-.27l-1.51.71a1.5,1.5,0,0,0,1.32.87,3.41,3.41,0,0,0,1.74-.37q1.71-.81,1.9-2a3,3,0,0,0-.38-1.73l-2.37-5-1.33.63.35.79a1.74,1.74,0,0,0-2-.19Zm2,1.09a2,2,0,0,1,.81,1,2.21,2.21,0,0,1,.26,1.16,1.13,1.13,0,0,1-.71.93,1,1,0,0,1-1.09-.08,2,2,0,0,1-.7-.87,2.16,2.16,0,0,1-.25-1.44,1,1,0,0,1,.57-.68A1.15,1.15,0,0,1,106.6,135.23Z"/><path class="cls-5" d="M114.7,132.93a3.28,3.28,0,0,0-2-2,2.67,2.67,0,0,0-1.89.22,2.52,2.52,0,0,0-1.62,2.11,3.39,3.39,0,0,0,.34,1.76A3.33,3.33,0,0,0,111.4,137a2.89,2.89,0,0,0,2.18-.26,2.8,2.8,0,0,0,1.2-1,2.47,2.47,0,0,0,.33-1.77l-1.43.68a.78.78,0,0,1-.13.59,1.19,1.19,0,0,1-.49.41,1.31,1.31,0,0,1-1,.12,1.79,1.79,0,0,1-.84-.82l3.63-1.72Zm-3.9,1a1.55,1.55,0,0,1-.06-1,1.09,1.09,0,0,1,.62-.65,1.12,1.12,0,0,1,.79-.08,1.34,1.34,0,0,1,.81.69Z"/><polygon class="cls-5" points="135.09 117.64 138.46 124.77 139.86 124.11 137.47 119.02 142.79 122.73 144.28 122.02 140.91 114.89 139.52 115.55 141.85 120.53 136.66 116.9 135.09 117.64"/><path class="cls-5" d="M149.45,116.34a3,3,0,0,0-1.81-1.72,3.3,3.3,0,0,0-3.78,1.79,3.46,3.46,0,0,0,2,4.22,3.29,3.29,0,0,0,3.78-1.79A3,3,0,0,0,149.45,116.34Zm-1.94,2.89a1.23,1.23,0,0,1-1.31-.06,2.33,2.33,0,0,1-.73-.95,2.36,2.36,0,0,1-.26-1.18,1.39,1.39,0,0,1,2.08-1,2.33,2.33,0,0,1,.73.95,2.36,2.36,0,0,1,.26,1.18A1.22,1.22,0,0,1,147.51,119.23Z"/><rect class="cls-5" x="152.67" y="109.36" width="1.65" height="7.89" transform="translate(-33.71 76.52) rotate(-25.32)"/><path class="cls-5" d="M156.4,110.77,156,110l-1.33.63,2.5,5.29,1.39-.66L157.07,112a1.37,1.37,0,0,1-.15-.85.85.85,0,0,1,.53-.59.81.81,0,0,1,.91,0,1.89,1.89,0,0,1,.44.66l1.5,3.18,1.39-.66-1.5-3.17a1.42,1.42,0,0,1-.15-.9,1,1,0,0,1,.59-.63.76.76,0,0,1,.67,0,1.39,1.39,0,0,1,.58.7l1.52,3.21,1.39-.66L163,108.67a1.84,1.84,0,0,0-1.13-1.06,2.12,2.12,0,0,0-1.54.16,1.65,1.65,0,0,0-.81.78,2.72,2.72,0,0,0-.2.73,2.3,2.3,0,0,0-.91-.36,2.09,2.09,0,0,0-1.85,1A2.11,2.11,0,0,0,156.4,110.77Z"/><path class="cls-5" d="M166.93,107.29l-1.16.78a2.1,2.1,0,0,0-.88,1.05,1.77,1.77,0,0,0,.13,1.37,1.6,1.6,0,0,0,1.07.94,1.87,1.87,0,0,0,1.27-.16,2.42,2.42,0,0,0,1-.78,2.86,2.86,0,0,0,.38-.8,3.05,3.05,0,0,0,.42.57l1.5-.71-.1-.21a.43.43,0,0,1-.33-.11,1.73,1.73,0,0,1-.37-.57l-1.35-2.86a1.46,1.46,0,0,0-1.37-.9,3.27,3.27,0,0,0-1.46.36,3.35,3.35,0,0,0-1.38,1,2.08,2.08,0,0,0-.11,1.93l1.34-.63a1,1,0,0,1-.05-.57.92.92,0,0,1,.56-.57,1.68,1.68,0,0,1,.64-.19.58.58,0,0,1,.57.38.4.4,0,0,1,0,.39A.85.85,0,0,1,166.93,107.29Zm.58.78a1.2,1.2,0,0,0,.24-.3l.32.68a1,1,0,0,1,0,.93,1.52,1.52,0,0,1-.73.7.75.75,0,0,1-.49.06.65.65,0,0,1-.45-.39.72.72,0,0,1,0-.72,1.78,1.78,0,0,1,.54-.5A4.67,4.67,0,0,0,167.51,108.07Z"/><path class="cls-5" d="M171,102.76a2.19,2.19,0,0,0-1.22,1.41,3.91,3.91,0,0,0,2,4.11,2.29,2.29,0,0,0,1.93-.1,1.8,1.8,0,0,0,.82-.69,1.7,1.7,0,0,0,.22-.77h0l.3.64a1.13,1.13,0,0,1-.53,1.73,1.49,1.49,0,0,1-.86.2.7.7,0,0,1-.37-.27l-1.51.71a1.5,1.5,0,0,0,1.32.87,3.41,3.41,0,0,0,1.74-.37q1.71-.81,1.9-2a3,3,0,0,0-.38-1.73l-2.37-5-1.33.63.35.79a1.73,1.73,0,0,0-2-.19Zm2,1.09a2,2,0,0,1,.81,1A2.21,2.21,0,0,1,174,106a1.13,1.13,0,0,1-.71.93,1,1,0,0,1-1.09-.08,2,2,0,0,1-.7-.87,2.14,2.14,0,0,1-.25-1.44,1,1,0,0,1,.57-.68A1.15,1.15,0,0,1,173,103.85Z"/><path class="cls-5" d="M181.07,101.55a3.28,3.28,0,0,0-2-2,2.67,2.67,0,0,0-1.89.22,2.53,2.53,0,0,0-1.62,2.11,3.4,3.4,0,0,0,.35,1.76,3.33,3.33,0,0,0,1.83,1.91,2.89,2.89,0,0,0,2.18-.26,2.8,2.8,0,0,0,1.2-1,2.48,2.48,0,0,0,.33-1.77l-1.43.68a.78.78,0,0,1-.13.59,1.2,1.2,0,0,1-.49.41,1.31,1.31,0,0,1-1,.12,1.79,1.79,0,0,1-.84-.82l3.63-1.72Zm-3.9,1a1.55,1.55,0,0,1-.06-1,1.09,1.09,0,0,1,.62-.65,1.12,1.12,0,0,1,.79-.08,1.33,1.33,0,0,1,.81.69Z"/><polygon class="cls-5" points="4.76 246.19 2.38 241.09 7.7 244.8 9.19 244.1 5.82 236.97 4.43 237.62 6.75 242.6 1.57 238.97 0 239.72 3.37 246.85 4.76 246.19"/><path class="cls-5" d="M12.55,236.69a3,3,0,0,0-2.21.22,3,3,0,0,0-1.57,1.57A3,3,0,0,0,9,241a3,3,0,0,0,1.81,1.72,3,3,0,0,0,2.21-.22,3,3,0,0,0,1.57-1.57,3,3,0,0,0-.18-2.49A3,3,0,0,0,12.55,236.69Zm-.13,4.61a1.23,1.23,0,0,1-1.31-.06,2.79,2.79,0,0,1-1-2.12,1.22,1.22,0,0,1,.78-1,1.22,1.22,0,0,1,1.31.06,2.33,2.33,0,0,1,.73.95,2.36,2.36,0,0,1,.26,1.18A1.22,1.22,0,0,1,12.42,241.3Z"/><rect class="cls-5" x="17.58" y="231.43" width="1.65" height="7.89" transform="translate(-98.88 30.47) rotate(-25.31)"/><path class="cls-5" d="M25.52,231.16a.75.75,0,0,1,.67,0,1.38,1.38,0,0,1,.58.7l1.52,3.21,1.39-.66L28,230.74a1.83,1.83,0,0,0-1.13-1.06,2.11,2.11,0,0,0-1.54.16,1.65,1.65,0,0,0-.81.78,2.69,2.69,0,0,0-.2.73,2.29,2.29,0,0,0-.91-.36,2.09,2.09,0,0,0-1.85,1,2.11,2.11,0,0,0-.2.81l-.37-.78-1.33.63,2.5,5.29,1.39-.66L22,234.11a1.39,1.39,0,0,1-.15-.85.85.85,0,0,1,.53-.59.81.81,0,0,1,.91,0,1.91,1.91,0,0,1,.43.66l1.5,3.18,1.39-.66-1.5-3.17a1.41,1.41,0,0,1-.15-.9A1,1,0,0,1,25.52,231.16Z"/><path class="cls-5" d="M31.84,229.37l-1.16.78a2.1,2.1,0,0,0-.88,1.05,1.76,1.76,0,0,0,.13,1.37,1.6,1.6,0,0,0,1.07.94,1.87,1.87,0,0,0,1.27-.16,2.42,2.42,0,0,0,1-.78,2.88,2.88,0,0,0,.38-.8,3,3,0,0,0,.42.57l1.5-.71-.1-.21a.43.43,0,0,1-.33-.11,1.77,1.77,0,0,1-.37-.57l-1.35-2.86A1.45,1.45,0,0,0,32,227a3.26,3.26,0,0,0-1.46.36,3.34,3.34,0,0,0-1.38,1,2.07,2.07,0,0,0-.11,1.93l1.34-.63a1,1,0,0,1-.05-.57.92.92,0,0,1,.56-.57,1.67,1.67,0,0,1,.64-.19.58.58,0,0,1,.57.38.4.4,0,0,1,0,.39A.85.85,0,0,1,31.84,229.37Zm.58.78a1.21,1.21,0,0,0,.25-.31l.32.68a1,1,0,0,1,0,.93,1.52,1.52,0,0,1-.73.7.75.75,0,0,1-.49.06.65.65,0,0,1-.45-.39.73.73,0,0,1,0-.72,1.82,1.82,0,0,1,.54-.5A4.78,4.78,0,0,0,32.42,230.15Z"/><path class="cls-5" d="M39.36,231.17a1.49,1.49,0,0,1-.86.2.71.71,0,0,1-.37-.27l-1.51.71a1.5,1.5,0,0,0,1.32.87,3.4,3.4,0,0,0,1.74-.37q1.71-.81,1.9-2a3,3,0,0,0-.38-1.73l-2.37-5-1.33.63.35.79a1.74,1.74,0,0,0-2-.19,2.19,2.19,0,0,0-1.22,1.41,3.91,3.91,0,0,0,2,4.11,2.29,2.29,0,0,0,1.93-.1,1.8,1.8,0,0,0,.82-.69,1.74,1.74,0,0,0,.22-.77h0l.3.64A1.14,1.14,0,0,1,39.36,231.17ZM38.23,229a1.05,1.05,0,0,1-1.09-.08,2,2,0,0,1-.7-.87,2.16,2.16,0,0,1-.25-1.44,1,1,0,0,1,.57-.69,1.15,1.15,0,0,1,1.11,0,2,2,0,0,1,.81,1,2.21,2.21,0,0,1,.26,1.16A1.13,1.13,0,0,1,38.23,229Z"/><path class="cls-5" d="M42.67,227.66a2.9,2.9,0,0,0,2.18-.26,2.78,2.78,0,0,0,1.2-1,2.47,2.47,0,0,0,.33-1.77l-1.43.68a.78.78,0,0,1-.13.58,1.2,1.2,0,0,1-.49.42,1.31,1.31,0,0,1-1,.12,1.78,1.78,0,0,1-.84-.82l3.63-1.72-.12-.25a3.28,3.28,0,0,0-2-2,2.68,2.68,0,0,0-1.89.22A2.52,2.52,0,0,0,40.5,224a3.39,3.39,0,0,0,.34,1.76A3.33,3.33,0,0,0,42.67,227.66Zm-.66-4a1.09,1.09,0,0,1,.62-.65,1.11,1.11,0,0,1,.79-.08,1.33,1.33,0,0,1,.81.69l-2.16,1A1.55,1.55,0,0,1,42,223.68Z"/><polygon class="cls-5" points="73.49 213.68 71.11 208.58 76.43 212.29 77.92 211.59 74.55 204.46 73.15 205.12 75.48 210.09 70.3 206.47 68.73 207.21 72.1 214.34 73.49 213.68"/><path class="cls-5" d="M81.28,204.18A3.29,3.29,0,0,0,77.5,206a3.46,3.46,0,0,0,2,4.22,3.29,3.29,0,0,0,3.78-1.79,3.47,3.47,0,0,0-2-4.22Zm-.13,4.61a1.23,1.23,0,0,1-1.31-.06,2.79,2.79,0,0,1-1-2.12,1.39,1.39,0,0,1,2.08-1,2.33,2.33,0,0,1,.73.95,2.36,2.36,0,0,1,.26,1.18A1.22,1.22,0,0,1,81.15,208.8Z"/><rect class="cls-5" x="86.31" y="198.93" width="1.65" height="7.89" transform="translate(-78.37 56.73) rotate(-25.31)"/><path class="cls-5" d="M94.25,198.66a.75.75,0,0,1,.67,0,1.38,1.38,0,0,1,.58.7L97,202.56l1.39-.66-1.73-3.66a1.83,1.83,0,0,0-1.13-1.06,2.11,2.11,0,0,0-1.54.16,1.65,1.65,0,0,0-.81.78,2.71,2.71,0,0,0-.2.73,2.29,2.29,0,0,0-.91-.36,2.1,2.1,0,0,0-1.85,1,2.11,2.11,0,0,0-.2.81l-.37-.78-1.33.63,2.5,5.29,1.39-.66L90.7,201.6a1.39,1.39,0,0,1-.15-.85.85.85,0,0,1,.53-.59.81.81,0,0,1,.91,0,1.92,1.92,0,0,1,.43.66l1.5,3.18,1.39-.66-1.5-3.17a1.4,1.4,0,0,1-.15-.9A1,1,0,0,1,94.25,198.66Z"/><path class="cls-5" d="M100.57,196.86l-1.16.78a2.1,2.1,0,0,0-.88,1.05,1.76,1.76,0,0,0,.13,1.37,1.6,1.6,0,0,0,1.07.94,1.86,1.86,0,0,0,1.27-.16,2.43,2.43,0,0,0,1-.78,2.86,2.86,0,0,0,.38-.8,3.08,3.08,0,0,0,.42.57l1.5-.71-.1-.21a.43.43,0,0,1-.33-.11,1.74,1.74,0,0,1-.37-.57l-1.35-2.86a1.46,1.46,0,0,0-1.37-.9,3.28,3.28,0,0,0-1.46.36,3.35,3.35,0,0,0-1.38,1,2.08,2.08,0,0,0-.11,1.93l1.34-.63a1,1,0,0,1-.05-.57.92.92,0,0,1,.56-.57,1.68,1.68,0,0,1,.64-.19.58.58,0,0,1,.57.38.4.4,0,0,1,0,.39A.85.85,0,0,1,100.57,196.86Zm.58.78a1.2,1.2,0,0,0,.24-.3l.32.68a1,1,0,0,1,0,.93,1.53,1.53,0,0,1-.73.7.75.75,0,0,1-.49.06.65.65,0,0,1-.45-.39.72.72,0,0,1,0-.72,1.8,1.8,0,0,1,.54-.5A4.67,4.67,0,0,0,101.15,197.64Z"/><path class="cls-5" d="M105.33,197.85a2.29,2.29,0,0,0,1.93-.1,1.8,1.8,0,0,0,.82-.69,1.71,1.71,0,0,0,.22-.77h0l.3.64a1.14,1.14,0,0,1-.53,1.74,1.49,1.49,0,0,1-.86.2.71.71,0,0,1-.37-.27l-1.51.71a1.5,1.5,0,0,0,1.32.87,3.42,3.42,0,0,0,1.74-.37q1.71-.81,1.9-2a3,3,0,0,0-.38-1.73l-2.37-5-1.33.63.35.8a1.73,1.73,0,0,0-2-.19,2.19,2.19,0,0,0-1.22,1.41,3.91,3.91,0,0,0,2,4.11Zm-.42-3.78a1,1,0,0,1,.57-.69,1.15,1.15,0,0,1,1.11,0,2,2,0,0,1,.81,1,2.2,2.2,0,0,1,.26,1.16,1.13,1.13,0,0,1-.71.93,1,1,0,0,1-1.09-.08,2,2,0,0,1-.7-.87A2.14,2.14,0,0,1,104.92,194.06Z"/><path class="cls-5" d="M114.7,191.11a3.28,3.28,0,0,0-2-2,2.67,2.67,0,0,0-1.89.22,2.52,2.52,0,0,0-1.62,2.11,3.4,3.4,0,0,0,.35,1.76,3.34,3.34,0,0,0,1.83,1.91,2.9,2.9,0,0,0,2.18-.26,2.8,2.8,0,0,0,1.2-1,2.48,2.48,0,0,0,.33-1.77l-1.43.68a.78.78,0,0,1-.13.59,1.2,1.2,0,0,1-.49.41,1.31,1.31,0,0,1-1,.12,1.78,1.78,0,0,1-.84-.82l3.63-1.72Zm-3.9,1a1.55,1.55,0,0,1-.06-1,1.08,1.08,0,0,1,.62-.65,1.12,1.12,0,0,1,.79-.08,1.33,1.33,0,0,1,.81.69Z"/><polygon class="cls-5" points="138.46 182.96 139.85 182.3 137.47 177.19 142.79 180.91 144.28 180.2 140.91 173.07 139.52 173.73 141.85 178.71 136.66 175.08 135.09 175.82 138.46 182.96"/><path class="cls-5" d="M148.07,178.58a2.84,2.84,0,0,0,1.39-4.06,3,3,0,0,0-1.81-1.72,3.29,3.29,0,0,0-3.78,1.79,3.46,3.46,0,0,0,2,4.22A3,3,0,0,0,148.07,178.58Zm-2.59-2.18a2.35,2.35,0,0,1-.26-1.18,1.39,1.39,0,0,1,2.08-1,2.33,2.33,0,0,1,.73.95,2.36,2.36,0,0,1,.26,1.18,1.39,1.39,0,0,1-2.08,1A2.33,2.33,0,0,1,145.48,176.4Z"/><rect class="cls-5" x="152.67" y="167.54" width="1.65" height="7.89" transform="translate(-58.58 82.09) rotate(-25.31)"/><path class="cls-5" d="M160.61,167.27a.75.75,0,0,1,.67,0,1.38,1.38,0,0,1,.58.7l1.52,3.21,1.39-.66L163,166.85a1.83,1.83,0,0,0-1.13-1.06,2.11,2.11,0,0,0-1.54.16,1.65,1.65,0,0,0-.81.78,2.71,2.71,0,0,0-.2.73,2.29,2.29,0,0,0-.91-.36,2.1,2.1,0,0,0-1.85,1,2.11,2.11,0,0,0-.2.81l-.37-.78-1.33.63,2.5,5.29,1.39-.66-1.52-3.22a1.39,1.39,0,0,1-.15-.85.85.85,0,0,1,.53-.59.81.81,0,0,1,.91,0,1.92,1.92,0,0,1,.43.66l1.5,3.18,1.39-.66-1.5-3.17a1.4,1.4,0,0,1-.15-.9A1,1,0,0,1,160.61,167.27Z"/><path class="cls-5" d="M166.93,165.47l-1.16.78a2.1,2.1,0,0,0-.88,1.05,1.76,1.76,0,0,0,.13,1.37,1.6,1.6,0,0,0,1.07.94,1.86,1.86,0,0,0,1.27-.16,2.42,2.42,0,0,0,1-.78,2.86,2.86,0,0,0,.38-.8,3.08,3.08,0,0,0,.42.57l1.5-.71-.1-.21a.43.43,0,0,1-.33-.11,1.76,1.76,0,0,1-.37-.57L168.49,164a1.45,1.45,0,0,0-1.37-.9,3.27,3.27,0,0,0-1.46.36,3.35,3.35,0,0,0-1.38,1,2.08,2.08,0,0,0-.11,1.93l1.34-.63a1,1,0,0,1-.05-.57.92.92,0,0,1,.56-.57,1.68,1.68,0,0,1,.64-.19.58.58,0,0,1,.57.38.4.4,0,0,1,0,.39A.85.85,0,0,1,166.93,165.47Zm.58.78a1.21,1.21,0,0,0,.25-.3l.32.68a1,1,0,0,1,0,.93,1.53,1.53,0,0,1-.73.7.75.75,0,0,1-.49.06.65.65,0,0,1-.45-.39.73.73,0,0,1,0-.72,1.81,1.81,0,0,1,.54-.5A4.67,4.67,0,0,0,167.51,166.25Z"/><path class="cls-5" d="M174.46,167.28a1.48,1.48,0,0,1-.86.2.71.71,0,0,1-.37-.27l-1.51.71a1.5,1.5,0,0,0,1.32.87,3.42,3.42,0,0,0,1.74-.37q1.71-.81,1.9-2a3,3,0,0,0-.38-1.73l-2.37-5-1.33.63.35.8a1.74,1.74,0,0,0-2-.19,2.19,2.19,0,0,0-1.22,1.41,3.91,3.91,0,0,0,2,4.11,2.29,2.29,0,0,0,1.93-.1,1.81,1.81,0,0,0,.82-.69,1.73,1.73,0,0,0,.22-.77h0l.3.64A1.14,1.14,0,0,1,174.46,167.28Zm-1.14-2.21a1,1,0,0,1-1.09-.08,2,2,0,0,1-.7-.87,2.16,2.16,0,0,1-.25-1.44,1,1,0,0,1,.57-.69,1.15,1.15,0,0,1,1.11,0,2,2,0,0,1,.81,1,2.21,2.21,0,0,1,.26,1.16A1.13,1.13,0,0,1,173.32,165.07Z"/><path class="cls-5" d="M177.76,163.77a2.9,2.9,0,0,0,2.18-.26,2.8,2.8,0,0,0,1.2-1,2.47,2.47,0,0,0,.33-1.77l-1.43.68a.78.78,0,0,1-.13.59,1.19,1.19,0,0,1-.49.41,1.31,1.31,0,0,1-1,.12,1.77,1.77,0,0,1-.84-.82l3.63-1.72-.12-.25a3.28,3.28,0,0,0-2-2,2.67,2.67,0,0,0-1.89.22,2.52,2.52,0,0,0-1.62,2.11,3.39,3.39,0,0,0,.34,1.76A3.34,3.34,0,0,0,177.76,163.77Zm-.66-4a1.09,1.09,0,0,1,.62-.65,1.12,1.12,0,0,1,.79-.08,1.34,1.34,0,0,1,.81.69l-2.16,1A1.55,1.55,0,0,1,177.1,159.79Z"/><polygon class="cls-5" points="5.61 306.48 7.94 311.46 2.76 307.83 1.18 308.57 4.55 315.7 5.95 315.05 3.56 309.94 8.88 313.66 10.37 312.95 7 305.82 5.61 306.48"/><path class="cls-5" d="M13.73,305.55a3,3,0,0,0-2.21.22A3,3,0,0,0,10,307.33a3,3,0,0,0,.18,2.49,3,3,0,0,0,1.81,1.72,3,3,0,0,0,2.21-.22,2.84,2.84,0,0,0,1.39-4.06A3,3,0,0,0,13.73,305.55Zm-.13,4.61a1.23,1.23,0,0,1-1.31-.06,2.79,2.79,0,0,1-1-2.12,1.22,1.22,0,0,1,.78-1,1.23,1.23,0,0,1,1.31.06,2.33,2.33,0,0,1,.73.95,2.36,2.36,0,0,1,.26,1.18A1.22,1.22,0,0,1,13.6,310.16Z"/><rect class="cls-5" x="18.76" y="300.29" width="1.65" height="7.89" transform="translate(-128.19 37.58) rotate(-25.31)"/><path class="cls-5" d="M28,298.54a2.12,2.12,0,0,0-1.54.16,1.65,1.65,0,0,0-.81.78,2.72,2.72,0,0,0-.2.73,2.3,2.3,0,0,0-.91-.36,2.09,2.09,0,0,0-1.85,1,2.1,2.1,0,0,0-.2.81l-.37-.78-1.33.63,2.5,5.29,1.39-.66L23.16,303a1.38,1.38,0,0,1-.15-.85.85.85,0,0,1,.53-.59.81.81,0,0,1,.91,0,1.91,1.91,0,0,1,.43.66l1.5,3.18,1.39-.66-1.5-3.17a1.41,1.41,0,0,1-.15-.9,1,1,0,0,1,.58-.63.76.76,0,0,1,.67,0,1.38,1.38,0,0,1,.58.7l1.52,3.21,1.39-.66-1.73-3.66A1.84,1.84,0,0,0,28,298.54Z"/><path class="cls-5" d="M36.3,300.16a1.75,1.75,0,0,1-.37-.57l-1.35-2.86a1.45,1.45,0,0,0-1.37-.9,3.26,3.26,0,0,0-1.46.36,3.35,3.35,0,0,0-1.38,1,2.08,2.08,0,0,0-.11,1.93l1.34-.63a1,1,0,0,1-.05-.57.92.92,0,0,1,.56-.57,1.68,1.68,0,0,1,.64-.19.58.58,0,0,1,.57.38.4.4,0,0,1,0,.39.85.85,0,0,1-.28.25l-1.16.78a2.09,2.09,0,0,0-.88,1.05,1.76,1.76,0,0,0,.13,1.37,1.6,1.6,0,0,0,1.07.94,1.87,1.87,0,0,0,1.27-.16,2.42,2.42,0,0,0,1-.78,2.86,2.86,0,0,0,.38-.8,3.05,3.05,0,0,0,.42.57l1.5-.71-.1-.21A.43.43,0,0,1,36.3,300.16Zm-2.15.14a1.52,1.52,0,0,1-.73.7.75.75,0,0,1-.49.06.65.65,0,0,1-.45-.39.73.73,0,0,1,0-.72,1.79,1.79,0,0,1,.54-.5,4.67,4.67,0,0,0,.59-.46,1.21,1.21,0,0,0,.25-.3l.32.68A1,1,0,0,1,34.15,300.31Z"/><path class="cls-5" d="M40,292.46l-1.33.63.35.79a1.74,1.74,0,0,0-2-.19,2.19,2.19,0,0,0-1.22,1.41,3.91,3.91,0,0,0,2,4.11,2.29,2.29,0,0,0,1.93-.1,1.81,1.81,0,0,0,.82-.69,1.73,1.73,0,0,0,.22-.77h0l.3.64a1.14,1.14,0,0,1-.53,1.73,1.49,1.49,0,0,1-.86.2.71.71,0,0,1-.37-.27l-1.51.71a1.5,1.5,0,0,0,1.32.87,3.41,3.41,0,0,0,1.74-.37q1.71-.81,1.9-2a3,3,0,0,0-.38-1.73Zm-.61,5.36a1,1,0,0,1-1.09-.08,2,2,0,0,1-.7-.87,2.16,2.16,0,0,1-.25-1.44,1,1,0,0,1,.57-.68,1.15,1.15,0,0,1,1.11,0,2,2,0,0,1,.81,1,2.21,2.21,0,0,1,.26,1.16A1.13,1.13,0,0,1,39.41,297.82Z"/><path class="cls-5" d="M46.12,294.15a.78.78,0,0,1-.13.59,1.19,1.19,0,0,1-.49.41,1.31,1.31,0,0,1-1,.12,1.79,1.79,0,0,1-.84-.82l3.63-1.72-.12-.25a3.28,3.28,0,0,0-2-2,2.67,2.67,0,0,0-1.89.22,2.52,2.52,0,0,0-1.62,2.11,3.39,3.39,0,0,0,.34,1.76,3.33,3.33,0,0,0,1.83,1.91,2.89,2.89,0,0,0,2.18-.26,2.8,2.8,0,0,0,1.2-1,2.47,2.47,0,0,0,.33-1.77Zm-2.93-1.61a1.09,1.09,0,0,1,.62-.65,1.12,1.12,0,0,1,.79-.08,1.34,1.34,0,0,1,.81.69l-2.16,1A1.55,1.55,0,0,1,43.2,292.54Z"/><polygon class="cls-5" points="74.34 273.98 76.67 278.95 71.48 275.32 69.91 276.07 73.28 283.2 74.68 282.54 72.29 277.44 77.61 281.15 79.1 280.45 75.73 273.32 74.34 273.98"/><path class="cls-5" d="M82.46,273a3,3,0,0,0-3.6,4.28A3,3,0,0,0,80.68,279a3.29,3.29,0,0,0,3.78-1.79,3.46,3.46,0,0,0-2-4.22Zm-.13,4.61a1.23,1.23,0,0,1-1.31-.06,2.79,2.79,0,0,1-1-2.12,1.39,1.39,0,0,1,2.08-1,2.33,2.33,0,0,1,.73.95,2.36,2.36,0,0,1,.26,1.18A1.22,1.22,0,0,1,82.33,277.65Z"/><rect class="cls-5" x="87.49" y="267.78" width="1.65" height="7.89" transform="translate(-107.7 63.84) rotate(-25.31)"/><path class="cls-5" d="M96.73,266a2.11,2.11,0,0,0-1.54.16,1.65,1.65,0,0,0-.81.78,2.69,2.69,0,0,0-.2.73,2.29,2.29,0,0,0-.91-.36,2.09,2.09,0,0,0-1.85,1,2.11,2.11,0,0,0-.2.81l-.37-.78-1.33.63,2.5,5.29,1.39-.66-1.52-3.22a1.39,1.39,0,0,1-.15-.85.85.85,0,0,1,.53-.59.81.81,0,0,1,.91,0,1.91,1.91,0,0,1,.43.66l1.5,3.18,1.39-.66L95,269a1.41,1.41,0,0,1-.15-.9,1,1,0,0,1,.58-.63.75.75,0,0,1,.67,0,1.38,1.38,0,0,1,.58.7l1.52,3.21,1.39-.66-1.73-3.66A1.83,1.83,0,0,0,96.73,266Z"/><path class="cls-5" d="M105.46,268l-.1-.21a.43.43,0,0,1-.33-.11,1.77,1.77,0,0,1-.37-.57l-1.35-2.86a1.45,1.45,0,0,0-1.37-.89,3.26,3.26,0,0,0-1.46.36,3.34,3.34,0,0,0-1.38,1,2.07,2.07,0,0,0-.11,1.93l1.34-.63a1,1,0,0,1-.05-.57.92.92,0,0,1,.56-.57,1.67,1.67,0,0,1,.64-.19.58.58,0,0,1,.57.38.4.4,0,0,1,0,.39.85.85,0,0,1-.28.25l-1.16.78a2.1,2.1,0,0,0-.88,1.05,1.76,1.76,0,0,0,.13,1.37,1.6,1.6,0,0,0,1.07.94,1.87,1.87,0,0,0,1.27-.16,2.42,2.42,0,0,0,1-.78,2.88,2.88,0,0,0,.38-.8,3,3,0,0,0,.42.57Zm-2.58-.18a1.52,1.52,0,0,1-.73.7.75.75,0,0,1-.49.06.65.65,0,0,1-.45-.39.73.73,0,0,1,0-.72,1.82,1.82,0,0,1,.54-.5,4.78,4.78,0,0,0,.59-.46,1.21,1.21,0,0,0,.25-.31l.32.68A1,1,0,0,1,102.88,267.8Z"/><path class="cls-5" d="M109.28,267.53a1.49,1.49,0,0,1-.86.2.71.71,0,0,1-.37-.27l-1.51.71a1.5,1.5,0,0,0,1.32.87,3.4,3.4,0,0,0,1.74-.37q1.71-.81,1.9-2a3,3,0,0,0-.38-1.73l-2.37-5-1.33.63.35.79a1.74,1.74,0,0,0-2-.19,2.19,2.19,0,0,0-1.22,1.41,3.91,3.91,0,0,0,2,4.11,2.29,2.29,0,0,0,1.93-.1,1.8,1.8,0,0,0,.82-.69,1.74,1.74,0,0,0,.22-.77h0l.3.64A1.14,1.14,0,0,1,109.28,267.53Zm-1.14-2.21a1.05,1.05,0,0,1-1.09-.08,2,2,0,0,1-.7-.87,2.16,2.16,0,0,1-.25-1.44,1,1,0,0,1,.57-.69,1.15,1.15,0,0,1,1.11,0,2,2,0,0,1,.81,1,2.21,2.21,0,0,1,.26,1.16A1.13,1.13,0,0,1,108.14,265.31Z"/><path class="cls-5" d="M112.58,264a2.9,2.9,0,0,0,2.18-.26,2.78,2.78,0,0,0,1.2-1,2.47,2.47,0,0,0,.33-1.77l-1.43.68a.78.78,0,0,1-.13.58,1.2,1.2,0,0,1-.49.42,1.31,1.31,0,0,1-1,.12,1.78,1.78,0,0,1-.84-.82l3.63-1.72-.12-.25a3.28,3.28,0,0,0-2-2,2.68,2.68,0,0,0-1.89.22,2.52,2.52,0,0,0-1.62,2.12,3.39,3.39,0,0,0,.34,1.76A3.33,3.33,0,0,0,112.58,264Zm-.66-4a1.09,1.09,0,0,1,.62-.65,1.11,1.11,0,0,1,.79-.08,1.33,1.33,0,0,1,.81.69L112,261A1.55,1.55,0,0,1,111.92,260Z"/><polygon class="cls-5" points="145.46 249.06 142.09 241.93 140.7 242.59 143.03 247.56 137.85 243.94 136.27 244.68 139.65 251.81 141.04 251.15 138.65 246.05 143.97 249.77 145.46 249.06"/><path class="cls-5" d="M148.82,241.66a3,3,0,0,0-3.6,4.28,3,3,0,0,0,1.81,1.72,3.29,3.29,0,0,0,3.78-1.79,3.46,3.46,0,0,0-2-4.22Zm-.13,4.61a1.23,1.23,0,0,1-1.31-.06,2.79,2.79,0,0,1-1-2.12,1.39,1.39,0,0,1,2.08-1,2.33,2.33,0,0,1,.73.95,2.36,2.36,0,0,1,.26,1.18A1.22,1.22,0,0,1,148.69,246.27Z"/><rect class="cls-5" x="153.85" y="236.4" width="1.65" height="7.89" transform="translate(-87.89 89.18) rotate(-25.31)"/><path class="cls-5" d="M163.09,234.65a2.11,2.11,0,0,0-1.54.16,1.65,1.65,0,0,0-.81.78,2.69,2.69,0,0,0-.2.73,2.29,2.29,0,0,0-.91-.36,2.09,2.09,0,0,0-1.85,1,2.09,2.09,0,0,0-.2.81l-.37-.78-1.33.63,2.5,5.29,1.39-.66-1.52-3.22a1.4,1.4,0,0,1-.15-.85.85.85,0,0,1,.53-.59.81.81,0,0,1,.91,0,1.92,1.92,0,0,1,.43.66l1.51,3.18,1.39-.66-1.5-3.17a1.4,1.4,0,0,1-.15-.9,1,1,0,0,1,.58-.63.76.76,0,0,1,.67,0,1.38,1.38,0,0,1,.58.7l1.52,3.21,1.39-.66-1.73-3.66A1.83,1.83,0,0,0,163.09,234.65Z"/><path class="cls-5" d="M171.39,236.27a1.79,1.79,0,0,1-.37-.57l-1.35-2.86a1.45,1.45,0,0,0-1.37-.89,3.25,3.25,0,0,0-1.46.36,3.33,3.33,0,0,0-1.38,1,2.07,2.07,0,0,0-.11,1.93l1.34-.63a1,1,0,0,1-.05-.57.92.92,0,0,1,.56-.57,1.67,1.67,0,0,1,.64-.19.58.58,0,0,1,.57.38.4.4,0,0,1,0,.39.85.85,0,0,1-.28.25l-1.16.78a2.09,2.09,0,0,0-.88,1.05,1.75,1.75,0,0,0,.13,1.37,1.6,1.6,0,0,0,1.07.94,1.87,1.87,0,0,0,1.27-.16,2.42,2.42,0,0,0,1-.78,2.88,2.88,0,0,0,.38-.8,3.05,3.05,0,0,0,.43.57l1.5-.71-.1-.21A.43.43,0,0,1,171.39,236.27Zm-2.15.14a1.51,1.51,0,0,1-.73.7.75.75,0,0,1-.49.06.65.65,0,0,1-.45-.39.73.73,0,0,1,0-.72,1.83,1.83,0,0,1,.54-.5,4.78,4.78,0,0,0,.59-.46,1.22,1.22,0,0,0,.25-.31l.32.68A1,1,0,0,1,169.24,236.42Z"/><path class="cls-5" d="M175.11,228.57l-1.33.63.35.79a1.74,1.74,0,0,0-2-.19,2.19,2.19,0,0,0-1.22,1.41,3.91,3.91,0,0,0,2,4.11,2.29,2.29,0,0,0,1.93-.1,1.8,1.8,0,0,0,.82-.69,1.76,1.76,0,0,0,.22-.77h0l.3.64a1.14,1.14,0,0,1-.53,1.74,1.48,1.48,0,0,1-.86.2.71.71,0,0,1-.37-.27l-1.51.71a1.5,1.5,0,0,0,1.32.87,3.39,3.39,0,0,0,1.73-.37q1.71-.81,1.9-2a3,3,0,0,0-.38-1.73Zm-.61,5.36a1.05,1.05,0,0,1-1.09-.08,2,2,0,0,1-.7-.87,2.17,2.17,0,0,1-.25-1.44,1,1,0,0,1,.57-.69,1.15,1.15,0,0,1,1.11,0,2,2,0,0,1,.81,1,2.21,2.21,0,0,1,.26,1.16A1.13,1.13,0,0,1,174.5,233.93Z"/><path class="cls-5" d="M181.21,230.25a.78.78,0,0,1-.13.58,1.19,1.19,0,0,1-.49.42,1.31,1.31,0,0,1-1,.12,1.78,1.78,0,0,1-.84-.82l3.63-1.72-.12-.25a3.28,3.28,0,0,0-2-2,2.67,2.67,0,0,0-1.89.22,2.52,2.52,0,0,0-1.62,2.12,3.38,3.38,0,0,0,.34,1.76,3.34,3.34,0,0,0,1.83,1.91,2.9,2.9,0,0,0,2.18-.26,2.78,2.78,0,0,0,1.2-1,2.46,2.46,0,0,0,.33-1.77Zm-2.93-1.61a1.09,1.09,0,0,1,.62-.65,1.12,1.12,0,0,1,.79-.08,1.34,1.34,0,0,1,.81.69l-2.16,1A1.56,1.56,0,0,1,178.29,228.64Z"/><polygon class="cls-5" points="108.11 319.11 110.44 324.08 105.26 320.45 103.68 321.2 107.06 328.33 108.45 327.67 106.06 322.57 111.38 326.28 112.87 325.58 109.5 318.45 108.11 319.11"/><path class="cls-5" d="M116.23,318.17a3.29,3.29,0,0,0-3.78,1.79,3.46,3.46,0,0,0,2,4.22,3.29,3.29,0,0,0,3.78-1.79,3.47,3.47,0,0,0-2-4.22Zm-.13,4.61a1.23,1.23,0,0,1-1.31-.06,2.79,2.79,0,0,1-1-2.12,1.39,1.39,0,0,1,2.08-1,2.33,2.33,0,0,1,.73.95,2.36,2.36,0,0,1,.26,1.18A1.22,1.22,0,0,1,116.1,322.78Z"/><rect class="cls-5" x="121.26" y="312.91" width="1.65" height="7.89" transform="translate(-123.75 82.62) rotate(-25.31)"/><path class="cls-5" d="M130.5,311.16a2.12,2.12,0,0,0-1.54.16,1.65,1.65,0,0,0-.81.78,2.72,2.72,0,0,0-.2.73,2.3,2.3,0,0,0-.91-.36,2.09,2.09,0,0,0-1.85,1,2.1,2.1,0,0,0-.2.81l-.37-.78-1.33.63,2.5,5.29,1.39-.66-1.52-3.22a1.38,1.38,0,0,1-.15-.85.85.85,0,0,1,.53-.59.81.81,0,0,1,.91,0,1.91,1.91,0,0,1,.43.66l1.5,3.18,1.39-.66-1.5-3.17a1.41,1.41,0,0,1-.15-.9,1,1,0,0,1,.58-.63.76.76,0,0,1,.67,0,1.38,1.38,0,0,1,.58.7l1.52,3.21,1.39-.66-1.73-3.66A1.84,1.84,0,0,0,130.5,311.16Z"/><path class="cls-5" d="M138.8,312.79a1.75,1.75,0,0,1-.37-.57l-1.35-2.86a1.45,1.45,0,0,0-1.37-.9,3.26,3.26,0,0,0-1.46.36,3.35,3.35,0,0,0-1.38,1,2.08,2.08,0,0,0-.11,1.93l1.34-.63a1,1,0,0,1-.05-.57.92.92,0,0,1,.56-.57,1.68,1.68,0,0,1,.64-.19.58.58,0,0,1,.57.38.4.4,0,0,1,0,.39.85.85,0,0,1-.28.25l-1.16.78a2.09,2.09,0,0,0-.88,1.05,1.76,1.76,0,0,0,.13,1.37,1.6,1.6,0,0,0,1.07.94,1.87,1.87,0,0,0,1.27-.16,2.42,2.42,0,0,0,1-.78,2.86,2.86,0,0,0,.38-.8,3.05,3.05,0,0,0,.42.57l1.5-.71-.1-.21A.43.43,0,0,1,138.8,312.79Zm-2.15.14a1.52,1.52,0,0,1-.73.7.75.75,0,0,1-.49.06.65.65,0,0,1-.45-.39.73.73,0,0,1,0-.72,1.79,1.79,0,0,1,.54-.5,4.67,4.67,0,0,0,.59-.46,1.21,1.21,0,0,0,.25-.3l.32.68A1,1,0,0,1,136.65,312.93Z"/><path class="cls-5" d="M142.52,305.08l-1.33.63.35.79a1.74,1.74,0,0,0-2-.19,2.19,2.19,0,0,0-1.22,1.41,3.91,3.91,0,0,0,2,4.11,2.29,2.29,0,0,0,1.93-.1A1.81,1.81,0,0,0,143,311a1.73,1.73,0,0,0,.22-.77h0l.3.64a1.14,1.14,0,0,1-.53,1.73,1.49,1.49,0,0,1-.86.2.71.71,0,0,1-.37-.27l-1.51.71a1.5,1.5,0,0,0,1.32.87,3.41,3.41,0,0,0,1.74-.37q1.71-.81,1.9-2a3,3,0,0,0-.38-1.73Zm-.61,5.36a1,1,0,0,1-1.09-.08,2,2,0,0,1-.7-.87,2.16,2.16,0,0,1-.25-1.44,1,1,0,0,1,.57-.68,1.15,1.15,0,0,1,1.11,0,2,2,0,0,1,.81,1,2.21,2.21,0,0,1,.26,1.16A1.13,1.13,0,0,1,141.91,310.45Z"/><path class="cls-5" d="M148.62,306.77a.78.78,0,0,1-.13.59,1.19,1.19,0,0,1-.49.41,1.31,1.31,0,0,1-1,.12,1.79,1.79,0,0,1-.84-.82l3.63-1.72-.12-.25a3.28,3.28,0,0,0-2-2,2.67,2.67,0,0,0-1.89.22,2.52,2.52,0,0,0-1.62,2.11,3.39,3.39,0,0,0,.34,1.76,3.33,3.33,0,0,0,1.83,1.91,2.89,2.89,0,0,0,2.18-.26,2.8,2.8,0,0,0,1.2-1,2.47,2.47,0,0,0,.33-1.77Zm-2.93-1.61a1.09,1.09,0,0,1,.62-.65,1.12,1.12,0,0,1,.79-.08,1.34,1.34,0,0,1,.81.69l-2.16,1A1.55,1.55,0,0,1,145.7,305.16Z"/><polygon class="cls-5" points="195.04 282.6 197.37 287.58 192.19 283.95 190.61 284.69 193.98 291.82 195.38 291.17 192.99 286.06 198.31 289.78 199.8 289.07 196.43 281.94 195.04 282.6"/><path class="cls-5" d="M203.16,281.67a3,3,0,0,0-3.6,4.28,3,3,0,0,0,1.81,1.72,3.29,3.29,0,0,0,3.78-1.79,3.46,3.46,0,0,0-2-4.22Zm-.13,4.61a1.23,1.23,0,0,1-1.31-.06,2.79,2.79,0,0,1-1-2.12,1.39,1.39,0,0,1,2.08-1,2.33,2.33,0,0,1,.73.95,2.36,2.36,0,0,1,.26,1.18A1.22,1.22,0,0,1,203,286.28Z"/><rect class="cls-5" x="208.19" y="276.41" width="1.65" height="7.89" transform="translate(-99.8 116.28) rotate(-25.31)"/><path class="cls-5" d="M217.43,274.66a2.11,2.11,0,0,0-1.54.16,1.65,1.65,0,0,0-.81.78,2.69,2.69,0,0,0-.2.73A2.29,2.29,0,0,0,214,276a2.09,2.09,0,0,0-1.85,1,2.11,2.11,0,0,0-.2.81l-.37-.78-1.33.63,2.5,5.29,1.39-.66-1.52-3.22a1.39,1.39,0,0,1-.15-.85.85.85,0,0,1,.53-.59.81.81,0,0,1,.91,0,1.91,1.91,0,0,1,.43.66l1.5,3.18,1.39-.66-1.5-3.17a1.41,1.41,0,0,1-.15-.9,1,1,0,0,1,.58-.63.75.75,0,0,1,.67,0,1.38,1.38,0,0,1,.58.7L218.9,280l1.39-.66-1.73-3.66A1.83,1.83,0,0,0,217.43,274.66Z"/><path class="cls-5" d="M225.73,276.29a1.77,1.77,0,0,1-.37-.57L224,272.85a1.45,1.45,0,0,0-1.37-.89,3.26,3.26,0,0,0-1.46.36,3.34,3.34,0,0,0-1.38,1,2.07,2.07,0,0,0-.11,1.93l1.34-.63a1,1,0,0,1-.05-.57.92.92,0,0,1,.56-.57,1.67,1.67,0,0,1,.64-.19.58.58,0,0,1,.57.38.4.4,0,0,1,0,.39.85.85,0,0,1-.28.25l-1.16.78a2.1,2.1,0,0,0-.88,1.05,1.76,1.76,0,0,0,.13,1.37,1.6,1.6,0,0,0,1.07.94,1.87,1.87,0,0,0,1.27-.16,2.42,2.42,0,0,0,1-.78,2.88,2.88,0,0,0,.38-.8,3,3,0,0,0,.42.57l1.5-.71-.1-.21A.43.43,0,0,1,225.73,276.29Zm-2.15.14a1.52,1.52,0,0,1-.73.7.75.75,0,0,1-.49.06.65.65,0,0,1-.45-.39.73.73,0,0,1,0-.72,1.82,1.82,0,0,1,.54-.5,4.78,4.78,0,0,0,.59-.46,1.21,1.21,0,0,0,.25-.31l.32.68A1,1,0,0,1,223.58,276.43Z"/><path class="cls-5" d="M229.45,268.58l-1.33.63.35.79a1.74,1.74,0,0,0-2-.19,2.19,2.19,0,0,0-1.22,1.41,3.91,3.91,0,0,0,2,4.11,2.29,2.29,0,0,0,1.93-.1,1.8,1.8,0,0,0,.82-.69,1.74,1.74,0,0,0,.22-.77h0l.3.64a1.14,1.14,0,0,1-.53,1.74,1.49,1.49,0,0,1-.86.2.71.71,0,0,1-.37-.27l-1.51.71a1.5,1.5,0,0,0,1.32.87,3.4,3.4,0,0,0,1.74-.37q1.71-.81,1.9-2a3,3,0,0,0-.38-1.73Zm-.61,5.36a1.05,1.05,0,0,1-1.09-.08,2,2,0,0,1-.7-.87,2.16,2.16,0,0,1-.25-1.44,1,1,0,0,1,.57-.69,1.15,1.15,0,0,1,1.11,0,2,2,0,0,1,.81,1,2.21,2.21,0,0,1,.26,1.16A1.13,1.13,0,0,1,228.84,273.94Z"/><path class="cls-5" d="M235.55,270.27a.78.78,0,0,1-.13.58,1.2,1.2,0,0,1-.49.42,1.31,1.31,0,0,1-1,.12,1.78,1.78,0,0,1-.84-.82l3.63-1.72-.12-.25a3.28,3.28,0,0,0-2-2,2.68,2.68,0,0,0-1.89.22,2.52,2.52,0,0,0-1.62,2.12,3.39,3.39,0,0,0,.34,1.76,3.33,3.33,0,0,0,1.83,1.91,2.9,2.9,0,0,0,2.18-.26,2.78,2.78,0,0,0,1.2-1,2.47,2.47,0,0,0,.33-1.77Zm-2.93-1.61a1.09,1.09,0,0,1,.62-.65,1.11,1.11,0,0,1,.79-.08,1.33,1.33,0,0,1,.81.69l-2.16,1A1.55,1.55,0,0,1,232.62,268.66Z"/><polygon class="cls-5" points="266.91 250.68 272.23 254.39 273.72 253.69 270.35 246.56 268.96 247.21 271.29 252.19 266.1 248.56 264.53 249.31 267.9 256.44 269.3 255.78 266.91 250.68"/><path class="cls-5" d="M275.3,252.28a3.29,3.29,0,0,0,3.78-1.79,3.46,3.46,0,0,0-2-4.22,3,3,0,0,0-3.6,4.28A3,3,0,0,0,275.3,252.28Zm.13-4.61a1.22,1.22,0,0,1,1.31.06,2.33,2.33,0,0,1,.73.95,2.36,2.36,0,0,1,.26,1.18,1.39,1.39,0,0,1-2.08,1,2.79,2.79,0,0,1-1-2.12A1.22,1.22,0,0,1,275.43,247.67Z"/><rect class="cls-5" x="282.11" y="241.02" width="1.65" height="7.89" transform="translate(-77.58 144.5) rotate(-25.31)"/><path class="cls-5" d="M290.05,240.75a.75.75,0,0,1,.67,0,1.38,1.38,0,0,1,.58.7l1.52,3.21,1.39-.66-1.73-3.66a1.83,1.83,0,0,0-1.13-1.06,2.11,2.11,0,0,0-1.54.16,1.65,1.65,0,0,0-.81.78,2.69,2.69,0,0,0-.2.73,2.29,2.29,0,0,0-.91-.36,2.09,2.09,0,0,0-1.85,1,2.11,2.11,0,0,0-.2.81l-.37-.78-1.33.63,2.5,5.29,1.39-.66-1.52-3.22a1.39,1.39,0,0,1-.15-.85.85.85,0,0,1,.53-.59.81.81,0,0,1,.91,0,1.91,1.91,0,0,1,.43.66l1.5,3.18,1.39-.66-1.5-3.17a1.41,1.41,0,0,1-.15-.9A1,1,0,0,1,290.05,240.75Z"/><path class="cls-5" d="M299.65,240.9a1.77,1.77,0,0,1-.37-.57l-1.35-2.86a1.45,1.45,0,0,0-1.37-.89,3.26,3.26,0,0,0-1.46.36,3.34,3.34,0,0,0-1.38,1,2.07,2.07,0,0,0-.11,1.93l1.34-.63a1,1,0,0,1-.05-.57.92.92,0,0,1,.56-.57,1.67,1.67,0,0,1,.64-.19.58.58,0,0,1,.57.38.4.4,0,0,1,0,.39.85.85,0,0,1-.28.25l-1.16.78a2.1,2.1,0,0,0-.88,1.05,1.76,1.76,0,0,0,.13,1.37,1.6,1.6,0,0,0,1.07.94,1.87,1.87,0,0,0,1.27-.16,2.42,2.42,0,0,0,1-.78,2.88,2.88,0,0,0,.38-.8,3,3,0,0,0,.42.57l1.5-.71L300,241A.43.43,0,0,1,299.65,240.9Zm-2.15.14a1.52,1.52,0,0,1-.73.7.75.75,0,0,1-.49.06.65.65,0,0,1-.45-.39.73.73,0,0,1,0-.72,1.82,1.82,0,0,1,.54-.5,4.78,4.78,0,0,0,.59-.46,1.21,1.21,0,0,0,.25-.31l.32.68A1,1,0,0,1,297.5,241Z"/><path class="cls-5" d="M303.37,233.19l-1.33.63.35.79a1.74,1.74,0,0,0-2-.19,2.19,2.19,0,0,0-1.22,1.41,3.91,3.91,0,0,0,2,4.11,2.29,2.29,0,0,0,1.93-.1,1.8,1.8,0,0,0,.82-.69,1.74,1.74,0,0,0,.22-.77h0l.3.64a1.14,1.14,0,0,1-.53,1.74,1.49,1.49,0,0,1-.86.2.71.71,0,0,1-.37-.27l-1.51.71a1.5,1.5,0,0,0,1.32.87,3.4,3.4,0,0,0,1.74-.37q1.71-.81,1.9-2a3,3,0,0,0-.38-1.73Zm-.61,5.36a1.05,1.05,0,0,1-1.09-.08,2,2,0,0,1-.7-.87,2.16,2.16,0,0,1-.25-1.44,1,1,0,0,1,.57-.69,1.15,1.15,0,0,1,1.11,0,2,2,0,0,1,.81,1,2.21,2.21,0,0,1,.26,1.16A1.13,1.13,0,0,1,302.76,238.55Z"/><path class="cls-5" d="M309.47,234.88a.78.78,0,0,1-.13.58,1.2,1.2,0,0,1-.49.42,1.31,1.31,0,0,1-1,.12,1.78,1.78,0,0,1-.84-.82l3.63-1.72-.12-.25a3.28,3.28,0,0,0-2-2,2.68,2.68,0,0,0-1.89.22,2.52,2.52,0,0,0-1.62,2.12,3.39,3.39,0,0,0,.34,1.76,3.33,3.33,0,0,0,1.83,1.91,2.9,2.9,0,0,0,2.18-.26,2.78,2.78,0,0,0,1.2-1,2.47,2.47,0,0,0,.33-1.77Zm-2.93-1.61a1.09,1.09,0,0,1,.62-.65,1.11,1.11,0,0,1,.79-.08,1.33,1.33,0,0,1,.81.69l-2.16,1A1.55,1.55,0,0,1,306.54,233.27Z"/><polygon class="cls-5" points="257.41 306.37 259.74 311.35 254.56 307.72 252.99 308.46 256.36 315.59 257.75 314.93 255.36 309.83 260.69 313.55 262.18 312.84 258.81 305.71 257.41 306.37"/><path class="cls-5" d="M265.54,305.44a3,3,0,0,0-3.6,4.28,3,3,0,0,0,1.81,1.72,3.14,3.14,0,0,0,1.78-6Zm-.13,4.61a1.23,1.23,0,0,1-1.31-.06,2.32,2.32,0,0,1-.73-.95,2.35,2.35,0,0,1-.26-1.18,1.39,1.39,0,0,1,2.08-1,2.78,2.78,0,0,1,1,2.12A1.22,1.22,0,0,1,265.41,310Z"/><rect class="cls-5" x="270.56" y="300.18" width="1.65" height="7.89" transform="translate(-103.97 145.23) rotate(-25.31)"/><path class="cls-5" d="M279.8,298.43a2.11,2.11,0,0,0-1.54.16,1.65,1.65,0,0,0-.81.78,2.71,2.71,0,0,0-.2.73,2.29,2.29,0,0,0-.91-.36,2.09,2.09,0,0,0-1.85,1,2.1,2.1,0,0,0-.2.81l-.37-.78-1.33.63,2.5,5.29,1.39-.66L275,302.85a1.39,1.39,0,0,1-.15-.85.85.85,0,0,1,.53-.59.81.81,0,0,1,.91,0,1.91,1.91,0,0,1,.43.66l1.5,3.18,1.39-.66-1.5-3.17a1.41,1.41,0,0,1-.15-.9,1,1,0,0,1,.58-.63.75.75,0,0,1,.67,0,1.38,1.38,0,0,1,.58.7l1.52,3.21,1.39-.66-1.73-3.66A1.84,1.84,0,0,0,279.8,298.43Z"/><path class="cls-5" d="M288.11,300.05a1.75,1.75,0,0,1-.37-.57l-1.35-2.86a1.45,1.45,0,0,0-1.37-.9,3.29,3.29,0,0,0-1.46.36,3.36,3.36,0,0,0-1.38,1,2.08,2.08,0,0,0-.11,1.93l1.34-.64a1,1,0,0,1-.05-.57.92.92,0,0,1,.56-.57,1.66,1.66,0,0,1,.64-.19.58.58,0,0,1,.57.38.4.4,0,0,1,0,.39.85.85,0,0,1-.28.25l-1.16.78a2.1,2.1,0,0,0-.88,1.05,1.75,1.75,0,0,0,.13,1.37,1.6,1.6,0,0,0,1.07.94,1.86,1.86,0,0,0,1.27-.16,2.43,2.43,0,0,0,1-.78,2.86,2.86,0,0,0,.38-.8,3,3,0,0,0,.42.57l1.5-.71-.1-.21A.42.42,0,0,1,288.11,300.05Zm-2.15.14a1.52,1.52,0,0,1-.73.7.75.75,0,0,1-.49.06.65.65,0,0,1-.45-.39.73.73,0,0,1,0-.72,1.8,1.8,0,0,1,.54-.5,4.76,4.76,0,0,0,.59-.46,1.23,1.23,0,0,0,.25-.31l.32.68A1,1,0,0,1,286,300.2Z"/><path class="cls-5" d="M291.82,292.35l-1.33.63.35.8a1.73,1.73,0,0,0-2-.19,2.19,2.19,0,0,0-1.22,1.4,3.91,3.91,0,0,0,2,4.11,2.3,2.3,0,0,0,1.93-.1,1.81,1.81,0,0,0,.82-.69,1.73,1.73,0,0,0,.22-.77h0l.3.64a1.14,1.14,0,0,1-.53,1.74,1.49,1.49,0,0,1-.86.2.71.71,0,0,1-.37-.27l-1.51.71a1.5,1.5,0,0,0,1.32.87,3.4,3.4,0,0,0,1.74-.37q1.71-.81,1.9-2a3,3,0,0,0-.38-1.73Zm-.61,5.36a1,1,0,0,1-1.09-.08,2,2,0,0,1-.7-.87,2.16,2.16,0,0,1-.25-1.44,1,1,0,0,1,.57-.68,1.15,1.15,0,0,1,1.11,0,2,2,0,0,1,.81,1,2.21,2.21,0,0,1,.26,1.16A1.13,1.13,0,0,1,291.21,297.71Z"/><path class="cls-5" d="M297.93,294a.78.78,0,0,1-.13.58,1.2,1.2,0,0,1-.49.42,1.31,1.31,0,0,1-1,.12,1.78,1.78,0,0,1-.84-.82l3.63-1.72-.12-.25a3.28,3.28,0,0,0-2-2,2.66,2.66,0,0,0-1.89.22,2.52,2.52,0,0,0-1.62,2.11,3.39,3.39,0,0,0,.34,1.76,3.34,3.34,0,0,0,1.83,1.91,2.89,2.89,0,0,0,2.18-.26,2.78,2.78,0,0,0,1.2-1,2.47,2.47,0,0,0,.33-1.77ZM295,292.43a1.09,1.09,0,0,1,.62-.65,1.12,1.12,0,0,1,.79-.08,1.34,1.34,0,0,1,.81.69l-2.16,1A1.55,1.55,0,0,1,295,292.43Z"/><polygon class="cls-5" points="214.05 217.3 210.68 210.17 209.29 210.83 211.62 215.81 206.44 212.18 204.86 212.92 208.23 220.05 209.63 219.39 207.24 214.29 212.56 218.01 214.05 217.3"/><path class="cls-5" d="M215.63,215.9a3.29,3.29,0,0,0,3.78-1.79,3.47,3.47,0,0,0-2-4.22,3.29,3.29,0,0,0-3.78,1.79,3.46,3.46,0,0,0,2,4.22Zm.13-4.61a1.23,1.23,0,0,1,1.31.06,2.33,2.33,0,0,1,.73.95,2.36,2.36,0,0,1,.26,1.18,1.39,1.39,0,0,1-2.08,1,2.79,2.79,0,0,1-1-2.12A1.22,1.22,0,0,1,215.76,211.29Z"/><rect class="cls-5" x="222.44" y="204.64" width="1.65" height="7.89" transform="translate(-67.74 115.48) rotate(-25.31)"/><path class="cls-5" d="M230.38,204.37a.76.76,0,0,1,.67,0,1.38,1.38,0,0,1,.58.7l1.52,3.21,1.39-.66L232.81,204a1.84,1.84,0,0,0-1.13-1.06,2.12,2.12,0,0,0-1.54.16,1.65,1.65,0,0,0-.81.78,2.72,2.72,0,0,0-.2.73,2.3,2.3,0,0,0-.91-.36,2.09,2.09,0,0,0-1.85,1,2.1,2.1,0,0,0-.2.81l-.37-.78-1.33.63,2.5,5.29,1.39-.66-1.52-3.22a1.38,1.38,0,0,1-.15-.85.85.85,0,0,1,.53-.59.81.81,0,0,1,.91,0,1.91,1.91,0,0,1,.43.66l1.5,3.18,1.39-.66L230,205.9a1.41,1.41,0,0,1-.15-.9A1,1,0,0,1,230.38,204.37Z"/><path class="cls-5" d="M240,204.51a1.75,1.75,0,0,1-.37-.57l-1.35-2.86a1.45,1.45,0,0,0-1.37-.9,3.26,3.26,0,0,0-1.46.36,3.35,3.35,0,0,0-1.38,1,2.08,2.08,0,0,0-.11,1.93l1.34-.63a1,1,0,0,1-.05-.57.92.92,0,0,1,.56-.57,1.68,1.68,0,0,1,.64-.19.58.58,0,0,1,.57.38.4.4,0,0,1,0,.39.85.85,0,0,1-.28.25l-1.16.78a2.09,2.09,0,0,0-.88,1.05,1.76,1.76,0,0,0,.13,1.37,1.6,1.6,0,0,0,1.07.94,1.87,1.87,0,0,0,1.27-.16,2.42,2.42,0,0,0,1-.78,2.86,2.86,0,0,0,.38-.8,3.05,3.05,0,0,0,.42.57l1.5-.71-.1-.21A.43.43,0,0,1,240,204.51Zm-2.15.14a1.52,1.52,0,0,1-.73.7.75.75,0,0,1-.49.06.65.65,0,0,1-.45-.39.73.73,0,0,1,0-.72,1.79,1.79,0,0,1,.54-.5,4.67,4.67,0,0,0,.59-.46,1.21,1.21,0,0,0,.25-.3l.32.68A1,1,0,0,1,237.83,204.66Z"/><path class="cls-5" d="M243.7,196.81l-1.33.63.35.79a1.74,1.74,0,0,0-2-.19,2.19,2.19,0,0,0-1.22,1.41,3.91,3.91,0,0,0,2,4.11,2.29,2.29,0,0,0,1.93-.1,1.81,1.81,0,0,0,.82-.69,1.73,1.73,0,0,0,.22-.77h0l.3.64a1.14,1.14,0,0,1-.53,1.73,1.49,1.49,0,0,1-.86.2.71.71,0,0,1-.37-.27l-1.51.71a1.5,1.5,0,0,0,1.32.87,3.41,3.41,0,0,0,1.74-.37q1.71-.81,1.9-2a3,3,0,0,0-.38-1.73Zm-.61,5.36a1,1,0,0,1-1.09-.08,2,2,0,0,1-.7-.87,2.16,2.16,0,0,1-.25-1.44,1,1,0,0,1,.57-.68,1.15,1.15,0,0,1,1.11,0,2,2,0,0,1,.81,1,2.21,2.21,0,0,1,.26,1.16A1.13,1.13,0,0,1,243.09,202.17Z"/><path class="cls-5" d="M249.8,198.5a.78.78,0,0,1-.13.59,1.19,1.19,0,0,1-.49.41,1.31,1.31,0,0,1-1,.12,1.79,1.79,0,0,1-.84-.82l3.63-1.72-.12-.25a3.28,3.28,0,0,0-2-2,2.67,2.67,0,0,0-1.89.22,2.52,2.52,0,0,0-1.62,2.11,3.39,3.39,0,0,0,.34,1.76,3.33,3.33,0,0,0,1.83,1.91,2.89,2.89,0,0,0,2.18-.26,2.8,2.8,0,0,0,1.2-1,2.47,2.47,0,0,0,.33-1.77Zm-2.93-1.61a1.09,1.09,0,0,1,.62-.65,1.12,1.12,0,0,1,.79-.08,1.34,1.34,0,0,1,.81.69l-2.16,1A1.55,1.55,0,0,1,246.87,196.89Z"/><polygon class="cls-5" points="282.78 184.8 279.41 177.67 278.02 178.32 280.35 183.3 275.16 179.67 273.59 180.42 276.96 187.55 278.35 186.89 275.97 181.79 281.29 185.5 282.78 184.8"/><path class="cls-5" d="M286.14,177.39a3,3,0,0,0-3.6,4.28,3,3,0,0,0,1.81,1.72,3.29,3.29,0,0,0,3.78-1.79,3.46,3.46,0,0,0-2-4.22ZM286,182a1.23,1.23,0,0,1-1.31-.06,2.79,2.79,0,0,1-1-2.12,1.39,1.39,0,0,1,2.08-1,2.33,2.33,0,0,1,.73.95,2.36,2.36,0,0,1,.26,1.18A1.22,1.22,0,0,1,286,182Z"/><rect class="cls-5" x="291.17" y="172.13" width="1.65" height="7.89" transform="translate(-47.25 141.79) rotate(-25.32)"/><path class="cls-5" d="M299.11,171.86a.75.75,0,0,1,.67,0,1.38,1.38,0,0,1,.58.7l1.52,3.21,1.39-.66-1.73-3.66a1.83,1.83,0,0,0-1.13-1.06,2.11,2.11,0,0,0-1.54.16,1.65,1.65,0,0,0-.81.78,2.69,2.69,0,0,0-.2.73,2.29,2.29,0,0,0-.91-.36,2.09,2.09,0,0,0-1.85,1,2.11,2.11,0,0,0-.2.81l-.37-.78-1.33.63,2.5,5.29,1.39-.66-1.52-3.22a1.39,1.39,0,0,1-.15-.85.85.85,0,0,1,.53-.59.81.81,0,0,1,.91,0,1.91,1.91,0,0,1,.43.66l1.5,3.18,1.39-.66-1.5-3.17a1.41,1.41,0,0,1-.15-.9A1,1,0,0,1,299.11,171.86Z"/><path class="cls-5" d="M305.43,170.07l-1.16.78a2.1,2.1,0,0,0-.88,1.05,1.76,1.76,0,0,0,.13,1.37,1.6,1.6,0,0,0,1.07.94,1.87,1.87,0,0,0,1.27-.16,2.42,2.42,0,0,0,1-.78,2.88,2.88,0,0,0,.38-.8,3,3,0,0,0,.42.57l1.5-.71-.1-.21a.43.43,0,0,1-.33-.11,1.77,1.77,0,0,1-.37-.57L307,168.58a1.45,1.45,0,0,0-1.37-.89,3.26,3.26,0,0,0-1.46.36,3.34,3.34,0,0,0-1.38,1,2.07,2.07,0,0,0-.11,1.93l1.34-.63a1,1,0,0,1-.05-.57.92.92,0,0,1,.56-.57,1.67,1.67,0,0,1,.64-.19.58.58,0,0,1,.57.38.4.4,0,0,1,0,.39A.85.85,0,0,1,305.43,170.07Zm.58.78a1.21,1.21,0,0,0,.25-.31l.32.68a1,1,0,0,1,0,.93,1.52,1.52,0,0,1-.73.7.75.75,0,0,1-.49.06.65.65,0,0,1-.45-.39.73.73,0,0,1,0-.72,1.82,1.82,0,0,1,.54-.5A4.78,4.78,0,0,0,306,170.85Z"/><path class="cls-5" d="M312.43,164.3l-1.33.63.35.79a1.74,1.74,0,0,0-2-.19,2.19,2.19,0,0,0-1.22,1.41,3.91,3.91,0,0,0,2,4.11,2.29,2.29,0,0,0,1.93-.1,1.8,1.8,0,0,0,.82-.69,1.74,1.74,0,0,0,.22-.77h0l.3.64a1.14,1.14,0,0,1-.53,1.74,1.49,1.49,0,0,1-.86.2.71.71,0,0,1-.37-.27l-1.51.71a1.5,1.5,0,0,0,1.32.87,3.4,3.4,0,0,0,1.74-.37q1.71-.81,1.9-2a3,3,0,0,0-.38-1.73Zm-.61,5.36a1.05,1.05,0,0,1-1.09-.08,2,2,0,0,1-.7-.87,2.16,2.16,0,0,1-.25-1.44,1,1,0,0,1,.57-.69,1.15,1.15,0,0,1,1.11,0,2,2,0,0,1,.81,1,2.21,2.21,0,0,1,.26,1.16A1.13,1.13,0,0,1,311.82,169.66Z"/><path class="cls-5" d="M320,165.31l-1.43.68a.78.78,0,0,1-.13.58,1.2,1.2,0,0,1-.49.42,1.31,1.31,0,0,1-1,.12,1.78,1.78,0,0,1-.84-.82l3.63-1.72-.12-.25a3.28,3.28,0,0,0-2-2,2.68,2.68,0,0,0-1.89.22,2.52,2.52,0,0,0-1.62,2.12,3.39,3.39,0,0,0,.34,1.76,3.33,3.33,0,0,0,1.83,1.91,2.9,2.9,0,0,0,2.18-.26,2.78,2.78,0,0,0,1.2-1A2.47,2.47,0,0,0,320,165.31Zm-4.36-.93a1.09,1.09,0,0,1,.62-.65,1.11,1.11,0,0,1,.79-.08,1.33,1.33,0,0,1,.81.69l-2.16,1A1.55,1.55,0,0,1,315.6,164.38Z"/><polygon class="cls-5" points="202.86 149.03 206.23 156.16 207.63 155.5 205.24 150.4 210.56 154.12 212.05 153.41 208.68 146.28 207.29 146.94 209.62 151.91 204.44 148.28 202.86 149.03"/><path class="cls-5" d="M213.63,152a3.29,3.29,0,0,0,3.78-1.79,3.47,3.47,0,0,0-2-4.22,3.29,3.29,0,0,0-3.78,1.79,3.46,3.46,0,0,0,2,4.22Zm.13-4.61a1.23,1.23,0,0,1,1.31.06,2.33,2.33,0,0,1,.73.95,2.36,2.36,0,0,1,.26,1.18,1.39,1.39,0,0,1-2.08,1,2.79,2.79,0,0,1-1-2.12A1.22,1.22,0,0,1,213.76,147.39Z"/><rect class="cls-5" x="220.44" y="140.75" width="1.65" height="7.89" transform="translate(-40.62 108.49) rotate(-25.31)"/><path class="cls-5" d="M224.17,142.16l-.37-.78-1.33.63,2.5,5.29,1.39-.66-1.52-3.22a1.38,1.38,0,0,1-.15-.85.85.85,0,0,1,.53-.59.81.81,0,0,1,.91,0,1.91,1.91,0,0,1,.43.66l1.5,3.18,1.39-.66L228,142a1.41,1.41,0,0,1-.15-.9,1,1,0,0,1,.58-.63.76.76,0,0,1,.67,0,1.38,1.38,0,0,1,.58.7l1.52,3.21,1.39-.66-1.73-3.66a1.84,1.84,0,0,0-1.13-1.06,2.12,2.12,0,0,0-1.54.16,1.65,1.65,0,0,0-.81.78,2.72,2.72,0,0,0-.2.73,2.3,2.3,0,0,0-.91-.36,2.09,2.09,0,0,0-1.85,1A2.1,2.1,0,0,0,224.17,142.16Z"/><path class="cls-5" d="M235.14,142.66a2.42,2.42,0,0,0,1-.78,2.86,2.86,0,0,0,.38-.8,3.05,3.05,0,0,0,.42.57l1.5-.71-.1-.21a.43.43,0,0,1-.33-.11,1.75,1.75,0,0,1-.37-.57l-1.35-2.86a1.45,1.45,0,0,0-1.37-.9,3.26,3.26,0,0,0-1.46.36,3.35,3.35,0,0,0-1.38,1,2.08,2.08,0,0,0-.11,1.93l1.34-.63a1,1,0,0,1-.05-.57.92.92,0,0,1,.56-.57,1.68,1.68,0,0,1,.64-.19.58.58,0,0,1,.57.38.4.4,0,0,1,0,.39.85.85,0,0,1-.28.25l-1.16.78a2.09,2.09,0,0,0-.88,1.05,1.76,1.76,0,0,0,.13,1.37,1.6,1.6,0,0,0,1.07.94A1.87,1.87,0,0,0,235.14,142.66Zm-1-2.25a1.79,1.79,0,0,1,.54-.5,4.67,4.67,0,0,0,.59-.46,1.21,1.21,0,0,0,.25-.3l.32.68a1,1,0,0,1,0,.93,1.52,1.52,0,0,1-.73.7.75.75,0,0,1-.49.06.65.65,0,0,1-.45-.39A.73.73,0,0,1,234.15,140.42Z"/><path class="cls-5" d="M242.23,140.49a1.49,1.49,0,0,1-.86.2.71.71,0,0,1-.37-.27l-1.51.71a1.5,1.5,0,0,0,1.32.87,3.41,3.41,0,0,0,1.74-.37q1.71-.81,1.9-2a3,3,0,0,0-.38-1.73l-2.37-5-1.33.63.35.79a1.74,1.74,0,0,0-2-.19,2.19,2.19,0,0,0-1.22,1.41,3.91,3.91,0,0,0,2,4.11,2.29,2.29,0,0,0,1.93-.1,1.81,1.81,0,0,0,.82-.69,1.73,1.73,0,0,0,.22-.77h0l.3.64A1.14,1.14,0,0,1,242.23,140.49Zm-1.14-2.21a1,1,0,0,1-1.09-.08,2,2,0,0,1-.7-.87,2.16,2.16,0,0,1-.25-1.44,1,1,0,0,1,.57-.68,1.15,1.15,0,0,1,1.11,0,2,2,0,0,1,.81,1,2.21,2.21,0,0,1,.26,1.16A1.13,1.13,0,0,1,241.09,138.28Z"/><path class="cls-5" d="M248.84,132.93a3.28,3.28,0,0,0-2-2,2.67,2.67,0,0,0-1.89.22,2.52,2.52,0,0,0-1.62,2.11,3.39,3.39,0,0,0,.34,1.76,3.33,3.33,0,0,0,1.83,1.91,2.89,2.89,0,0,0,2.18-.26,2.8,2.8,0,0,0,1.2-1,2.47,2.47,0,0,0,.33-1.77l-1.43.68a.78.78,0,0,1-.13.59,1.19,1.19,0,0,1-.49.41,1.31,1.31,0,0,1-1,.12,1.79,1.79,0,0,1-.84-.82l3.63-1.72Zm-3.9,1a1.55,1.55,0,0,1-.06-1,1.09,1.09,0,0,1,.62-.65,1.12,1.12,0,0,1,.79-.08,1.34,1.34,0,0,1,.81.69Z"/><polygon class="cls-5" points="271.59 116.53 274.96 123.66 276.35 123 273.97 117.9 279.29 121.61 280.78 120.9 277.41 113.77 276.02 114.43 278.35 119.41 273.16 115.78 271.59 116.53"/><path class="cls-5" d="M284.14,113.5a3,3,0,0,0-3.6,4.28,3,3,0,0,0,1.81,1.72,3.29,3.29,0,0,0,3.78-1.79,3.46,3.46,0,0,0-2-4.22Zm-.13,4.61a1.23,1.23,0,0,1-1.31-.06,2.79,2.79,0,0,1-1-2.12,1.39,1.39,0,0,1,2.08-1,2.33,2.33,0,0,1,.73.95,2.36,2.36,0,0,1,.26,1.18A1.22,1.22,0,0,1,284,118.11Z"/><rect class="cls-5" x="289.17" y="108.24" width="1.65" height="7.89" transform="translate(-20.12 134.75) rotate(-25.31)"/><path class="cls-5" d="M298.41,106.49a2.11,2.11,0,0,0-1.54.16,1.65,1.65,0,0,0-.81.78,2.69,2.69,0,0,0-.2.73,2.29,2.29,0,0,0-.91-.36,2.09,2.09,0,0,0-1.85,1,2.11,2.11,0,0,0-.2.81l-.37-.78-1.33.63,2.5,5.29,1.39-.66-1.52-3.22a1.39,1.39,0,0,1-.15-.85.85.85,0,0,1,.53-.59.81.81,0,0,1,.91,0,1.91,1.91,0,0,1,.43.66l1.5,3.18,1.39-.66-1.5-3.17a1.41,1.41,0,0,1-.15-.9,1,1,0,0,1,.58-.63.75.75,0,0,1,.67,0,1.38,1.38,0,0,1,.58.7l1.52,3.21,1.39-.66-1.73-3.66A1.83,1.83,0,0,0,298.41,106.49Z"/><path class="cls-5" d="M303.43,106.18l-1.16.78a2.1,2.1,0,0,0-.88,1.05,1.76,1.76,0,0,0,.13,1.37,1.6,1.6,0,0,0,1.07.94,1.87,1.87,0,0,0,1.27-.16,2.42,2.42,0,0,0,1-.78,2.88,2.88,0,0,0,.38-.8,3,3,0,0,0,.42.57l1.5-.71-.1-.21a.43.43,0,0,1-.33-.11,1.77,1.77,0,0,1-.37-.57L305,104.68a1.45,1.45,0,0,0-1.37-.89,3.26,3.26,0,0,0-1.46.36,3.34,3.34,0,0,0-1.38,1,2.07,2.07,0,0,0-.11,1.93l1.34-.63a1,1,0,0,1-.05-.57.92.92,0,0,1,.56-.57,1.67,1.67,0,0,1,.64-.19.58.58,0,0,1,.57.38.4.4,0,0,1,0,.39A.85.85,0,0,1,303.43,106.18Zm.58.78a1.21,1.21,0,0,0,.25-.31l.32.68a1,1,0,0,1,0,.93,1.52,1.52,0,0,1-.73.7.75.75,0,0,1-.49.06.65.65,0,0,1-.45-.39.73.73,0,0,1,0-.72,1.82,1.82,0,0,1,.54-.5A4.78,4.78,0,0,0,304,107Z"/><path class="cls-5" d="M309.45,101.83a1.74,1.74,0,0,0-2-.19,2.19,2.19,0,0,0-1.22,1.41,3.91,3.91,0,0,0,2,4.11,2.29,2.29,0,0,0,1.93-.1,1.8,1.8,0,0,0,.82-.69,1.74,1.74,0,0,0,.22-.77h0l.3.64A1.14,1.14,0,0,1,311,108a1.49,1.49,0,0,1-.86.2.71.71,0,0,1-.37-.27l-1.51.71a1.5,1.5,0,0,0,1.32.87,3.4,3.4,0,0,0,1.74-.37q1.71-.81,1.9-2a3,3,0,0,0-.38-1.73l-2.37-5-1.33.63Zm.83,1.85a2.21,2.21,0,0,1,.26,1.16,1.13,1.13,0,0,1-.71.93,1.05,1.05,0,0,1-1.09-.08,2,2,0,0,1-.7-.87,2.16,2.16,0,0,1-.25-1.44,1,1,0,0,1,.57-.69,1.15,1.15,0,0,1,1.11,0A2,2,0,0,1,310.27,103.68Z"/><path class="cls-5" d="M314.26,104.47a2.9,2.9,0,0,0,2.18-.26,2.78,2.78,0,0,0,1.2-1,2.47,2.47,0,0,0,.33-1.77l-1.43.68a.78.78,0,0,1-.13.58,1.2,1.2,0,0,1-.49.42,1.31,1.31,0,0,1-1,.12,1.78,1.78,0,0,1-.84-.82l3.63-1.72-.12-.25a3.28,3.28,0,0,0-2-2,2.68,2.68,0,0,0-1.89.22,2.52,2.52,0,0,0-1.62,2.12,3.39,3.39,0,0,0,.34,1.76A3.33,3.33,0,0,0,314.26,104.47Zm-.66-4a1.09,1.09,0,0,1,.62-.65,1.11,1.11,0,0,1,.79-.08,1.33,1.33,0,0,1,.81.69l-2.16,1A1.55,1.55,0,0,1,313.6,100.49Z"/><polygon class="cls-5" points="18.45 56.64 21.82 63.77 23.22 63.12 20.83 58.02 26.15 61.73 27.64 61.02 24.27 53.89 22.88 54.55 25.21 59.53 20.03 55.9 18.45 56.64"/><path class="cls-5" d="M27.22,55.41a3.08,3.08,0,0,0,4.2,4A3,3,0,0,0,33,57.83a3.46,3.46,0,0,0-2-4.22,3.29,3.29,0,0,0-3.78,1.79Zm2.12-.4a1.22,1.22,0,0,1,1.31.06,2.33,2.33,0,0,1,.73.95,2.36,2.36,0,0,1,.26,1.18,1.39,1.39,0,0,1-2.08,1,2.79,2.79,0,0,1-1-2.12A1.22,1.22,0,0,1,29.35,55Z"/><rect class="cls-5" x="36.03" y="48.36" width="1.65" height="7.89" transform="translate(-18.83 20.78) rotate(-25.31)"/><path class="cls-5" d="M44,48.09a.75.75,0,0,1,.67,0,1.38,1.38,0,0,1,.58.7L46.74,52l1.39-.66-1.73-3.66a1.83,1.83,0,0,0-1.13-1.06,2.11,2.11,0,0,0-1.54.16,1.65,1.65,0,0,0-.81.78,2.69,2.69,0,0,0-.2.73,2.29,2.29,0,0,0-.91-.36A2.09,2.09,0,0,0,40,49a2.11,2.11,0,0,0-.2.81L39.39,49l-1.33.63,2.5,5.29L42,54.26,40.43,51a1.39,1.39,0,0,1-.15-.85.85.85,0,0,1,.53-.59.81.81,0,0,1,.91,0,1.91,1.91,0,0,1,.43.66l1.5,3.18L45,52.79l-1.5-3.17a1.41,1.41,0,0,1-.15-.9A1,1,0,0,1,44,48.09Z"/><path class="cls-5" d="M53.57,48.24a1.77,1.77,0,0,1-.37-.57L51.85,44.8a1.45,1.45,0,0,0-1.37-.89,3.26,3.26,0,0,0-1.46.36,3.34,3.34,0,0,0-1.38,1,2.07,2.07,0,0,0-.11,1.93l1.34-.63a1,1,0,0,1-.05-.57.92.92,0,0,1,.56-.57,1.67,1.67,0,0,1,.64-.19.58.58,0,0,1,.57.38.4.4,0,0,1,0,.39.85.85,0,0,1-.28.25l-1.16.78a2.1,2.1,0,0,0-.88,1.05,1.76,1.76,0,0,0,.13,1.37,1.6,1.6,0,0,0,1.07.94,1.87,1.87,0,0,0,1.27-.16,2.42,2.42,0,0,0,1-.78,2.88,2.88,0,0,0,.38-.8,3,3,0,0,0,.42.57l1.5-.71-.1-.21A.43.43,0,0,1,53.57,48.24Zm-2.15.14a1.52,1.52,0,0,1-.73.7.75.75,0,0,1-.49.06.65.65,0,0,1-.45-.39.73.73,0,0,1,0-.72,1.82,1.82,0,0,1,.54-.5,4.78,4.78,0,0,0,.59-.46,1.21,1.21,0,0,0,.25-.31l.32.68A1,1,0,0,1,51.42,48.38Z"/><path class="cls-5" d="M57.29,40.53,56,41.16l.35.79a1.74,1.74,0,0,0-2-.19,2.19,2.19,0,0,0-1.22,1.41,3.91,3.91,0,0,0,2,4.11,2.29,2.29,0,0,0,1.93-.1,1.8,1.8,0,0,0,.82-.69,1.74,1.74,0,0,0,.22-.77h0l.3.64a1.14,1.14,0,0,1-.53,1.74,1.49,1.49,0,0,1-.86.2.71.71,0,0,1-.37-.27l-1.51.71a1.5,1.5,0,0,0,1.32.87,3.4,3.4,0,0,0,1.74-.37q1.71-.81,1.9-2a3,3,0,0,0-.38-1.73Zm-.61,5.36a1.05,1.05,0,0,1-1.09-.08,2,2,0,0,1-.7-.87,2.16,2.16,0,0,1-.25-1.44,1,1,0,0,1,.57-.69,1.15,1.15,0,0,1,1.11,0,2,2,0,0,1,.81,1A2.21,2.21,0,0,1,57.39,45,1.13,1.13,0,0,1,56.68,45.89Z"/><path class="cls-5" d="M63.39,42.22a.78.78,0,0,1-.13.58,1.2,1.2,0,0,1-.49.42,1.31,1.31,0,0,1-1,.12,1.78,1.78,0,0,1-.84-.82l3.63-1.72-.12-.25a3.28,3.28,0,0,0-2-2,2.68,2.68,0,0,0-1.89.22,2.52,2.52,0,0,0-1.62,2.12,3.39,3.39,0,0,0,.34,1.76,3.33,3.33,0,0,0,1.83,1.91,2.9,2.9,0,0,0,2.18-.26,2.78,2.78,0,0,0,1.2-1,2.47,2.47,0,0,0,.33-1.77Zm-2.93-1.61a1.09,1.09,0,0,1,.62-.65,1.11,1.11,0,0,1,.79-.08,1.33,1.33,0,0,1,.81.69l-2.16,1A1.55,1.55,0,0,1,60.47,40.61Z"/><polygon class="cls-5" points="105.72 24.62 103.33 19.52 108.65 23.23 110.14 22.52 106.77 15.39 105.38 16.05 107.71 21.03 102.53 17.4 100.95 18.14 104.33 25.27 105.72 24.62"/><path class="cls-5" d="M111.72,21.12a3.29,3.29,0,0,0,3.78-1.79,3,3,0,0,0-.18-2.49,3,3,0,0,0-1.81-1.72,3,3,0,0,0-3.6,4.28A3,3,0,0,0,111.72,21.12Zm.13-4.61a1.22,1.22,0,0,1,1.31.06,2.33,2.33,0,0,1,.73.95,2.36,2.36,0,0,1,.26,1.18,1.39,1.39,0,0,1-2.08,1,2.33,2.33,0,0,1-.73-.95,2.35,2.35,0,0,1-.26-1.18A1.22,1.22,0,0,1,111.85,16.51Z"/><rect class="cls-5" x="118.53" y="9.86" width="1.65" height="7.89" transform="translate(5.56 52.36) rotate(-25.31)"/><path class="cls-5" d="M124.45,15.76l-1.52-3.22a1.39,1.39,0,0,1-.15-.85.85.85,0,0,1,.53-.59.81.81,0,0,1,.91,0,1.91,1.91,0,0,1,.43.66l1.5,3.18,1.39-.66L126,11.12a1.41,1.41,0,0,1-.15-.9,1,1,0,0,1,.58-.63.75.75,0,0,1,.67,0,1.38,1.38,0,0,1,.58.7l1.52,3.21,1.39-.66-1.73-3.66a1.84,1.84,0,0,0-1.13-1.06,2.11,2.11,0,0,0-1.54.16,1.65,1.65,0,0,0-.81.78,2.7,2.7,0,0,0-.2.73,2.29,2.29,0,0,0-.91-.36,2.09,2.09,0,0,0-1.85,1,2.11,2.11,0,0,0-.2.81l-.37-.78-1.33.63,2.5,5.29Z"/><path class="cls-5" d="M131.37,8.1a1,1,0,0,1-.05-.57.92.92,0,0,1,.56-.57,1.66,1.66,0,0,1,.64-.19.58.58,0,0,1,.57.38.4.4,0,0,1,0,.39.85.85,0,0,1-.28.25l-1.16.78a2.1,2.1,0,0,0-.88,1.05,1.76,1.76,0,0,0,.13,1.37,1.6,1.6,0,0,0,1.07.94,1.87,1.87,0,0,0,1.27-.16,2.42,2.42,0,0,0,1-.78,2.88,2.88,0,0,0,.38-.8,3,3,0,0,0,.42.57l1.5-.71-.1-.21a.43.43,0,0,1-.33-.11,1.76,1.76,0,0,1-.37-.57L134.35,6.3a1.45,1.45,0,0,0-1.37-.9,3.27,3.27,0,0,0-1.46.36,3.35,3.35,0,0,0-1.38,1A2.08,2.08,0,0,0,130,8.74Zm2.25.17.32.68a1,1,0,0,1,0,.93,1.52,1.52,0,0,1-.73.7.75.75,0,0,1-.49.06.65.65,0,0,1-.45-.39.73.73,0,0,1,0-.72,1.81,1.81,0,0,1,.54-.5,4.77,4.77,0,0,0,.59-.46A1.22,1.22,0,0,0,133.62,8.27Z"/><path class="cls-5" d="M137.56,8.78a2.29,2.29,0,0,0,1.93-.1A1.81,1.81,0,0,0,140.3,8a1.73,1.73,0,0,0,.22-.77h0l.3.64a1.14,1.14,0,0,1-.53,1.74,1.49,1.49,0,0,1-.86.2.71.71,0,0,1-.37-.27l-1.51.71a1.5,1.5,0,0,0,1.32.87,3.4,3.4,0,0,0,1.74-.37q1.71-.81,1.9-2A3,3,0,0,0,142.16,7l-2.37-5-1.33.63.35.8a1.74,1.74,0,0,0-2-.19,2.19,2.19,0,0,0-1.22,1.41A3.28,3.28,0,0,0,135.91,7,3.29,3.29,0,0,0,137.56,8.78ZM137.14,5a1,1,0,0,1,.57-.69,1.15,1.15,0,0,1,1.11,0,2,2,0,0,1,.81,1,2.21,2.21,0,0,1,.26,1.16,1.13,1.13,0,0,1-.71.93,1.05,1.05,0,0,1-1.09-.08,2,2,0,0,1-.7-.87A2.16,2.16,0,0,1,137.14,5Z"/><path class="cls-5" d="M143.62,6.09a2.9,2.9,0,0,0,2.18-.26,2.78,2.78,0,0,0,1.2-1A2.47,2.47,0,0,0,147.33,3l-1.43.68a.78.78,0,0,1-.13.58,1.2,1.2,0,0,1-.49.42,1.31,1.31,0,0,1-1,.12,1.78,1.78,0,0,1-.84-.82L147,2.3,146.93,2a3.28,3.28,0,0,0-2-2,2.67,2.67,0,0,0-1.89.22,2.52,2.52,0,0,0-1.62,2.11,3.39,3.39,0,0,0,.34,1.76A3.34,3.34,0,0,0,143.62,6.09Zm-.66-4a1.09,1.09,0,0,1,.62-.65,1.11,1.11,0,0,1,.79-.08,1.34,1.34,0,0,1,.81.69l-2.16,1A1.55,1.55,0,0,1,143,2.11Z"/><polygon class="cls-5" points="18.22 24.62 15.83 19.52 21.15 23.23 22.64 22.52 19.27 15.39 17.88 16.05 20.21 21.03 15.03 17.4 13.45 18.14 16.82 25.27 18.22 24.62"/><path class="cls-5" d="M24.22,21.12A3.29,3.29,0,0,0,28,19.33a3,3,0,0,0-.18-2.49A3,3,0,0,0,26,15.12a3.29,3.29,0,0,0-3.78,1.79,3,3,0,0,0,.18,2.49A3,3,0,0,0,24.22,21.12Zm.13-4.61a1.23,1.23,0,0,1,1.31.06,2.33,2.33,0,0,1,.73.95,2.36,2.36,0,0,1,.26,1.18,1.39,1.39,0,0,1-2.08,1,2.33,2.33,0,0,1-.73-.95,2.35,2.35,0,0,1-.26-1.18A1.22,1.22,0,0,1,24.35,16.51Z"/><rect class="cls-5" x="31.03" y="9.86" width="1.65" height="7.89" transform="translate(-2.84 14.94) rotate(-25.31)"/><path class="cls-5" d="M37,15.76l-1.52-3.22a1.39,1.39,0,0,1-.15-.85.85.85,0,0,1,.53-.59.81.81,0,0,1,.91,0,1.92,1.92,0,0,1,.43.66L38.65,15,40,14.29l-1.5-3.17a1.4,1.4,0,0,1-.15-.9A1,1,0,0,1,39,9.59a.76.76,0,0,1,.67,0,1.38,1.38,0,0,1,.58.7l1.52,3.21,1.39-.66L41.41,9.17a1.84,1.84,0,0,0-1.13-1.06,2.12,2.12,0,0,0-1.54.16,1.65,1.65,0,0,0-.81.78,2.71,2.71,0,0,0-.2.73,2.3,2.3,0,0,0-.91-.36,2.1,2.1,0,0,0-1.85,1,2.11,2.11,0,0,0-.2.81l-.37-.78-1.33.63,2.5,5.29Z"/><path class="cls-5" d="M43.87,8.1a1,1,0,0,1-.05-.57A.92.92,0,0,1,44.38,7,1.68,1.68,0,0,1,45,6.77a.58.58,0,0,1,.57.38.4.4,0,0,1,0,.39.85.85,0,0,1-.28.25l-1.16.78a2.1,2.1,0,0,0-.88,1.05A1.76,1.76,0,0,0,43.39,11a1.6,1.6,0,0,0,1.07.94,1.86,1.86,0,0,0,1.27-.16,2.42,2.42,0,0,0,1-.78,2.86,2.86,0,0,0,.38-.8,3.08,3.08,0,0,0,.42.57l1.5-.71-.1-.21a.43.43,0,0,1-.33-.11,1.75,1.75,0,0,1-.37-.57L46.85,6.3a1.45,1.45,0,0,0-1.37-.9A3.27,3.27,0,0,0,44,5.77a3.35,3.35,0,0,0-1.38,1,2.08,2.08,0,0,0-.11,1.93Zm2.25.17.32.68a1,1,0,0,1,0,.93,1.53,1.53,0,0,1-.73.7.75.75,0,0,1-.49.06.65.65,0,0,1-.45-.39.73.73,0,0,1,0-.72,1.8,1.8,0,0,1,.54-.5,4.67,4.67,0,0,0,.59-.46A1.21,1.21,0,0,0,46.12,8.27Z"/><path class="cls-5" d="M50.06,8.78A2.29,2.29,0,0,0,52,8.68,1.81,1.81,0,0,0,52.8,8,1.73,1.73,0,0,0,53,7.22h0l.3.64a1.14,1.14,0,0,1-.53,1.74,1.49,1.49,0,0,1-.86.2.71.71,0,0,1-.37-.27l-1.51.72a1.5,1.5,0,0,0,1.32.87,3.42,3.42,0,0,0,1.74-.37q1.71-.81,1.9-2A3,3,0,0,0,54.66,7L52.29,2,51,2.66l.35.8a1.74,1.74,0,0,0-2-.19A2.19,2.19,0,0,0,48.1,4.67,3.28,3.28,0,0,0,48.41,7,3.29,3.29,0,0,0,50.06,8.78ZM49.64,5a1,1,0,0,1,.57-.69,1.15,1.15,0,0,1,1.11,0,2,2,0,0,1,.81,1,2.21,2.21,0,0,1,.26,1.16,1.13,1.13,0,0,1-.71.93,1,1,0,0,1-1.09-.08,2,2,0,0,1-.7-.87A2.16,2.16,0,0,1,49.64,5Z"/><path class="cls-5" d="M56.12,6.09a2.9,2.9,0,0,0,2.18-.26,2.8,2.8,0,0,0,1.2-1A2.47,2.47,0,0,0,59.83,3l-1.43.68a.78.78,0,0,1-.13.59,1.19,1.19,0,0,1-.49.41,1.31,1.31,0,0,1-1,.12A1.78,1.78,0,0,1,55.92,4L59.55,2.3,59.43,2a3.28,3.28,0,0,0-2-2,2.67,2.67,0,0,0-1.89.22,2.52,2.52,0,0,0-1.62,2.11,3.39,3.39,0,0,0,.34,1.76A3.34,3.34,0,0,0,56.12,6.09Zm-.66-4a1.09,1.09,0,0,1,.62-.65,1.12,1.12,0,0,1,.79-.08,1.34,1.34,0,0,1,.81.69l-2.16,1A1.55,1.55,0,0,1,55.47,2.11Z"/><polygon class="cls-5" points="199.63 97.5 197.24 92.4 202.56 96.11 204.05 95.41 200.68 88.28 199.29 88.94 201.62 93.91 196.44 90.28 194.86 91.03 198.23 98.16 199.63 97.5"/><path class="cls-5" d="M205.63,94a3.29,3.29,0,0,0,3.78-1.79,3.47,3.47,0,0,0-2-4.22,3.29,3.29,0,0,0-3.78,1.79,3.46,3.46,0,0,0,2,4.22Zm.13-4.61a1.23,1.23,0,0,1,1.31.06,2.33,2.33,0,0,1,.73.95,2.36,2.36,0,0,1,.26,1.18,1.39,1.39,0,0,1-2.08,1,2.79,2.79,0,0,1-1-2.12A1.22,1.22,0,0,1,205.76,89.39Z"/><rect class="cls-5" x="212.44" y="82.75" width="1.65" height="7.89" transform="translate(-16.59 99.5) rotate(-25.31)"/><path class="cls-5" d="M218.36,88.64l-1.52-3.22a1.38,1.38,0,0,1-.15-.85.85.85,0,0,1,.53-.59.81.81,0,0,1,.91,0,1.91,1.91,0,0,1,.43.66l1.5,3.18,1.39-.66L220,84a1.41,1.41,0,0,1-.15-.9,1,1,0,0,1,.58-.63.76.76,0,0,1,.67,0,1.38,1.38,0,0,1,.58.7l1.52,3.21,1.39-.66-1.73-3.66A1.84,1.84,0,0,0,221.68,81a2.12,2.12,0,0,0-1.54.16,1.65,1.65,0,0,0-.81.78,2.72,2.72,0,0,0-.2.73,2.3,2.3,0,0,0-.91-.36,2.09,2.09,0,0,0-1.85,1,2.1,2.1,0,0,0-.2.81l-.37-.78-1.33.63L217,89.3Z"/><path class="cls-5" d="M226.7,80.68l-1.16.78a2.09,2.09,0,0,0-.88,1.05,1.76,1.76,0,0,0,.13,1.37,1.6,1.6,0,0,0,1.07.94,1.87,1.87,0,0,0,1.27-.16,2.42,2.42,0,0,0,1-.78,2.86,2.86,0,0,0,.38-.8,3.05,3.05,0,0,0,.42.57l1.5-.71-.1-.21a.43.43,0,0,1-.33-.11,1.75,1.75,0,0,1-.37-.57l-1.35-2.86a1.45,1.45,0,0,0-1.37-.9,3.26,3.26,0,0,0-1.46.36,3.35,3.35,0,0,0-1.38,1,2.08,2.08,0,0,0-.11,1.93l1.34-.63a1,1,0,0,1-.05-.57.92.92,0,0,1,.56-.57,1.68,1.68,0,0,1,.64-.19A.58.58,0,0,1,227,80a.4.4,0,0,1,0,.39A.85.85,0,0,1,226.7,80.68Zm.58.78a1.21,1.21,0,0,0,.25-.3l.32.68a1,1,0,0,1,0,.93,1.52,1.52,0,0,1-.73.7.75.75,0,0,1-.49.06.65.65,0,0,1-.45-.39.73.73,0,0,1,0-.72,1.79,1.79,0,0,1,.54-.5A4.67,4.67,0,0,0,227.28,81.46Z"/><path class="cls-5" d="M232.72,76.34a1.74,1.74,0,0,0-2-.19,2.19,2.19,0,0,0-1.22,1.41,3.91,3.91,0,0,0,2,4.11,2.29,2.29,0,0,0,1.93-.1,1.81,1.81,0,0,0,.82-.69,1.73,1.73,0,0,0,.22-.77h0l.3.64a1.14,1.14,0,0,1-.53,1.73,1.49,1.49,0,0,1-.86.2.71.71,0,0,1-.37-.27l-1.51.71a1.5,1.5,0,0,0,1.32.87,3.41,3.41,0,0,0,1.74-.37q1.71-.81,1.9-2a3,3,0,0,0-.38-1.73l-2.37-5-1.33.63Zm.83,1.85a2.21,2.21,0,0,1,.26,1.16,1.13,1.13,0,0,1-.71.93A1,1,0,0,1,232,80.2a2,2,0,0,1-.7-.87,2.16,2.16,0,0,1-.25-1.44,1,1,0,0,1,.57-.68,1.15,1.15,0,0,1,1.11,0A2,2,0,0,1,233.54,78.19Z"/><path class="cls-5" d="M240.84,74.93a3.28,3.28,0,0,0-2-2,2.67,2.67,0,0,0-1.89.22,2.52,2.52,0,0,0-1.62,2.11,3.39,3.39,0,0,0,.34,1.76A3.33,3.33,0,0,0,237.53,79a2.89,2.89,0,0,0,2.18-.26,2.8,2.8,0,0,0,1.2-1,2.47,2.47,0,0,0,.33-1.77l-1.43.68a.78.78,0,0,1-.13.59,1.19,1.19,0,0,1-.49.41,1.31,1.31,0,0,1-1,.12,1.79,1.79,0,0,1-.84-.82L241,75.18Zm-3.9,1a1.55,1.55,0,0,1-.06-1,1.09,1.09,0,0,1,.62-.65,1.12,1.12,0,0,1,.79-.08,1.34,1.34,0,0,1,.81.69Z"/><polygon class="cls-5" points="263.59 58.52 266.96 65.66 268.35 65 265.97 59.9 271.29 63.61 272.78 62.9 269.41 55.77 268.02 56.43 270.35 61.41 265.16 57.78 263.59 58.52"/><path class="cls-5" d="M274.36,61.5a3.29,3.29,0,0,0,3.78-1.79,3.46,3.46,0,0,0-2-4.22,3,3,0,0,0-3.6,4.28A3,3,0,0,0,274.36,61.5Zm.13-4.61a1.22,1.22,0,0,1,1.31.06,2.33,2.33,0,0,1,.73.95,2.36,2.36,0,0,1,.26,1.18,1.39,1.39,0,0,1-2.08,1,2.79,2.79,0,0,1-1-2.12A1.22,1.22,0,0,1,274.49,56.89Z"/><rect class="cls-5" x="281.17" y="50.24" width="1.65" height="7.89" transform="translate(3.91 125.78) rotate(-25.31)"/><path class="cls-5" d="M287.09,56.14l-1.52-3.22a1.39,1.39,0,0,1-.15-.85.85.85,0,0,1,.53-.59.81.81,0,0,1,.91,0,1.91,1.91,0,0,1,.43.66l1.5,3.18,1.39-.66-1.5-3.17a1.41,1.41,0,0,1-.15-.9,1,1,0,0,1,.58-.63.75.75,0,0,1,.67,0,1.38,1.38,0,0,1,.58.7l1.52,3.21,1.39-.66-1.73-3.66a1.83,1.83,0,0,0-1.13-1.06,2.11,2.11,0,0,0-1.54.16,1.65,1.65,0,0,0-.81.78,2.69,2.69,0,0,0-.2.73,2.29,2.29,0,0,0-.91-.36,2.09,2.09,0,0,0-1.85,1,2.11,2.11,0,0,0-.2.81l-.37-.78-1.33.63,2.5,5.29Z"/><path class="cls-5" d="M294,48.48a1,1,0,0,1-.05-.57.92.92,0,0,1,.56-.57,1.67,1.67,0,0,1,.64-.19.58.58,0,0,1,.57.38.4.4,0,0,1,0,.39.85.85,0,0,1-.28.25l-1.16.78a2.1,2.1,0,0,0-.88,1.05,1.76,1.76,0,0,0,.13,1.37,1.6,1.6,0,0,0,1.07.94,1.87,1.87,0,0,0,1.27-.16,2.42,2.42,0,0,0,1-.78,2.88,2.88,0,0,0,.38-.8,3,3,0,0,0,.42.57l1.5-.71-.1-.21a.43.43,0,0,1-.33-.11,1.77,1.77,0,0,1-.37-.57L297,46.68a1.45,1.45,0,0,0-1.37-.89,3.26,3.26,0,0,0-1.46.36,3.34,3.34,0,0,0-1.38,1,2.07,2.07,0,0,0-.11,1.93Zm2.25.17.32.68a1,1,0,0,1,0,.93,1.52,1.52,0,0,1-.73.7.75.75,0,0,1-.49.06.65.65,0,0,1-.45-.39.73.73,0,0,1,0-.72,1.82,1.82,0,0,1,.54-.5A4.78,4.78,0,0,0,296,49,1.21,1.21,0,0,0,296.25,48.65Z"/><path class="cls-5" d="M300.19,49.16a2.29,2.29,0,0,0,1.93-.1,1.8,1.8,0,0,0,.82-.69,1.74,1.74,0,0,0,.22-.77h0l.3.64A1.14,1.14,0,0,1,303,50a1.49,1.49,0,0,1-.86.2.71.71,0,0,1-.37-.27l-1.51.71a1.5,1.5,0,0,0,1.32.87,3.4,3.4,0,0,0,1.74-.37q1.71-.81,1.9-2a3,3,0,0,0-.38-1.73l-2.37-5-1.33.63.35.79a1.74,1.74,0,0,0-2-.19A2.19,2.19,0,0,0,298.24,45a3.91,3.91,0,0,0,2,4.11Zm-.42-3.78a1,1,0,0,1,.57-.69,1.15,1.15,0,0,1,1.11,0,2,2,0,0,1,.81,1,2.21,2.21,0,0,1,.26,1.16,1.13,1.13,0,0,1-.71.93,1.05,1.05,0,0,1-1.09-.08,2,2,0,0,1-.7-.87A2.16,2.16,0,0,1,299.78,45.38Z"/><path class="cls-5" d="M306.26,46.47a2.9,2.9,0,0,0,2.18-.26,2.78,2.78,0,0,0,1.2-1,2.47,2.47,0,0,0,.33-1.77l-1.43.68a.78.78,0,0,1-.13.58,1.2,1.2,0,0,1-.49.42,1.31,1.31,0,0,1-1,.12,1.78,1.78,0,0,1-.84-.82l3.63-1.72-.12-.25a3.28,3.28,0,0,0-2-2,2.68,2.68,0,0,0-1.89.22,2.52,2.52,0,0,0-1.62,2.12,3.39,3.39,0,0,0,.34,1.76A3.33,3.33,0,0,0,306.26,46.47Zm-.66-4a1.09,1.09,0,0,1,.62-.65,1.11,1.11,0,0,1,.79-.08,1.33,1.33,0,0,1,.81.69l-2.16,1A1.55,1.55,0,0,1,305.6,42.49Z"/><polygon class="cls-5" points="222.88 29.61 220.49 24.51 225.81 28.22 227.3 27.52 223.93 20.39 222.54 21.05 224.87 26.02 219.69 22.39 218.11 23.14 221.48 30.27 222.88 29.61"/><path class="cls-5" d="M228.88,26.12a3.29,3.29,0,0,0,3.78-1.79,3,3,0,0,0-.18-2.49,3,3,0,0,0-1.81-1.72,3,3,0,0,0-3.6,4.28A3,3,0,0,0,228.88,26.12ZM229,21.5a1.22,1.22,0,0,1,1.31.06,2.33,2.33,0,0,1,.73.95,2.36,2.36,0,0,1,.26,1.18,1.39,1.39,0,0,1-2.08,1,2.79,2.79,0,0,1-1-2.12A1.22,1.22,0,0,1,229,21.5Z"/><rect class="cls-5" x="235.69" y="14.85" width="1.65" height="7.89" transform="translate(14.67 102.94) rotate(-25.31)"/><path class="cls-5" d="M241.61,20.75l-1.52-3.22a1.39,1.39,0,0,1-.15-.85.85.85,0,0,1,.53-.59.81.81,0,0,1,.91,0,1.91,1.91,0,0,1,.43.66l1.5,3.18,1.39-.66-1.5-3.17a1.41,1.41,0,0,1-.15-.9,1,1,0,0,1,.58-.63.75.75,0,0,1,.67,0,1.38,1.38,0,0,1,.58.7l1.52,3.21,1.39-.66-1.73-3.66a1.83,1.83,0,0,0-1.13-1.06,2.11,2.11,0,0,0-1.54.16,1.65,1.65,0,0,0-.81.78,2.69,2.69,0,0,0-.2.73,2.29,2.29,0,0,0-.91-.36,2.09,2.09,0,0,0-1.85,1,2.11,2.11,0,0,0-.2.81l-.37-.78-1.33.63,2.5,5.29Z"/><path class="cls-5" d="M253.56,14.84a.43.43,0,0,1-.33-.11,1.77,1.77,0,0,1-.37-.57l-1.35-2.86a1.45,1.45,0,0,0-1.37-.89,3.26,3.26,0,0,0-1.46.36,3.34,3.34,0,0,0-1.38,1,2.07,2.07,0,0,0-.11,1.93l1.34-.63a1,1,0,0,1-.05-.57A.92.92,0,0,1,249,12a1.67,1.67,0,0,1,.64-.19.58.58,0,0,1,.57.38.4.4,0,0,1,0,.39.85.85,0,0,1-.28.25l-1.16.78a2.1,2.1,0,0,0-.88,1.05A1.76,1.76,0,0,0,248,16a1.6,1.6,0,0,0,1.07.94,1.87,1.87,0,0,0,1.27-.16,2.42,2.42,0,0,0,1-.78,2.88,2.88,0,0,0,.38-.8,3,3,0,0,0,.42.57l1.5-.71Zm-2.49,0a1.52,1.52,0,0,1-.73.7.75.75,0,0,1-.49.06.65.65,0,0,1-.45-.39.73.73,0,0,1,0-.72,1.82,1.82,0,0,1,.54-.5,4.78,4.78,0,0,0,.59-.46,1.21,1.21,0,0,0,.25-.31l.32.68A1,1,0,0,1,251.08,14.87Z"/><path class="cls-5" d="M254.71,13.77a2.29,2.29,0,0,0,1.93-.1,1.8,1.8,0,0,0,.82-.69,1.74,1.74,0,0,0,.22-.77h0l.3.64a1.14,1.14,0,0,1-.53,1.74,1.49,1.49,0,0,1-.86.2.71.71,0,0,1-.37-.27l-1.51.71a1.5,1.5,0,0,0,1.32.87,3.4,3.4,0,0,0,1.74-.37q1.71-.81,1.9-2a3,3,0,0,0-.38-1.73l-2.37-5-1.33.63.35.8a1.74,1.74,0,0,0-2-.19,2.19,2.19,0,0,0-1.22,1.41,3.28,3.28,0,0,0,.31,2.36A3.29,3.29,0,0,0,254.71,13.77ZM254.3,10a1,1,0,0,1,.57-.69,1.15,1.15,0,0,1,1.11,0,2,2,0,0,1,.81,1,2.21,2.21,0,0,1,.26,1.16,1.13,1.13,0,0,1-.71.93,1.05,1.05,0,0,1-1.09-.08,2,2,0,0,1-.7-.87A2.16,2.16,0,0,1,254.3,10Z"/><path class="cls-5" d="M260.78,11.09a2.9,2.9,0,0,0,2.18-.26,2.78,2.78,0,0,0,1.2-1A2.47,2.47,0,0,0,264.48,8l-1.43.68a.78.78,0,0,1-.13.58,1.2,1.2,0,0,1-.49.42,1.31,1.31,0,0,1-1,.12,1.78,1.78,0,0,1-.84-.82l3.63-1.72L264.09,7a3.28,3.28,0,0,0-2-2,2.67,2.67,0,0,0-1.89.22,2.52,2.52,0,0,0-1.62,2.11A3.39,3.39,0,0,0,259,9.18,3.33,3.33,0,0,0,260.78,11.09Zm-.66-4a1.09,1.09,0,0,1,.62-.65,1.11,1.11,0,0,1,.79-.08,1.34,1.34,0,0,1,.81.69l-2.16,1A1.55,1.55,0,0,1,260.12,7.1Z"/></g></g></g></svg>